<svg width="342" height="508" viewBox="0 0 342 508" fill="none" xmlns="http://www.w3.org/2000/svg">
<rect width="342" height="508" fill="#0D0D0D"/>
<rect x="112" width="167" height="508" fill="#0D0D0D"/>
<line x1="170.749" y1="19.2656" x2="170.749" y2="478.641" stroke="#F2F2F2"/>
<circle cx="170.523" cy="21.7266" r="3.00781" transform="rotate(90 170.523 21.7266)" fill="#D93644"/>
<circle cx="170.523" cy="248.68" r="3.00781" transform="rotate(90 170.523 248.68)" fill="#C4C4C4"/>
<circle cx="170.523" cy="67.1172" r="3.00781" transform="rotate(90 170.523 67.1172)" fill="#C4C4C4"/>
<circle cx="170.523" cy="294.07" r="3.00781" transform="rotate(90 170.523 294.07)" fill="#C4C4C4"/>
<circle cx="170.523" cy="112.508" r="3.00781" transform="rotate(90 170.523 112.508)" fill="#C4C4C4"/>
<circle cx="170.523" cy="339.461" r="3.00781" transform="rotate(90 170.523 339.461)" fill="#C4C4C4"/>
<circle cx="170.523" cy="157.898" r="3.00781" transform="rotate(90 170.523 157.898)" fill="#D93644"/>
<circle cx="170.523" cy="384.852" r="3.00781" transform="rotate(90 170.523 384.852)" fill="#D93644"/>
<circle cx="170.523" cy="203.836" r="3.00781" transform="rotate(90 170.523 203.836)" fill="#C4C4C4"/>
<circle cx="170.523" cy="430.242" r="3.00781" transform="rotate(90 170.523 430.242)" fill="#C4C4C4"/>
<circle cx="170.523" cy="475.633" r="3.00781" transform="rotate(90 170.523 475.633)" fill="#D93644"/>
<path d="M187.752 18.06C186.688 18.06 185.86 17.752 185.268 17.136C184.684 16.52 184.392 15.62 184.392 14.436V9.6H185.004V14.412C185.004 15.444 185.24 16.216 185.712 16.728C186.184 17.24 186.868 17.496 187.764 17.496C188.652 17.496 189.332 17.24 189.804 16.728C190.276 16.216 190.512 15.444 190.512 14.412V9.6H191.124V14.436C191.124 15.62 190.828 16.52 190.236 17.136C189.644 17.752 188.816 18.06 187.752 18.06ZM200.82 9.6V18H200.316L194.592 10.704V18H193.98V9.6H194.496L200.208 16.896V9.6H200.82ZM204.365 10.152V13.74H208.841V14.292H204.365V18H203.753V9.6H209.369V10.152H204.365ZM214.77 18.06C213.946 18.06 213.202 17.876 212.538 17.508C211.882 17.14 211.362 16.632 210.978 15.984C210.602 15.336 210.414 14.608 210.414 13.8C210.414 12.992 210.602 12.264 210.978 11.616C211.362 10.968 211.882 10.46 212.538 10.092C213.202 9.724 213.946 9.54 214.77 9.54C215.378 9.54 215.938 9.64 216.45 9.84C216.962 10.032 217.398 10.32 217.758 10.704L217.374 11.1C216.702 10.436 215.842 10.104 214.794 10.104C214.09 10.104 213.45 10.264 212.874 10.584C212.298 10.904 211.846 11.348 211.518 11.916C211.19 12.476 211.026 13.104 211.026 13.8C211.026 14.496 211.19 15.128 211.518 15.696C211.846 16.256 212.298 16.696 212.874 17.016C213.45 17.336 214.09 17.496 214.794 17.496C215.834 17.496 216.694 17.16 217.374 16.488L217.758 16.884C217.398 17.268 216.958 17.56 216.438 17.76C215.926 17.96 215.37 18.06 214.77 18.06ZM223.184 18.06C222.36 18.06 221.616 17.876 220.952 17.508C220.296 17.14 219.776 16.632 219.392 15.984C219.016 15.336 218.828 14.608 218.828 13.8C218.828 12.992 219.016 12.264 219.392 11.616C219.776 10.968 220.296 10.46 220.952 10.092C221.616 9.724 222.36 9.54 223.184 9.54C223.792 9.54 224.352 9.64 224.864 9.84C225.376 10.032 225.812 10.32 226.172 10.704L225.788 11.1C225.116 10.436 224.256 10.104 223.208 10.104C222.504 10.104 221.864 10.264 221.288 10.584C220.712 10.904 220.26 11.348 219.932 11.916C219.604 12.476 219.44 13.104 219.44 13.8C219.44 14.496 219.604 15.128 219.932 15.696C220.26 16.256 220.712 16.696 221.288 17.016C221.864 17.336 222.504 17.496 223.208 17.496C224.248 17.496 225.108 17.16 225.788 16.488L226.172 16.884C225.812 17.268 225.372 17.56 224.852 17.76C224.34 17.96 223.784 18.06 223.184 18.06ZM231.598 18.06C230.774 18.06 230.03 17.876 229.366 17.508C228.71 17.14 228.19 16.632 227.806 15.984C227.43 15.336 227.242 14.608 227.242 13.8C227.242 12.992 227.43 12.264 227.806 11.616C228.19 10.968 228.71 10.46 229.366 10.092C230.03 9.724 230.774 9.54 231.598 9.54C232.206 9.54 232.766 9.64 233.278 9.84C233.79 10.032 234.226 10.32 234.586 10.704L234.202 11.1C233.53 10.436 232.67 10.104 231.622 10.104C230.918 10.104 230.278 10.264 229.702 10.584C229.126 10.904 228.674 11.348 228.346 11.916C228.018 12.476 227.854 13.104 227.854 13.8C227.854 14.496 228.018 15.128 228.346 15.696C228.674 16.256 229.126 16.696 229.702 17.016C230.278 17.336 230.918 17.496 231.622 17.496C232.662 17.496 233.522 17.16 234.202 16.488L234.586 16.884C234.226 17.268 233.786 17.56 233.266 17.76C232.754 17.96 232.198 18.06 231.598 18.06ZM241.41 9.564C240.626 9.564 240.234 9.984 240.234 10.824V11.736H242.238V12.252H240.246V18H239.646V12.252H238.494V11.736H239.646V10.776C239.646 10.248 239.798 9.828 240.102 9.516C240.406 9.204 240.834 9.048 241.386 9.048C241.626 9.048 241.854 9.084 242.07 9.156C242.294 9.22 242.478 9.32 242.622 9.456L242.382 9.912C242.126 9.68 241.802 9.564 241.41 9.564ZM244.422 11.736H245.022V18H244.422V11.736ZM244.722 10.212C244.586 10.212 244.47 10.168 244.374 10.08C244.278 9.984 244.23 9.868 244.23 9.732C244.23 9.596 244.278 9.48 244.374 9.384C244.47 9.288 244.586 9.24 244.722 9.24C244.858 9.24 244.974 9.288 245.07 9.384C245.166 9.472 245.214 9.584 245.214 9.72C245.214 9.856 245.166 9.972 245.07 10.068C244.974 10.164 244.858 10.212 244.722 10.212ZM248.129 13.104C248.321 12.648 248.621 12.3 249.029 12.06C249.437 11.812 249.933 11.688 250.517 11.688V12.276L250.373 12.264C249.677 12.264 249.133 12.484 248.741 12.924C248.349 13.356 248.153 13.96 248.153 14.736V18H247.553V11.736H248.129V13.104ZM253.813 18.048C253.309 18.048 252.829 17.972 252.373 17.82C251.917 17.668 251.561 17.476 251.305 17.244L251.581 16.764C251.837 16.98 252.165 17.16 252.565 17.304C252.973 17.448 253.397 17.52 253.837 17.52C254.469 17.52 254.933 17.416 255.229 17.208C255.533 17 255.685 16.712 255.685 16.344C255.685 16.08 255.601 15.872 255.433 15.72C255.273 15.568 255.073 15.456 254.833 15.384C254.593 15.312 254.261 15.236 253.837 15.156C253.341 15.068 252.941 14.972 252.637 14.868C252.333 14.764 252.073 14.596 251.857 14.364C251.641 14.132 251.533 13.812 251.533 13.404C251.533 12.908 251.737 12.5 252.145 12.18C252.561 11.852 253.149 11.688 253.909 11.688C254.309 11.688 254.705 11.744 255.097 11.856C255.489 11.968 255.809 12.116 256.057 12.3L255.781 12.78C255.525 12.596 255.233 12.456 254.905 12.36C254.577 12.264 254.241 12.216 253.897 12.216C253.313 12.216 252.873 12.324 252.577 12.54C252.281 12.756 252.133 13.04 252.133 13.392C252.133 13.672 252.217 13.892 252.385 14.052C252.553 14.204 252.757 14.32 252.997 14.4C253.245 14.472 253.589 14.552 254.029 14.64C254.517 14.728 254.909 14.824 255.205 14.928C255.509 15.024 255.765 15.184 255.973 15.408C256.181 15.632 256.285 15.94 256.285 16.332C256.285 16.852 256.069 17.268 255.637 17.58C255.205 17.892 254.597 18.048 253.813 18.048ZM261.068 17.604C260.916 17.748 260.724 17.86 260.492 17.94C260.268 18.012 260.032 18.048 259.784 18.048C259.24 18.048 258.82 17.9 258.524 17.604C258.228 17.3 258.08 16.88 258.08 16.344V12.252H256.928V11.736H258.08V10.368H258.68V11.736H260.672V12.252H258.68V16.284C258.68 16.692 258.776 17.004 258.968 17.22C259.168 17.428 259.46 17.532 259.844 17.532C260.236 17.532 260.56 17.416 260.816 17.184L261.068 17.604ZM187.332 26.688C188.116 26.688 188.736 26.916 189.192 27.372C189.648 27.828 189.876 28.484 189.876 29.34V33H189.276V29.388C189.276 28.684 189.096 28.148 188.736 27.78C188.384 27.412 187.888 27.228 187.248 27.228C186.512 27.228 185.932 27.448 185.508 27.888C185.084 28.328 184.872 28.92 184.872 29.664V33H184.272V26.736H184.848V28.092C185.064 27.652 185.384 27.308 185.808 27.06C186.24 26.812 186.748 26.688 187.332 26.688ZM197.65 30.012H192.262C192.278 30.5 192.402 30.936 192.634 31.32C192.866 31.696 193.178 31.988 193.57 32.196C193.97 32.404 194.418 32.508 194.914 32.508C195.322 32.508 195.698 32.436 196.042 32.292C196.394 32.14 196.686 31.92 196.918 31.632L197.266 32.028C196.994 32.356 196.65 32.608 196.234 32.784C195.826 32.96 195.382 33.048 194.902 33.048C194.278 33.048 193.722 32.912 193.234 32.64C192.746 32.368 192.362 31.992 192.082 31.512C191.81 31.032 191.674 30.484 191.674 29.868C191.674 29.26 191.802 28.716 192.058 28.236C192.322 27.748 192.682 27.368 193.138 27.096C193.594 26.824 194.106 26.688 194.674 26.688C195.242 26.688 195.75 26.824 196.198 27.096C196.654 27.36 197.01 27.732 197.266 28.212C197.53 28.692 197.662 29.236 197.662 29.844L197.65 30.012ZM194.674 27.216C194.234 27.216 193.838 27.316 193.486 27.516C193.134 27.708 192.85 27.984 192.634 28.344C192.426 28.696 192.306 29.096 192.274 29.544H197.074C197.05 29.096 196.93 28.696 196.714 28.344C196.498 27.992 196.214 27.716 195.862 27.516C195.51 27.316 195.114 27.216 194.674 27.216ZM205.158 26.736V32.328C205.158 33.368 204.906 34.136 204.402 34.632C203.898 35.128 203.138 35.376 202.122 35.376C201.546 35.376 201.002 35.288 200.49 35.112C199.978 34.936 199.566 34.692 199.254 34.38L199.578 33.924C199.89 34.212 200.266 34.436 200.706 34.596C201.146 34.756 201.614 34.836 202.11 34.836C202.942 34.836 203.558 34.636 203.958 34.236C204.358 33.844 204.558 33.232 204.558 32.4V31.344C204.302 31.8 203.946 32.152 203.49 32.4C203.034 32.648 202.522 32.772 201.954 32.772C201.37 32.772 200.838 32.644 200.358 32.388C199.886 32.124 199.514 31.76 199.242 31.296C198.97 30.832 198.834 30.308 198.834 29.724C198.834 29.14 198.97 28.616 199.242 28.152C199.514 27.688 199.886 27.328 200.358 27.072C200.838 26.816 201.37 26.688 201.954 26.688C202.53 26.688 203.05 26.816 203.514 27.072C203.978 27.328 204.334 27.688 204.582 28.152V26.736H205.158ZM202.002 32.232C202.49 32.232 202.93 32.128 203.322 31.92C203.714 31.704 204.018 31.408 204.234 31.032C204.458 30.648 204.57 30.212 204.57 29.724C204.57 29.236 204.458 28.804 204.234 28.428C204.018 28.052 203.714 27.76 203.322 27.552C202.93 27.336 202.49 27.228 202.002 27.228C201.514 27.228 201.074 27.336 200.682 27.552C200.298 27.76 199.994 28.052 199.77 28.428C199.554 28.804 199.446 29.236 199.446 29.724C199.446 30.212 199.554 30.648 199.77 31.032C199.994 31.408 200.298 31.704 200.682 31.92C201.074 32.128 201.514 32.232 202.002 32.232ZM210.146 33.048C209.554 33.048 209.018 32.912 208.538 32.64C208.066 32.368 207.694 31.992 207.422 31.512C207.15 31.024 207.014 30.476 207.014 29.868C207.014 29.26 207.15 28.716 207.422 28.236C207.694 27.748 208.066 27.368 208.538 27.096C209.018 26.824 209.554 26.688 210.146 26.688C210.738 26.688 211.27 26.824 211.742 27.096C212.222 27.368 212.598 27.748 212.87 28.236C213.142 28.716 213.278 29.26 213.278 29.868C213.278 30.476 213.142 31.024 212.87 31.512C212.598 31.992 212.222 32.368 211.742 32.64C211.27 32.912 210.738 33.048 210.146 33.048ZM210.146 32.508C210.626 32.508 211.054 32.396 211.43 32.172C211.814 31.948 212.114 31.636 212.33 31.236C212.554 30.836 212.666 30.38 212.666 29.868C212.666 29.356 212.554 28.9 212.33 28.5C212.114 28.1 211.814 27.788 211.43 27.564C211.054 27.34 210.626 27.228 210.146 27.228C209.666 27.228 209.234 27.34 208.85 27.564C208.474 27.788 208.174 28.1 207.95 28.5C207.734 28.9 207.626 29.356 207.626 29.868C207.626 30.38 207.734 30.836 207.95 31.236C208.174 31.636 208.474 31.948 208.85 32.172C209.234 32.396 209.666 32.508 210.146 32.508ZM218.247 32.604C218.095 32.748 217.903 32.86 217.671 32.94C217.447 33.012 217.211 33.048 216.963 33.048C216.419 33.048 215.999 32.9 215.703 32.604C215.407 32.3 215.259 31.88 215.259 31.344V27.252H214.107V26.736H215.259V25.368H215.859V26.736H217.851V27.252H215.859V31.284C215.859 31.692 215.955 32.004 216.147 32.22C216.347 32.428 216.639 32.532 217.023 32.532C217.415 32.532 217.739 32.416 217.995 32.184L218.247 32.604ZM219.92 26.736H220.52V33H219.92V26.736ZM220.22 25.212C220.084 25.212 219.968 25.168 219.872 25.08C219.776 24.984 219.728 24.868 219.728 24.732C219.728 24.596 219.776 24.48 219.872 24.384C219.968 24.288 220.084 24.24 220.22 24.24C220.356 24.24 220.472 24.288 220.568 24.384C220.664 24.472 220.712 24.584 220.712 24.72C220.712 24.856 220.664 24.972 220.568 25.068C220.472 25.164 220.356 25.212 220.22 25.212ZM225.161 26.688C225.937 26.688 226.533 26.888 226.949 27.288C227.365 27.68 227.573 28.26 227.573 29.028V33H226.997V31.884C226.797 32.252 226.505 32.54 226.121 32.748C225.737 32.948 225.277 33.048 224.741 33.048C224.045 33.048 223.493 32.884 223.085 32.556C222.685 32.228 222.485 31.796 222.485 31.26C222.485 30.74 222.669 30.32 223.037 30C223.413 29.672 224.009 29.508 224.825 29.508H226.973V29.004C226.973 28.42 226.813 27.976 226.493 27.672C226.181 27.368 225.721 27.216 225.113 27.216C224.697 27.216 224.297 27.288 223.913 27.432C223.537 27.576 223.217 27.768 222.953 28.008L222.653 27.576C222.965 27.296 223.341 27.08 223.781 26.928C224.221 26.768 224.681 26.688 225.161 26.688ZM224.825 32.556C225.345 32.556 225.785 32.436 226.145 32.196C226.513 31.956 226.789 31.608 226.973 31.152V29.976H224.837C224.221 29.976 223.773 30.088 223.493 30.312C223.221 30.536 223.085 30.844 223.085 31.236C223.085 31.644 223.237 31.968 223.541 32.208C223.845 32.44 224.273 32.556 224.825 32.556ZM233.153 32.604C233.001 32.748 232.809 32.86 232.577 32.94C232.353 33.012 232.117 33.048 231.869 33.048C231.325 33.048 230.905 32.9 230.609 32.604C230.313 32.3 230.165 31.88 230.165 31.344V27.252H229.013V26.736H230.165V25.368H230.765V26.736H232.757V27.252H230.765V31.284C230.765 31.692 230.861 32.004 231.053 32.22C231.253 32.428 231.545 32.532 231.929 32.532C232.321 32.532 232.645 32.416 232.901 32.184L233.153 32.604ZM239.896 30.012H234.508C234.524 30.5 234.648 30.936 234.88 31.32C235.112 31.696 235.424 31.988 235.816 32.196C236.216 32.404 236.664 32.508 237.16 32.508C237.568 32.508 237.944 32.436 238.288 32.292C238.64 32.14 238.932 31.92 239.164 31.632L239.512 32.028C239.24 32.356 238.896 32.608 238.48 32.784C238.072 32.96 237.628 33.048 237.148 33.048C236.524 33.048 235.968 32.912 235.48 32.64C234.992 32.368 234.608 31.992 234.328 31.512C234.056 31.032 233.92 30.484 233.92 29.868C233.92 29.26 234.048 28.716 234.304 28.236C234.568 27.748 234.928 27.368 235.384 27.096C235.84 26.824 236.352 26.688 236.92 26.688C237.488 26.688 237.996 26.824 238.444 27.096C238.9 27.36 239.256 27.732 239.512 28.212C239.776 28.692 239.908 29.236 239.908 29.844L239.896 30.012ZM236.92 27.216C236.48 27.216 236.084 27.316 235.732 27.516C235.38 27.708 235.096 27.984 234.88 28.344C234.672 28.696 234.552 29.096 234.52 29.544H239.32C239.296 29.096 239.176 28.696 238.96 28.344C238.744 27.992 238.46 27.716 238.108 27.516C237.756 27.316 237.36 27.216 236.92 27.216ZM247.332 24.096V33H246.744V31.524C246.496 32.012 246.148 32.388 245.7 32.652C245.252 32.916 244.744 33.048 244.176 33.048C243.592 33.048 243.064 32.912 242.592 32.64C242.12 32.368 241.748 31.992 241.476 31.512C241.212 31.032 241.08 30.484 241.08 29.868C241.08 29.252 241.212 28.704 241.476 28.224C241.748 27.736 242.12 27.36 242.592 27.096C243.064 26.824 243.592 26.688 244.176 26.688C244.736 26.688 245.236 26.82 245.676 27.084C246.124 27.348 246.476 27.716 246.732 28.188V24.096H247.332ZM244.212 32.508C244.692 32.508 245.12 32.396 245.496 32.172C245.88 31.948 246.18 31.636 246.396 31.236C246.62 30.836 246.732 30.38 246.732 29.868C246.732 29.356 246.62 28.9 246.396 28.5C246.18 28.1 245.88 27.788 245.496 27.564C245.12 27.34 244.692 27.228 244.212 27.228C243.732 27.228 243.3 27.34 242.916 27.564C242.54 27.788 242.24 28.1 242.016 28.5C241.8 28.9 241.692 29.356 241.692 29.868C241.692 30.38 241.8 30.836 242.016 31.236C242.24 31.636 242.54 31.948 242.916 32.172C243.3 32.396 243.732 32.508 244.212 32.508ZM190.296 48L188.292 45.192C187.996 45.232 187.724 45.252 187.476 45.252H185.076V48H184.464V39.6H187.476C188.532 39.6 189.36 39.852 189.96 40.356C190.56 40.852 190.86 41.544 190.86 42.432C190.86 43.096 190.688 43.656 190.344 44.112C190.008 44.56 189.524 44.876 188.892 45.06L190.992 48H190.296ZM187.476 44.712C188.372 44.712 189.056 44.516 189.528 44.124C190 43.724 190.236 43.16 190.236 42.432C190.236 41.704 190 41.144 189.528 40.752C189.056 40.352 188.372 40.152 187.476 40.152H185.076V44.712H187.476ZM198.897 47.448V48H193.101V39.6H198.717V40.152H193.713V43.464H198.189V44.004H193.713V47.448H198.897ZM201.128 39.6H204.452C205.324 39.6 206.096 39.78 206.768 40.14C207.448 40.5 207.976 41 208.352 41.64C208.728 42.272 208.916 42.992 208.916 43.8C208.916 44.608 208.728 45.332 208.352 45.972C207.976 46.604 207.448 47.1 206.768 47.46C206.096 47.82 205.324 48 204.452 48H201.128V39.6ZM204.404 47.448C205.18 47.448 205.864 47.296 206.456 46.992C207.048 46.68 207.504 46.248 207.824 45.696C208.144 45.144 208.304 44.512 208.304 43.8C208.304 43.088 208.144 42.456 207.824 41.904C207.504 41.352 207.048 40.924 206.456 40.62C205.864 40.308 205.18 40.152 204.404 40.152H201.74V47.448H204.404ZM211.042 39.6H214.366C215.238 39.6 216.01 39.78 216.682 40.14C217.362 40.5 217.89 41 218.266 41.64C218.642 42.272 218.83 42.992 218.83 43.8C218.83 44.608 218.642 45.332 218.266 45.972C217.89 46.604 217.362 47.1 216.682 47.46C216.01 47.82 215.238 48 214.366 48H211.042V39.6ZM214.318 47.448C215.094 47.448 215.778 47.296 216.37 46.992C216.962 46.68 217.418 46.248 217.738 45.696C218.058 45.144 218.218 44.512 218.218 43.8C218.218 43.088 218.058 42.456 217.738 41.904C217.418 41.352 216.962 40.924 216.37 40.62C215.778 40.308 215.094 40.152 214.318 40.152H211.654V47.448H214.318ZM225.562 44.064H223.282V46.284H222.742V44.064H220.462V43.548H222.742V41.316H223.282V43.548H225.562V44.064Z" fill="#F2F2F2"/>
<path d="M182.752 153.06C181.688 153.06 180.86 152.752 180.268 152.136C179.684 151.52 179.392 150.62 179.392 149.436V144.6H180.004V149.412C180.004 150.444 180.24 151.216 180.712 151.728C181.184 152.24 181.868 152.496 182.764 152.496C183.652 152.496 184.332 152.24 184.804 151.728C185.276 151.216 185.512 150.444 185.512 149.412V144.6H186.124V149.436C186.124 150.62 185.828 151.52 185.236 152.136C184.644 152.752 183.816 153.06 182.752 153.06ZM195.82 144.6V153H195.316L189.592 145.704V153H188.98V144.6H189.496L195.208 151.896V144.6H195.82ZM198.033 149.508H201.117V150.048H198.033V149.508ZM209.155 153L207.151 150.192C206.855 150.232 206.583 150.252 206.335 150.252H203.935V153H203.323V144.6H206.335C207.391 144.6 208.219 144.852 208.819 145.356C209.419 145.852 209.719 146.544 209.719 147.432C209.719 148.096 209.547 148.656 209.203 149.112C208.867 149.56 208.383 149.876 207.751 150.06L209.851 153H209.155ZM206.335 149.712C207.231 149.712 207.915 149.516 208.387 149.124C208.859 148.724 209.095 148.16 209.095 147.432C209.095 146.704 208.859 146.144 208.387 145.752C207.915 145.352 207.231 145.152 206.335 145.152H203.935V149.712H206.335ZM217.756 152.448V153H211.96V144.6H217.576V145.152H212.572V148.464H217.048V149.004H212.572V152.448H217.756ZM219.987 144.6H223.311C224.183 144.6 224.955 144.78 225.627 145.14C226.307 145.5 226.835 146 227.211 146.64C227.587 147.272 227.775 147.992 227.775 148.8C227.775 149.608 227.587 150.332 227.211 150.972C226.835 151.604 226.307 152.1 225.627 152.46C224.955 152.82 224.183 153 223.311 153H219.987V144.6ZM223.263 152.448C224.039 152.448 224.723 152.296 225.315 151.992C225.907 151.68 226.363 151.248 226.683 150.696C227.003 150.144 227.163 149.512 227.163 148.8C227.163 148.088 227.003 147.456 226.683 146.904C226.363 146.352 225.907 145.924 225.315 145.62C224.723 145.308 224.039 145.152 223.263 145.152H220.599V152.448H223.263ZM229.902 144.6H233.226C234.098 144.6 234.87 144.78 235.542 145.14C236.222 145.5 236.75 146 237.126 146.64C237.502 147.272 237.69 147.992 237.69 148.8C237.69 149.608 237.502 150.332 237.126 150.972C236.75 151.604 236.222 152.1 235.542 152.46C234.87 152.82 234.098 153 233.226 153H229.902V144.6ZM233.178 152.448C233.954 152.448 234.638 152.296 235.23 151.992C235.822 151.68 236.278 151.248 236.598 150.696C236.918 150.144 237.078 149.512 237.078 148.8C237.078 148.088 236.918 147.456 236.598 146.904C236.278 146.352 235.822 145.924 235.23 145.62C234.638 145.308 233.954 145.152 233.178 145.152H230.514V152.448H233.178ZM251.658 146.736L249.282 153H248.718L246.606 147.564L244.482 153H243.93L241.554 146.736H242.13L244.218 152.328L246.354 146.736H246.87L248.994 152.316L251.106 146.736H251.658ZM254.978 146.688C255.754 146.688 256.35 146.888 256.766 147.288C257.182 147.68 257.39 148.26 257.39 149.028V153H256.814V151.884C256.614 152.252 256.322 152.54 255.938 152.748C255.554 152.948 255.094 153.048 254.558 153.048C253.862 153.048 253.31 152.884 252.902 152.556C252.502 152.228 252.302 151.796 252.302 151.26C252.302 150.74 252.486 150.32 252.854 150C253.23 149.672 253.826 149.508 254.642 149.508H256.79V149.004C256.79 148.42 256.63 147.976 256.31 147.672C255.998 147.368 255.538 147.216 254.93 147.216C254.514 147.216 254.114 147.288 253.73 147.432C253.354 147.576 253.034 147.768 252.77 148.008L252.47 147.576C252.782 147.296 253.158 147.08 253.598 146.928C254.038 146.768 254.498 146.688 254.978 146.688ZM254.642 152.556C255.162 152.556 255.602 152.436 255.962 152.196C256.33 151.956 256.606 151.608 256.79 151.152V149.976H254.654C254.038 149.976 253.59 150.088 253.31 150.312C253.038 150.536 252.902 150.844 252.902 151.236C252.902 151.644 253.054 151.968 253.358 152.208C253.662 152.44 254.09 152.556 254.642 152.556ZM261.446 153.048C260.942 153.048 260.462 152.972 260.006 152.82C259.55 152.668 259.194 152.476 258.938 152.244L259.214 151.764C259.47 151.98 259.798 152.16 260.198 152.304C260.606 152.448 261.03 152.52 261.47 152.52C262.102 152.52 262.566 152.416 262.862 152.208C263.166 152 263.318 151.712 263.318 151.344C263.318 151.08 263.234 150.872 263.066 150.72C262.906 150.568 262.706 150.456 262.466 150.384C262.226 150.312 261.894 150.236 261.47 150.156C260.974 150.068 260.574 149.972 260.27 149.868C259.966 149.764 259.706 149.596 259.49 149.364C259.274 149.132 259.166 148.812 259.166 148.404C259.166 147.908 259.37 147.5 259.778 147.18C260.194 146.852 260.782 146.688 261.542 146.688C261.942 146.688 262.338 146.744 262.73 146.856C263.122 146.968 263.442 147.116 263.69 147.3L263.414 147.78C263.158 147.596 262.866 147.456 262.538 147.36C262.21 147.264 261.874 147.216 261.53 147.216C260.946 147.216 260.506 147.324 260.21 147.54C259.914 147.756 259.766 148.04 259.766 148.392C259.766 148.672 259.85 148.892 260.018 149.052C260.186 149.204 260.39 149.32 260.63 149.4C260.878 149.472 261.222 149.552 261.662 149.64C262.15 149.728 262.542 149.824 262.838 149.928C263.142 150.024 263.398 150.184 263.606 150.408C263.814 150.632 263.918 150.94 263.918 151.332C263.918 151.852 263.702 152.268 263.27 152.58C262.838 152.892 262.23 153.048 261.446 153.048ZM179.272 161.736H179.872V168H179.272V161.736ZM179.572 160.212C179.436 160.212 179.32 160.168 179.224 160.08C179.128 159.984 179.08 159.868 179.08 159.732C179.08 159.596 179.128 159.48 179.224 159.384C179.32 159.288 179.436 159.24 179.572 159.24C179.708 159.24 179.824 159.288 179.92 159.384C180.016 159.472 180.064 159.584 180.064 159.72C180.064 159.856 180.016 159.972 179.92 160.068C179.824 160.164 179.708 160.212 179.572 160.212ZM190.201 161.688C190.977 161.688 191.585 161.916 192.025 162.372C192.473 162.828 192.697 163.484 192.697 164.34V168H192.097V164.388C192.097 163.684 191.925 163.148 191.581 162.78C191.237 162.412 190.757 162.228 190.141 162.228C189.437 162.228 188.877 162.448 188.461 162.888C188.053 163.328 187.849 163.92 187.849 164.664V168H187.249V164.388C187.249 163.684 187.077 163.148 186.733 162.78C186.389 162.412 185.909 162.228 185.293 162.228C184.589 162.228 184.029 162.448 183.613 162.888C183.205 163.328 183.001 163.92 183.001 164.664V168H182.401V161.736H182.977V163.08C183.185 162.64 183.493 162.3 183.901 162.06C184.317 161.812 184.809 161.688 185.377 161.688C185.945 161.688 186.425 161.816 186.817 162.072C187.217 162.328 187.501 162.704 187.669 163.2C187.877 162.736 188.201 162.368 188.641 162.096C189.089 161.824 189.609 161.688 190.201 161.688ZM198.318 161.688C198.902 161.688 199.43 161.824 199.902 162.096C200.374 162.368 200.742 162.744 201.006 163.224C201.278 163.704 201.414 164.252 201.414 164.868C201.414 165.484 201.278 166.036 201.006 166.524C200.742 167.004 200.374 167.38 199.902 167.652C199.43 167.916 198.902 168.048 198.318 168.048C197.766 168.048 197.266 167.92 196.818 167.664C196.37 167.4 196.022 167.036 195.774 166.572V170.328H195.174V161.736H195.75V163.212C195.998 162.732 196.346 162.36 196.794 162.096C197.25 161.824 197.758 161.688 198.318 161.688ZM198.282 167.508C198.762 167.508 199.194 167.396 199.578 167.172C199.962 166.948 200.262 166.636 200.478 166.236C200.702 165.836 200.814 165.38 200.814 164.868C200.814 164.356 200.702 163.9 200.478 163.5C200.262 163.1 199.962 162.788 199.578 162.564C199.194 162.34 198.762 162.228 198.282 162.228C197.802 162.228 197.37 162.34 196.986 162.564C196.61 162.788 196.31 163.1 196.086 163.5C195.87 163.9 195.762 164.356 195.762 164.868C195.762 165.38 195.87 165.836 196.086 166.236C196.31 166.636 196.61 166.948 196.986 167.172C197.37 167.396 197.802 167.508 198.282 167.508ZM203.272 159.096H203.872V168H203.272V159.096ZM211.693 165.012H206.305C206.321 165.5 206.445 165.936 206.677 166.32C206.909 166.696 207.221 166.988 207.613 167.196C208.013 167.404 208.461 167.508 208.957 167.508C209.365 167.508 209.741 167.436 210.085 167.292C210.437 167.14 210.729 166.92 210.961 166.632L211.309 167.028C211.037 167.356 210.693 167.608 210.277 167.784C209.869 167.96 209.425 168.048 208.945 168.048C208.321 168.048 207.765 167.912 207.277 167.64C206.789 167.368 206.405 166.992 206.125 166.512C205.853 166.032 205.717 165.484 205.717 164.868C205.717 164.26 205.845 163.716 206.101 163.236C206.365 162.748 206.725 162.368 207.181 162.096C207.637 161.824 208.149 161.688 208.717 161.688C209.285 161.688 209.793 161.824 210.241 162.096C210.697 162.36 211.053 162.732 211.309 163.212C211.573 163.692 211.705 164.236 211.705 164.844L211.693 165.012ZM208.717 162.216C208.277 162.216 207.881 162.316 207.529 162.516C207.177 162.708 206.893 162.984 206.677 163.344C206.469 163.696 206.349 164.096 206.317 164.544H211.117C211.093 164.096 210.973 163.696 210.757 163.344C210.541 162.992 210.257 162.716 209.905 162.516C209.553 162.316 209.157 162.216 208.717 162.216ZM221.361 161.688C222.137 161.688 222.745 161.916 223.185 162.372C223.633 162.828 223.857 163.484 223.857 164.34V168H223.257V164.388C223.257 163.684 223.085 163.148 222.741 162.78C222.397 162.412 221.917 162.228 221.301 162.228C220.597 162.228 220.037 162.448 219.621 162.888C219.213 163.328 219.009 163.92 219.009 164.664V168H218.409V164.388C218.409 163.684 218.237 163.148 217.893 162.78C217.549 162.412 217.069 162.228 216.453 162.228C215.749 162.228 215.189 162.448 214.773 162.888C214.365 163.328 214.161 163.92 214.161 164.664V168H213.561V161.736H214.137V163.08C214.345 162.64 214.653 162.3 215.061 162.06C215.477 161.812 215.969 161.688 216.537 161.688C217.105 161.688 217.585 161.816 217.977 162.072C218.377 162.328 218.661 162.704 218.829 163.2C219.037 162.736 219.361 162.368 219.801 162.096C220.249 161.824 220.769 161.688 221.361 161.688ZM231.638 165.012H226.25C226.266 165.5 226.39 165.936 226.622 166.32C226.854 166.696 227.166 166.988 227.558 167.196C227.958 167.404 228.406 167.508 228.902 167.508C229.31 167.508 229.686 167.436 230.03 167.292C230.382 167.14 230.674 166.92 230.906 166.632L231.254 167.028C230.982 167.356 230.638 167.608 230.222 167.784C229.814 167.96 229.37 168.048 228.89 168.048C228.266 168.048 227.71 167.912 227.222 167.64C226.734 167.368 226.35 166.992 226.07 166.512C225.798 166.032 225.662 165.484 225.662 164.868C225.662 164.26 225.79 163.716 226.046 163.236C226.31 162.748 226.67 162.368 227.126 162.096C227.582 161.824 228.094 161.688 228.662 161.688C229.23 161.688 229.738 161.824 230.186 162.096C230.642 162.36 230.998 162.732 231.254 163.212C231.518 163.692 231.65 164.236 231.65 164.844L231.638 165.012ZM228.662 162.216C228.222 162.216 227.826 162.316 227.474 162.516C227.122 162.708 226.838 162.984 226.622 163.344C226.414 163.696 226.294 164.096 226.262 164.544H231.062C231.038 164.096 230.918 163.696 230.702 163.344C230.486 162.992 230.202 162.716 229.85 162.516C229.498 162.316 229.102 162.216 228.662 162.216ZM236.566 161.688C237.35 161.688 237.97 161.916 238.426 162.372C238.882 162.828 239.11 163.484 239.11 164.34V168H238.51V164.388C238.51 163.684 238.33 163.148 237.97 162.78C237.618 162.412 237.122 162.228 236.482 162.228C235.746 162.228 235.166 162.448 234.742 162.888C234.318 163.328 234.106 163.92 234.106 164.664V168H233.506V161.736H234.082V163.092C234.298 162.652 234.618 162.308 235.042 162.06C235.474 161.812 235.982 161.688 236.566 161.688ZM244.689 167.604C244.537 167.748 244.345 167.86 244.113 167.94C243.889 168.012 243.653 168.048 243.405 168.048C242.861 168.048 242.441 167.9 242.145 167.604C241.849 167.3 241.701 166.88 241.701 166.344V162.252H240.549V161.736H241.701V160.368H242.301V161.736H244.293V162.252H242.301V166.284C242.301 166.692 242.397 167.004 242.589 167.22C242.789 167.428 243.081 167.532 243.465 167.532C243.857 167.532 244.181 167.416 244.437 167.184L244.689 167.604ZM251.431 165.012H246.043C246.059 165.5 246.183 165.936 246.415 166.32C246.647 166.696 246.959 166.988 247.351 167.196C247.751 167.404 248.199 167.508 248.695 167.508C249.103 167.508 249.479 167.436 249.823 167.292C250.175 167.14 250.467 166.92 250.699 166.632L251.047 167.028C250.775 167.356 250.431 167.608 250.015 167.784C249.607 167.96 249.163 168.048 248.683 168.048C248.059 168.048 247.503 167.912 247.015 167.64C246.527 167.368 246.143 166.992 245.863 166.512C245.591 166.032 245.455 165.484 245.455 164.868C245.455 164.26 245.583 163.716 245.839 163.236C246.103 162.748 246.463 162.368 246.919 162.096C247.375 161.824 247.887 161.688 248.455 161.688C249.023 161.688 249.531 161.824 249.979 162.096C250.435 162.36 250.791 162.732 251.047 163.212C251.311 163.692 251.443 164.236 251.443 164.844L251.431 165.012ZM248.455 162.216C248.015 162.216 247.619 162.316 247.267 162.516C246.915 162.708 246.631 162.984 246.415 163.344C246.207 163.696 246.087 164.096 246.055 164.544H250.855C250.831 164.096 250.711 163.696 250.495 163.344C250.279 162.992 249.995 162.716 249.643 162.516C249.291 162.316 248.895 162.216 248.455 162.216ZM258.867 159.096V168H258.279V166.524C258.031 167.012 257.683 167.388 257.235 167.652C256.787 167.916 256.279 168.048 255.711 168.048C255.127 168.048 254.599 167.912 254.127 167.64C253.655 167.368 253.283 166.992 253.011 166.512C252.747 166.032 252.615 165.484 252.615 164.868C252.615 164.252 252.747 163.704 253.011 163.224C253.283 162.736 253.655 162.36 254.127 162.096C254.599 161.824 255.127 161.688 255.711 161.688C256.271 161.688 256.771 161.82 257.211 162.084C257.659 162.348 258.011 162.716 258.267 163.188V159.096H258.867ZM255.747 167.508C256.227 167.508 256.655 167.396 257.031 167.172C257.415 166.948 257.715 166.636 257.931 166.236C258.155 165.836 258.267 165.38 258.267 164.868C258.267 164.356 258.155 163.9 257.931 163.5C257.715 163.1 257.415 162.788 257.031 162.564C256.655 162.34 256.227 162.228 255.747 162.228C255.267 162.228 254.835 162.34 254.451 162.564C254.075 162.788 253.775 163.1 253.551 163.5C253.335 163.9 253.227 164.356 253.227 164.868C253.227 165.38 253.335 165.836 253.551 166.236C253.775 166.636 254.075 166.948 254.451 167.172C254.835 167.396 255.267 167.508 255.747 167.508Z" fill="#F2F2F2"/>
<path d="M192.408 365L192.396 357.812L188.88 363.884H188.58L185.064 357.836V365H184.464V356.6H184.98L188.736 363.092L192.492 356.6H192.996L193.008 365H192.408ZM198.192 365.048C197.6 365.048 197.064 364.912 196.584 364.64C196.112 364.368 195.74 363.992 195.468 363.512C195.196 363.024 195.06 362.476 195.06 361.868C195.06 361.26 195.196 360.716 195.468 360.236C195.74 359.748 196.112 359.368 196.584 359.096C197.064 358.824 197.6 358.688 198.192 358.688C198.784 358.688 199.316 358.824 199.788 359.096C200.268 359.368 200.644 359.748 200.916 360.236C201.188 360.716 201.324 361.26 201.324 361.868C201.324 362.476 201.188 363.024 200.916 363.512C200.644 363.992 200.268 364.368 199.788 364.64C199.316 364.912 198.784 365.048 198.192 365.048ZM198.192 364.508C198.672 364.508 199.1 364.396 199.476 364.172C199.86 363.948 200.16 363.636 200.376 363.236C200.6 362.836 200.712 362.38 200.712 361.868C200.712 361.356 200.6 360.9 200.376 360.5C200.16 360.1 199.86 359.788 199.476 359.564C199.1 359.34 198.672 359.228 198.192 359.228C197.712 359.228 197.28 359.34 196.896 359.564C196.52 359.788 196.22 360.1 195.996 360.5C195.78 360.9 195.672 361.356 195.672 361.868C195.672 362.38 195.78 362.836 195.996 363.236C196.22 363.636 196.52 363.948 196.896 364.172C197.28 364.396 197.712 364.508 198.192 364.508ZM204.77 365.048C204.266 365.048 203.786 364.972 203.33 364.82C202.874 364.668 202.518 364.476 202.262 364.244L202.538 363.764C202.794 363.98 203.122 364.16 203.522 364.304C203.93 364.448 204.354 364.52 204.794 364.52C205.426 364.52 205.89 364.416 206.186 364.208C206.49 364 206.642 363.712 206.642 363.344C206.642 363.08 206.558 362.872 206.39 362.72C206.23 362.568 206.03 362.456 205.79 362.384C205.55 362.312 205.218 362.236 204.794 362.156C204.298 362.068 203.898 361.972 203.594 361.868C203.29 361.764 203.03 361.596 202.814 361.364C202.598 361.132 202.49 360.812 202.49 360.404C202.49 359.908 202.694 359.5 203.102 359.18C203.518 358.852 204.106 358.688 204.866 358.688C205.266 358.688 205.662 358.744 206.054 358.856C206.446 358.968 206.766 359.116 207.014 359.3L206.738 359.78C206.482 359.596 206.19 359.456 205.862 359.36C205.534 359.264 205.198 359.216 204.854 359.216C204.27 359.216 203.83 359.324 203.534 359.54C203.238 359.756 203.09 360.04 203.09 360.392C203.09 360.672 203.174 360.892 203.342 361.052C203.51 361.204 203.714 361.32 203.954 361.4C204.202 361.472 204.546 361.552 204.986 361.64C205.474 361.728 205.866 361.824 206.162 361.928C206.466 362.024 206.722 362.184 206.93 362.408C207.138 362.632 207.242 362.94 207.242 363.332C207.242 363.852 207.026 364.268 206.594 364.58C206.162 364.892 205.554 365.048 204.77 365.048ZM212.024 364.604C211.872 364.748 211.68 364.86 211.448 364.94C211.224 365.012 210.988 365.048 210.74 365.048C210.196 365.048 209.776 364.9 209.48 364.604C209.184 364.3 209.036 363.88 209.036 363.344V359.252H207.884V358.736H209.036V357.368H209.636V358.736H211.628V359.252H209.636V363.284C209.636 363.692 209.732 364.004 209.924 364.22C210.124 364.428 210.416 364.532 210.8 364.532C211.192 364.532 211.516 364.416 211.772 364.184L212.024 364.604ZM219.228 365.048C218.636 365.048 218.1 364.912 217.62 364.64C217.148 364.368 216.776 363.992 216.504 363.512C216.232 363.024 216.096 362.476 216.096 361.868C216.096 361.26 216.232 360.716 216.504 360.236C216.776 359.748 217.148 359.368 217.62 359.096C218.1 358.824 218.636 358.688 219.228 358.688C219.82 358.688 220.352 358.824 220.824 359.096C221.304 359.368 221.68 359.748 221.952 360.236C222.224 360.716 222.36 361.26 222.36 361.868C222.36 362.476 222.224 363.024 221.952 363.512C221.68 363.992 221.304 364.368 220.824 364.64C220.352 364.912 219.82 365.048 219.228 365.048ZM219.228 364.508C219.708 364.508 220.136 364.396 220.512 364.172C220.896 363.948 221.196 363.636 221.412 363.236C221.636 362.836 221.748 362.38 221.748 361.868C221.748 361.356 221.636 360.9 221.412 360.5C221.196 360.1 220.896 359.788 220.512 359.564C220.136 359.34 219.708 359.228 219.228 359.228C218.748 359.228 218.316 359.34 217.932 359.564C217.556 359.788 217.256 360.1 217.032 360.5C216.816 360.9 216.708 361.356 216.708 361.868C216.708 362.38 216.816 362.836 217.032 363.236C217.256 363.636 217.556 363.948 217.932 364.172C218.316 364.396 218.748 364.508 219.228 364.508ZM226.105 356.564C225.321 356.564 224.929 356.984 224.929 357.824V358.736H226.933V359.252H224.941V365H224.341V359.252H223.189V358.736H224.341V357.776C224.341 357.248 224.493 356.828 224.797 356.516C225.101 356.204 225.529 356.048 226.081 356.048C226.321 356.048 226.549 356.084 226.765 356.156C226.989 356.22 227.173 356.32 227.317 356.456L227.077 356.912C226.821 356.68 226.497 356.564 226.105 356.564ZM234.348 364.604C234.196 364.748 234.004 364.86 233.772 364.94C233.548 365.012 233.312 365.048 233.064 365.048C232.52 365.048 232.1 364.9 231.804 364.604C231.508 364.3 231.36 363.88 231.36 363.344V359.252H230.208V358.736H231.36V357.368H231.96V358.736H233.952V359.252H231.96V363.284C231.96 363.692 232.056 364.004 232.248 364.22C232.448 364.428 232.74 364.532 233.124 364.532C233.516 364.532 233.84 364.416 234.096 364.184L234.348 364.604ZM239.082 358.688C239.866 358.688 240.486 358.916 240.942 359.372C241.398 359.828 241.626 360.484 241.626 361.34V365H241.026V361.388C241.026 360.684 240.846 360.148 240.486 359.78C240.134 359.412 239.638 359.228 238.998 359.228C238.262 359.228 237.682 359.448 237.258 359.888C236.834 360.328 236.622 360.92 236.622 361.664V365H236.022V356.096H236.622V360.044C236.838 359.612 237.158 359.28 237.582 359.048C238.006 358.808 238.506 358.688 239.082 358.688ZM249.4 362.012H244.012C244.028 362.5 244.152 362.936 244.384 363.32C244.616 363.696 244.928 363.988 245.32 364.196C245.72 364.404 246.168 364.508 246.664 364.508C247.072 364.508 247.448 364.436 247.792 364.292C248.144 364.14 248.436 363.92 248.668 363.632L249.016 364.028C248.744 364.356 248.4 364.608 247.984 364.784C247.576 364.96 247.132 365.048 246.652 365.048C246.028 365.048 245.472 364.912 244.984 364.64C244.496 364.368 244.112 363.992 243.832 363.512C243.56 363.032 243.424 362.484 243.424 361.868C243.424 361.26 243.552 360.716 243.808 360.236C244.072 359.748 244.432 359.368 244.888 359.096C245.344 358.824 245.856 358.688 246.424 358.688C246.992 358.688 247.5 358.824 247.948 359.096C248.404 359.36 248.76 359.732 249.016 360.212C249.28 360.692 249.412 361.236 249.412 361.844L249.4 362.012ZM246.424 359.216C245.984 359.216 245.588 359.316 245.236 359.516C244.884 359.708 244.6 359.984 244.384 360.344C244.176 360.696 244.056 361.096 244.024 361.544H248.824C248.8 361.096 248.68 360.696 248.464 360.344C248.248 359.992 247.964 359.716 247.612 359.516C247.26 359.316 246.864 359.216 246.424 359.216ZM256.582 361.652L254.95 363.14V365H254.35V356.096H254.95V362.396L258.958 358.736H259.726L257.026 361.268L259.99 365H259.246L256.582 361.652ZM266.439 362.012H261.051C261.067 362.5 261.191 362.936 261.423 363.32C261.655 363.696 261.967 363.988 262.359 364.196C262.759 364.404 263.207 364.508 263.703 364.508C264.111 364.508 264.487 364.436 264.831 364.292C265.183 364.14 265.475 363.92 265.707 363.632L266.055 364.028C265.783 364.356 265.439 364.608 265.023 364.784C264.615 364.96 264.171 365.048 263.691 365.048C263.067 365.048 262.511 364.912 262.023 364.64C261.535 364.368 261.151 363.992 260.871 363.512C260.599 363.032 260.463 362.484 260.463 361.868C260.463 361.26 260.591 360.716 260.847 360.236C261.111 359.748 261.471 359.368 261.927 359.096C262.383 358.824 262.895 358.688 263.463 358.688C264.031 358.688 264.539 358.824 264.987 359.096C265.443 359.36 265.799 359.732 266.055 360.212C266.319 360.692 266.451 361.236 266.451 361.844L266.439 362.012ZM263.463 359.216C263.023 359.216 262.627 359.316 262.275 359.516C261.923 359.708 261.639 359.984 261.423 360.344C261.215 360.696 261.095 361.096 261.063 361.544H265.863C265.839 361.096 265.719 360.696 265.503 360.344C265.287 359.992 265.003 359.716 264.651 359.516C264.299 359.316 263.903 359.216 263.463 359.216ZM273.218 358.736L270.002 365.852C269.762 366.404 269.482 366.796 269.162 367.028C268.85 367.26 268.478 367.376 268.046 367.376C267.758 367.376 267.486 367.328 267.23 367.232C266.982 367.136 266.77 366.996 266.594 366.812L266.894 366.356C267.214 366.684 267.602 366.848 268.058 366.848C268.362 366.848 268.622 366.764 268.838 366.596C269.054 366.428 269.254 366.14 269.438 365.732L269.774 364.976L266.954 358.736H267.59L270.098 364.34L272.606 358.736H273.218ZM190.296 380L188.292 377.192C187.996 377.232 187.724 377.252 187.476 377.252H185.076V380H184.464V371.6H187.476C188.532 371.6 189.36 371.852 189.96 372.356C190.56 372.852 190.86 373.544 190.86 374.432C190.86 375.096 190.688 375.656 190.344 376.112C190.008 376.56 189.524 376.876 188.892 377.06L190.992 380H190.296ZM187.476 376.712C188.372 376.712 189.056 376.516 189.528 376.124C190 375.724 190.236 375.16 190.236 374.432C190.236 373.704 190 373.144 189.528 372.752C189.056 372.352 188.372 372.152 187.476 372.152H185.076V376.712H187.476ZM198.896 379.448V380H193.1V371.6H198.716V372.152H193.712V375.464H198.188V376.004H193.712V379.448H198.896ZM201.128 371.6H204.452C205.324 371.6 206.096 371.78 206.768 372.14C207.448 372.5 207.976 373 208.352 373.64C208.728 374.272 208.916 374.992 208.916 375.8C208.916 376.608 208.728 377.332 208.352 377.972C207.976 378.604 207.448 379.1 206.768 379.46C206.096 379.82 205.324 380 204.452 380H201.128V371.6ZM204.404 379.448C205.18 379.448 205.864 379.296 206.456 378.992C207.048 378.68 207.504 378.248 207.824 377.696C208.144 377.144 208.304 376.512 208.304 375.8C208.304 375.088 208.144 374.456 207.824 373.904C207.504 373.352 207.048 372.924 206.456 372.62C205.864 372.308 205.18 372.152 204.404 372.152H201.74V379.448H204.404ZM211.042 371.6H214.366C215.238 371.6 216.01 371.78 216.682 372.14C217.362 372.5 217.89 373 218.266 373.64C218.642 374.272 218.83 374.992 218.83 375.8C218.83 376.608 218.642 377.332 218.266 377.972C217.89 378.604 217.362 379.1 216.682 379.46C216.01 379.82 215.238 380 214.366 380H211.042V371.6ZM214.318 379.448C215.094 379.448 215.778 379.296 216.37 378.992C216.962 378.68 217.418 378.248 217.738 377.696C218.058 377.144 218.218 376.512 218.218 375.8C218.218 375.088 218.058 374.456 217.738 373.904C217.418 373.352 216.962 372.924 216.37 372.62C215.778 372.308 215.094 372.152 214.318 372.152H211.654V379.448H214.318ZM225.561 376.064H223.281V378.284H222.741V376.064H220.461V375.548H222.741V373.316H223.281V375.548H225.561V376.064ZM189.84 386.096V395H189.252V393.524C189.004 394.012 188.656 394.388 188.208 394.652C187.76 394.916 187.252 395.048 186.684 395.048C186.1 395.048 185.572 394.912 185.1 394.64C184.628 394.368 184.256 393.992 183.984 393.512C183.72 393.032 183.588 392.484 183.588 391.868C183.588 391.252 183.72 390.704 183.984 390.224C184.256 389.736 184.628 389.36 185.1 389.096C185.572 388.824 186.1 388.688 186.684 388.688C187.244 388.688 187.744 388.82 188.184 389.084C188.632 389.348 188.984 389.716 189.24 390.188V386.096H189.84ZM186.72 394.508C187.2 394.508 187.628 394.396 188.004 394.172C188.388 393.948 188.688 393.636 188.904 393.236C189.128 392.836 189.24 392.38 189.24 391.868C189.24 391.356 189.128 390.9 188.904 390.5C188.688 390.1 188.388 389.788 188.004 389.564C187.628 389.34 187.2 389.228 186.72 389.228C186.24 389.228 185.808 389.34 185.424 389.564C185.048 389.788 184.748 390.1 184.524 390.5C184.308 390.9 184.2 391.356 184.2 391.868C184.2 392.38 184.308 392.836 184.524 393.236C184.748 393.636 185.048 393.948 185.424 394.172C185.808 394.396 186.24 394.508 186.72 394.508ZM197.661 392.012H192.273C192.289 392.5 192.413 392.936 192.645 393.32C192.877 393.696 193.189 393.988 193.581 394.196C193.981 394.404 194.429 394.508 194.925 394.508C195.333 394.508 195.709 394.436 196.053 394.292C196.405 394.14 196.697 393.92 196.929 393.632L197.277 394.028C197.005 394.356 196.661 394.608 196.245 394.784C195.837 394.96 195.393 395.048 194.913 395.048C194.289 395.048 193.733 394.912 193.245 394.64C192.757 394.368 192.373 393.992 192.093 393.512C191.821 393.032 191.685 392.484 191.685 391.868C191.685 391.26 191.813 390.716 192.069 390.236C192.333 389.748 192.693 389.368 193.149 389.096C193.605 388.824 194.117 388.688 194.685 388.688C195.253 388.688 195.761 388.824 196.209 389.096C196.665 389.36 197.021 389.732 197.277 390.212C197.541 390.692 197.673 391.236 197.673 391.844L197.661 392.012ZM194.685 389.216C194.245 389.216 193.849 389.316 193.497 389.516C193.145 389.708 192.861 389.984 192.645 390.344C192.437 390.696 192.317 391.096 192.285 391.544H197.085C197.061 391.096 196.941 390.696 196.725 390.344C196.509 389.992 196.225 389.716 195.873 389.516C195.521 389.316 195.125 389.216 194.685 389.216ZM202.014 395.048C201.406 395.048 200.862 394.912 200.382 394.64C199.902 394.368 199.526 393.992 199.254 393.512C198.982 393.024 198.846 392.476 198.846 391.868C198.846 391.252 198.982 390.704 199.254 390.224C199.526 389.736 199.902 389.36 200.382 389.096C200.862 388.824 201.406 388.688 202.014 388.688C202.518 388.688 202.974 388.788 203.382 388.988C203.798 389.18 204.134 389.464 204.39 389.84L203.946 390.164C203.722 389.852 203.442 389.62 203.106 389.468C202.778 389.308 202.414 389.228 202.014 389.228C201.526 389.228 201.086 389.34 200.694 389.564C200.31 389.78 200.006 390.088 199.782 390.488C199.566 390.888 199.458 391.348 199.458 391.868C199.458 392.388 199.566 392.848 199.782 393.248C200.006 393.648 200.31 393.96 200.694 394.184C201.086 394.4 201.526 394.508 202.014 394.508C202.414 394.508 202.778 394.432 203.106 394.28C203.442 394.12 203.722 393.884 203.946 393.572L204.39 393.896C204.134 394.272 203.798 394.56 203.382 394.76C202.974 394.952 202.518 395.048 202.014 395.048ZM206.186 388.736H206.786V395H206.186V388.736ZM206.486 387.212C206.35 387.212 206.234 387.168 206.138 387.08C206.042 386.984 205.994 386.868 205.994 386.732C205.994 386.596 206.042 386.48 206.138 386.384C206.234 386.288 206.35 386.24 206.486 386.24C206.622 386.24 206.738 386.288 206.834 386.384C206.93 386.472 206.978 386.584 206.978 386.72C206.978 386.856 206.93 386.972 206.834 387.068C206.738 387.164 206.622 387.212 206.486 387.212ZM210.899 395.048C210.395 395.048 209.915 394.972 209.459 394.82C209.003 394.668 208.647 394.476 208.391 394.244L208.667 393.764C208.923 393.98 209.251 394.16 209.651 394.304C210.059 394.448 210.483 394.52 210.923 394.52C211.555 394.52 212.019 394.416 212.315 394.208C212.619 394 212.771 393.712 212.771 393.344C212.771 393.08 212.687 392.872 212.519 392.72C212.359 392.568 212.159 392.456 211.919 392.384C211.679 392.312 211.347 392.236 210.923 392.156C210.427 392.068 210.027 391.972 209.723 391.868C209.419 391.764 209.159 391.596 208.943 391.364C208.727 391.132 208.619 390.812 208.619 390.404C208.619 389.908 208.823 389.5 209.231 389.18C209.647 388.852 210.235 388.688 210.995 388.688C211.395 388.688 211.791 388.744 212.183 388.856C212.575 388.968 212.895 389.116 213.143 389.3L212.867 389.78C212.611 389.596 212.319 389.456 211.991 389.36C211.663 389.264 211.327 389.216 210.983 389.216C210.399 389.216 209.959 389.324 209.663 389.54C209.367 389.756 209.219 390.04 209.219 390.392C209.219 390.672 209.303 390.892 209.471 391.052C209.639 391.204 209.843 391.32 210.083 391.4C210.331 391.472 210.675 391.552 211.115 391.64C211.603 391.728 211.995 391.824 212.291 391.928C212.595 392.024 212.851 392.184 213.059 392.408C213.267 392.632 213.371 392.94 213.371 393.332C213.371 393.852 213.155 394.268 212.723 394.58C212.291 394.892 211.683 395.048 210.899 395.048ZM215.045 388.736H215.645V395H215.045V388.736ZM215.345 387.212C215.209 387.212 215.093 387.168 214.997 387.08C214.901 386.984 214.853 386.868 214.853 386.732C214.853 386.596 214.901 386.48 214.997 386.384C215.093 386.288 215.209 386.24 215.345 386.24C215.481 386.24 215.597 386.288 215.693 386.384C215.789 386.472 215.837 386.584 215.837 386.72C215.837 386.856 215.789 386.972 215.693 387.068C215.597 387.164 215.481 387.212 215.345 387.212ZM220.622 395.048C220.03 395.048 219.494 394.912 219.014 394.64C218.542 394.368 218.17 393.992 217.898 393.512C217.626 393.024 217.49 392.476 217.49 391.868C217.49 391.26 217.626 390.716 217.898 390.236C218.17 389.748 218.542 389.368 219.014 389.096C219.494 388.824 220.03 388.688 220.622 388.688C221.214 388.688 221.746 388.824 222.218 389.096C222.698 389.368 223.074 389.748 223.346 390.236C223.618 390.716 223.754 391.26 223.754 391.868C223.754 392.476 223.618 393.024 223.346 393.512C223.074 393.992 222.698 394.368 222.218 394.64C221.746 394.912 221.214 395.048 220.622 395.048ZM220.622 394.508C221.102 394.508 221.53 394.396 221.906 394.172C222.29 393.948 222.59 393.636 222.806 393.236C223.03 392.836 223.142 392.38 223.142 391.868C223.142 391.356 223.03 390.9 222.806 390.5C222.59 390.1 222.29 389.788 221.906 389.564C221.53 389.34 221.102 389.228 220.622 389.228C220.142 389.228 219.71 389.34 219.326 389.564C218.95 389.788 218.65 390.1 218.426 390.5C218.21 390.9 218.102 391.356 218.102 391.868C218.102 392.38 218.21 392.836 218.426 393.236C218.65 393.636 218.95 393.948 219.326 394.172C219.71 394.396 220.142 394.508 220.622 394.508ZM228.675 388.688C229.459 388.688 230.079 388.916 230.535 389.372C230.991 389.828 231.219 390.484 231.219 391.34V395H230.619V391.388C230.619 390.684 230.439 390.148 230.079 389.78C229.727 389.412 229.231 389.228 228.591 389.228C227.855 389.228 227.275 389.448 226.851 389.888C226.427 390.328 226.215 390.92 226.215 391.664V395H225.615V388.736H226.191V390.092C226.407 389.652 226.727 389.308 227.151 389.06C227.583 388.812 228.091 388.688 228.675 388.688ZM235.274 395.048C234.77 395.048 234.29 394.972 233.834 394.82C233.378 394.668 233.022 394.476 232.766 394.244L233.042 393.764C233.298 393.98 233.626 394.16 234.026 394.304C234.434 394.448 234.858 394.52 235.298 394.52C235.93 394.52 236.394 394.416 236.69 394.208C236.994 394 237.146 393.712 237.146 393.344C237.146 393.08 237.062 392.872 236.894 392.72C236.734 392.568 236.534 392.456 236.294 392.384C236.054 392.312 235.722 392.236 235.298 392.156C234.802 392.068 234.402 391.972 234.098 391.868C233.794 391.764 233.534 391.596 233.318 391.364C233.102 391.132 232.994 390.812 232.994 390.404C232.994 389.908 233.198 389.5 233.606 389.18C234.022 388.852 234.61 388.688 235.37 388.688C235.77 388.688 236.166 388.744 236.558 388.856C236.95 388.968 237.27 389.116 237.518 389.3L237.242 389.78C236.986 389.596 236.694 389.456 236.366 389.36C236.038 389.264 235.702 389.216 235.358 389.216C234.774 389.216 234.334 389.324 234.038 389.54C233.742 389.756 233.594 390.04 233.594 390.392C233.594 390.672 233.678 390.892 233.846 391.052C234.014 391.204 234.218 391.32 234.458 391.4C234.706 391.472 235.05 391.552 235.49 391.64C235.978 391.728 236.37 391.824 236.666 391.928C236.97 392.024 237.226 392.184 237.434 392.408C237.642 392.632 237.746 392.94 237.746 393.332C237.746 393.852 237.53 394.268 237.098 394.58C236.666 394.892 236.058 395.048 235.274 395.048ZM251.454 388.736L249.078 395H248.514L246.402 389.564L244.278 395H243.726L241.35 388.736H241.926L244.014 394.328L246.15 388.736H246.666L248.79 394.316L250.902 388.736H251.454ZM257.966 392.012H252.578C252.594 392.5 252.718 392.936 252.95 393.32C253.182 393.696 253.494 393.988 253.886 394.196C254.286 394.404 254.734 394.508 255.23 394.508C255.638 394.508 256.014 394.436 256.358 394.292C256.71 394.14 257.002 393.92 257.234 393.632L257.582 394.028C257.31 394.356 256.966 394.608 256.55 394.784C256.142 394.96 255.698 395.048 255.218 395.048C254.594 395.048 254.038 394.912 253.55 394.64C253.062 394.368 252.678 393.992 252.398 393.512C252.126 393.032 251.99 392.484 251.99 391.868C251.99 391.26 252.118 390.716 252.374 390.236C252.638 389.748 252.998 389.368 253.454 389.096C253.91 388.824 254.422 388.688 254.99 388.688C255.558 388.688 256.066 388.824 256.514 389.096C256.97 389.36 257.326 389.732 257.582 390.212C257.846 390.692 257.978 391.236 257.978 391.844L257.966 392.012ZM254.99 389.216C254.55 389.216 254.154 389.316 253.802 389.516C253.45 389.708 253.166 389.984 252.95 390.344C252.742 390.696 252.622 391.096 252.59 391.544H257.39C257.366 391.096 257.246 390.696 257.03 390.344C256.814 389.992 256.53 389.716 256.178 389.516C255.826 389.316 255.43 389.216 254.99 389.216ZM260.41 390.104C260.602 389.648 260.902 389.3 261.31 389.06C261.718 388.812 262.214 388.688 262.798 388.688V389.276L262.654 389.264C261.958 389.264 261.414 389.484 261.022 389.924C260.63 390.356 260.434 390.96 260.434 391.736V395H259.834V388.736H260.41V390.104ZM269.685 392.012H264.297C264.313 392.5 264.437 392.936 264.669 393.32C264.901 393.696 265.213 393.988 265.605 394.196C266.005 394.404 266.453 394.508 266.949 394.508C267.357 394.508 267.733 394.436 268.077 394.292C268.429 394.14 268.721 393.92 268.953 393.632L269.301 394.028C269.029 394.356 268.685 394.608 268.269 394.784C267.861 394.96 267.417 395.048 266.937 395.048C266.313 395.048 265.757 394.912 265.269 394.64C264.781 394.368 264.397 393.992 264.117 393.512C263.845 393.032 263.709 392.484 263.709 391.868C263.709 391.26 263.837 390.716 264.093 390.236C264.357 389.748 264.717 389.368 265.173 389.096C265.629 388.824 266.141 388.688 266.709 388.688C267.277 388.688 267.785 388.824 268.233 389.096C268.689 389.36 269.045 389.732 269.301 390.212C269.565 390.692 269.697 391.236 269.697 391.844L269.685 392.012ZM266.709 389.216C266.269 389.216 265.873 389.316 265.521 389.516C265.169 389.708 264.885 389.984 264.669 390.344C264.461 390.696 264.341 391.096 264.309 391.544H269.109C269.085 391.096 268.965 390.696 268.749 390.344C268.533 389.992 268.249 389.716 267.897 389.516C267.545 389.316 267.149 389.216 266.709 389.216ZM186.756 410.048C186.148 410.048 185.604 409.912 185.124 409.64C184.644 409.368 184.268 408.992 183.996 408.512C183.724 408.024 183.588 407.476 183.588 406.868C183.588 406.252 183.724 405.704 183.996 405.224C184.268 404.736 184.644 404.36 185.124 404.096C185.604 403.824 186.148 403.688 186.756 403.688C187.26 403.688 187.716 403.788 188.124 403.988C188.54 404.18 188.876 404.464 189.132 404.84L188.688 405.164C188.464 404.852 188.184 404.62 187.848 404.468C187.52 404.308 187.156 404.228 186.756 404.228C186.268 404.228 185.828 404.34 185.436 404.564C185.052 404.78 184.748 405.088 184.524 405.488C184.308 405.888 184.2 406.348 184.2 406.868C184.2 407.388 184.308 407.848 184.524 408.248C184.748 408.648 185.052 408.96 185.436 409.184C185.828 409.4 186.268 409.508 186.756 409.508C187.156 409.508 187.52 409.432 187.848 409.28C188.184 409.12 188.464 408.884 188.688 408.572L189.132 408.896C188.876 409.272 188.54 409.56 188.124 409.76C187.716 409.952 187.26 410.048 186.756 410.048ZM193.271 410.048C192.679 410.048 192.143 409.912 191.663 409.64C191.191 409.368 190.819 408.992 190.547 408.512C190.275 408.024 190.139 407.476 190.139 406.868C190.139 406.26 190.275 405.716 190.547 405.236C190.819 404.748 191.191 404.368 191.663 404.096C192.143 403.824 192.679 403.688 193.271 403.688C193.863 403.688 194.395 403.824 194.867 404.096C195.347 404.368 195.723 404.748 195.995 405.236C196.267 405.716 196.403 406.26 196.403 406.868C196.403 407.476 196.267 408.024 195.995 408.512C195.723 408.992 195.347 409.368 194.867 409.64C194.395 409.912 193.863 410.048 193.271 410.048ZM193.271 409.508C193.751 409.508 194.179 409.396 194.555 409.172C194.939 408.948 195.239 408.636 195.455 408.236C195.679 407.836 195.791 407.38 195.791 406.868C195.791 406.356 195.679 405.9 195.455 405.5C195.239 405.1 194.939 404.788 194.555 404.564C194.179 404.34 193.751 404.228 193.271 404.228C192.791 404.228 192.359 404.34 191.975 404.564C191.599 404.788 191.299 405.1 191.075 405.5C190.859 405.9 190.751 406.356 190.751 406.868C190.751 407.38 190.859 407.836 191.075 408.236C191.299 408.636 191.599 408.948 191.975 409.172C192.359 409.396 192.791 409.508 193.271 409.508ZM206.064 403.688C206.84 403.688 207.448 403.916 207.888 404.372C208.336 404.828 208.56 405.484 208.56 406.34V410H207.96V406.388C207.96 405.684 207.788 405.148 207.444 404.78C207.1 404.412 206.62 404.228 206.004 404.228C205.3 404.228 204.74 404.448 204.324 404.888C203.916 405.328 203.712 405.92 203.712 406.664V410H203.112V406.388C203.112 405.684 202.94 405.148 202.596 404.78C202.252 404.412 201.772 404.228 201.156 404.228C200.452 404.228 199.892 404.448 199.476 404.888C199.068 405.328 198.864 405.92 198.864 406.664V410H198.264V403.736H198.84V405.08C199.048 404.64 199.356 404.3 199.764 404.06C200.18 403.812 200.672 403.688 201.24 403.688C201.808 403.688 202.288 403.816 202.68 404.072C203.08 404.328 203.364 404.704 203.532 405.2C203.74 404.736 204.064 404.368 204.504 404.096C204.952 403.824 205.472 403.688 206.064 403.688ZM214.181 403.688C214.765 403.688 215.293 403.824 215.765 404.096C216.237 404.368 216.605 404.744 216.869 405.224C217.141 405.704 217.277 406.252 217.277 406.868C217.277 407.484 217.141 408.036 216.869 408.524C216.605 409.004 216.237 409.38 215.765 409.652C215.293 409.916 214.765 410.048 214.181 410.048C213.629 410.048 213.129 409.92 212.681 409.664C212.233 409.4 211.885 409.036 211.637 408.572V412.328H211.037V403.736H211.613V405.212C211.861 404.732 212.209 404.36 212.657 404.096C213.113 403.824 213.621 403.688 214.181 403.688ZM214.145 409.508C214.625 409.508 215.057 409.396 215.441 409.172C215.825 408.948 216.125 408.636 216.341 408.236C216.565 407.836 216.677 407.38 216.677 406.868C216.677 406.356 216.565 405.9 216.341 405.5C216.125 405.1 215.825 404.788 215.441 404.564C215.057 404.34 214.625 404.228 214.145 404.228C213.665 404.228 213.233 404.34 212.849 404.564C212.473 404.788 212.173 405.1 211.949 405.5C211.733 405.9 211.625 406.356 211.625 406.868C211.625 407.38 211.733 407.836 211.949 408.236C212.173 408.636 212.473 408.948 212.849 409.172C213.233 409.396 213.665 409.508 214.145 409.508ZM219.135 401.096H219.735V410H219.135V401.096ZM227.556 407.012H222.168C222.184 407.5 222.308 407.936 222.54 408.32C222.772 408.696 223.084 408.988 223.476 409.196C223.876 409.404 224.324 409.508 224.82 409.508C225.228 409.508 225.604 409.436 225.948 409.292C226.3 409.14 226.592 408.92 226.824 408.632L227.172 409.028C226.9 409.356 226.556 409.608 226.14 409.784C225.732 409.96 225.288 410.048 224.808 410.048C224.184 410.048 223.628 409.912 223.14 409.64C222.652 409.368 222.268 408.992 221.988 408.512C221.716 408.032 221.58 407.484 221.58 406.868C221.58 406.26 221.708 405.716 221.964 405.236C222.228 404.748 222.588 404.368 223.044 404.096C223.5 403.824 224.012 403.688 224.58 403.688C225.148 403.688 225.656 403.824 226.104 404.096C226.56 404.36 226.916 404.732 227.172 405.212C227.436 405.692 227.568 406.236 227.568 406.844L227.556 407.012ZM224.58 404.216C224.14 404.216 223.744 404.316 223.392 404.516C223.04 404.708 222.756 404.984 222.54 405.344C222.332 405.696 222.212 406.096 222.18 406.544H226.98C226.956 406.096 226.836 405.696 226.62 405.344C226.404 404.992 226.12 404.716 225.768 404.516C225.416 404.316 225.02 404.216 224.58 404.216ZM232.532 409.604C232.38 409.748 232.188 409.86 231.956 409.94C231.732 410.012 231.496 410.048 231.248 410.048C230.704 410.048 230.284 409.9 229.988 409.604C229.692 409.3 229.544 408.88 229.544 408.344V404.252H228.392V403.736H229.544V402.368H230.144V403.736H232.136V404.252H230.144V408.284C230.144 408.692 230.24 409.004 230.432 409.22C230.632 409.428 230.924 409.532 231.308 409.532C231.7 409.532 232.024 409.416 232.28 409.184L232.532 409.604ZM239.275 407.012H233.887C233.903 407.5 234.027 407.936 234.259 408.32C234.491 408.696 234.803 408.988 235.195 409.196C235.595 409.404 236.043 409.508 236.539 409.508C236.947 409.508 237.323 409.436 237.667 409.292C238.019 409.14 238.311 408.92 238.543 408.632L238.891 409.028C238.619 409.356 238.275 409.608 237.859 409.784C237.451 409.96 237.007 410.048 236.527 410.048C235.903 410.048 235.347 409.912 234.859 409.64C234.371 409.368 233.987 408.992 233.707 408.512C233.435 408.032 233.299 407.484 233.299 406.868C233.299 406.26 233.427 405.716 233.683 405.236C233.947 404.748 234.307 404.368 234.763 404.096C235.219 403.824 235.731 403.688 236.299 403.688C236.867 403.688 237.375 403.824 237.823 404.096C238.279 404.36 238.635 404.732 238.891 405.212C239.155 405.692 239.287 406.236 239.287 406.844L239.275 407.012ZM236.299 404.216C235.859 404.216 235.463 404.316 235.111 404.516C234.759 404.708 234.475 404.984 234.259 405.344C234.051 405.696 233.931 406.096 233.899 406.544H238.699C238.675 406.096 238.555 405.696 238.339 405.344C238.123 404.992 237.839 404.716 237.487 404.516C237.135 404.316 236.739 404.216 236.299 404.216ZM246.711 401.096V410H246.123V408.524C245.875 409.012 245.527 409.388 245.079 409.652C244.631 409.916 244.123 410.048 243.555 410.048C242.971 410.048 242.443 409.912 241.971 409.64C241.499 409.368 241.127 408.992 240.855 408.512C240.591 408.032 240.459 407.484 240.459 406.868C240.459 406.252 240.591 405.704 240.855 405.224C241.127 404.736 241.499 404.36 241.971 404.096C242.443 403.824 242.971 403.688 243.555 403.688C244.115 403.688 244.615 403.82 245.055 404.084C245.503 404.348 245.855 404.716 246.111 405.188V401.096H246.711ZM243.591 409.508C244.071 409.508 244.499 409.396 244.875 409.172C245.259 408.948 245.559 408.636 245.775 408.236C245.999 407.836 246.111 407.38 246.111 406.868C246.111 406.356 245.999 405.9 245.775 405.5C245.559 405.1 245.259 404.788 244.875 404.564C244.499 404.34 244.071 404.228 243.591 404.228C243.111 404.228 242.679 404.34 242.295 404.564C241.919 404.788 241.619 405.1 241.395 405.5C241.179 405.9 241.071 406.356 241.071 406.868C241.071 407.38 241.179 407.836 241.395 408.236C241.619 408.636 241.919 408.948 242.295 409.172C242.679 409.396 243.111 409.508 243.591 409.508ZM249.168 410.048C249.032 410.048 248.912 410 248.808 409.904C248.712 409.8 248.664 409.676 248.664 409.532C248.664 409.388 248.712 409.268 248.808 409.172C248.912 409.076 249.032 409.028 249.168 409.028C249.304 409.028 249.42 409.076 249.516 409.172C249.62 409.268 249.672 409.388 249.672 409.532C249.672 409.676 249.62 409.8 249.516 409.904C249.42 410 249.304 410.048 249.168 410.048Z" fill="#F2F2F2"/>
<path d="M189.076 462.152V465.74H193.552V466.292H189.076V470H188.464V461.6H194.08V462.152H189.076ZM195.725 463.736H196.325V470H195.725V463.736ZM196.025 462.212C195.889 462.212 195.773 462.168 195.677 462.08C195.581 461.984 195.533 461.868 195.533 461.732C195.533 461.596 195.581 461.48 195.677 461.384C195.773 461.288 195.889 461.24 196.025 461.24C196.161 461.24 196.277 461.288 196.373 461.384C196.469 461.472 196.517 461.584 196.517 461.72C196.517 461.856 196.469 461.972 196.373 462.068C196.277 462.164 196.161 462.212 196.025 462.212ZM201.914 463.688C202.698 463.688 203.318 463.916 203.774 464.372C204.23 464.828 204.458 465.484 204.458 466.34V470H203.858V466.388C203.858 465.684 203.678 465.148 203.318 464.78C202.966 464.412 202.47 464.228 201.83 464.228C201.094 464.228 200.514 464.448 200.09 464.888C199.666 465.328 199.454 465.92 199.454 466.664V470H198.854V463.736H199.43V465.092C199.646 464.652 199.966 464.308 200.39 464.06C200.822 463.812 201.33 463.688 201.914 463.688ZM209.04 463.688C209.816 463.688 210.412 463.888 210.828 464.288C211.244 464.68 211.452 465.26 211.452 466.028V470H210.876V468.884C210.676 469.252 210.384 469.54 210 469.748C209.616 469.948 209.156 470.048 208.62 470.048C207.924 470.048 207.372 469.884 206.964 469.556C206.564 469.228 206.364 468.796 206.364 468.26C206.364 467.74 206.548 467.32 206.916 467C207.292 466.672 207.888 466.508 208.704 466.508H210.852V466.004C210.852 465.42 210.692 464.976 210.372 464.672C210.06 464.368 209.6 464.216 208.992 464.216C208.576 464.216 208.176 464.288 207.792 464.432C207.416 464.576 207.096 464.768 206.832 465.008L206.532 464.576C206.844 464.296 207.22 464.08 207.66 463.928C208.1 463.768 208.56 463.688 209.04 463.688ZM208.704 469.556C209.224 469.556 209.664 469.436 210.024 469.196C210.392 468.956 210.668 468.608 210.852 468.152V466.976H208.716C208.1 466.976 207.652 467.088 207.372 467.312C207.1 467.536 206.964 467.844 206.964 468.236C206.964 468.644 207.116 468.968 207.42 469.208C207.724 469.44 208.152 469.556 208.704 469.556ZM213.924 461.096H214.524V470H213.924V461.096ZM223.279 463.688C223.863 463.688 224.391 463.824 224.863 464.096C225.335 464.368 225.703 464.744 225.967 465.224C226.239 465.704 226.375 466.252 226.375 466.868C226.375 467.484 226.239 468.036 225.967 468.524C225.703 469.004 225.335 469.38 224.863 469.652C224.391 469.916 223.863 470.048 223.279 470.048C222.727 470.048 222.227 469.92 221.779 469.664C221.331 469.4 220.983 469.036 220.735 468.572V472.328H220.135V463.736H220.711V465.212C220.959 464.732 221.307 464.36 221.755 464.096C222.211 463.824 222.719 463.688 223.279 463.688ZM223.243 469.508C223.723 469.508 224.155 469.396 224.539 469.172C224.923 468.948 225.223 468.636 225.439 468.236C225.663 467.836 225.775 467.38 225.775 466.868C225.775 466.356 225.663 465.9 225.439 465.5C225.223 465.1 224.923 464.788 224.539 464.564C224.155 464.34 223.723 464.228 223.243 464.228C222.763 464.228 222.331 464.34 221.947 464.564C221.571 464.788 221.271 465.1 221.047 465.5C220.831 465.9 220.723 466.356 220.723 466.868C220.723 467.38 220.831 467.836 221.047 468.236C221.271 468.636 221.571 468.948 221.947 469.172C222.331 469.396 222.763 469.508 223.243 469.508ZM228.233 463.736H228.833V470H228.233V463.736ZM228.533 462.212C228.397 462.212 228.281 462.168 228.185 462.08C228.089 461.984 228.041 461.868 228.041 461.732C228.041 461.596 228.089 461.48 228.185 461.384C228.281 461.288 228.397 461.24 228.533 461.24C228.669 461.24 228.785 461.288 228.881 461.384C228.977 461.472 229.025 461.584 229.025 461.72C229.025 461.856 228.977 461.972 228.881 462.068C228.785 462.164 228.669 462.212 228.533 462.212ZM236.654 467.012H231.266C231.282 467.5 231.406 467.936 231.638 468.32C231.87 468.696 232.182 468.988 232.574 469.196C232.974 469.404 233.422 469.508 233.918 469.508C234.326 469.508 234.702 469.436 235.046 469.292C235.398 469.14 235.69 468.92 235.922 468.632L236.27 469.028C235.998 469.356 235.654 469.608 235.238 469.784C234.83 469.96 234.386 470.048 233.906 470.048C233.282 470.048 232.726 469.912 232.238 469.64C231.75 469.368 231.366 468.992 231.086 468.512C230.814 468.032 230.678 467.484 230.678 466.868C230.678 466.26 230.806 465.716 231.062 465.236C231.326 464.748 231.686 464.368 232.142 464.096C232.598 463.824 233.11 463.688 233.678 463.688C234.246 463.688 234.754 463.824 235.202 464.096C235.658 464.36 236.014 464.732 236.27 465.212C236.534 465.692 236.666 466.236 236.666 466.844L236.654 467.012ZM233.678 464.216C233.238 464.216 232.842 464.316 232.49 464.516C232.138 464.708 231.854 464.984 231.638 465.344C231.43 465.696 231.31 466.096 231.278 466.544H236.078C236.054 466.096 235.934 465.696 235.718 465.344C235.502 464.992 235.218 464.716 234.866 464.516C234.514 464.316 234.118 464.216 233.678 464.216ZM241.006 470.048C240.398 470.048 239.854 469.912 239.374 469.64C238.894 469.368 238.518 468.992 238.246 468.512C237.974 468.024 237.838 467.476 237.838 466.868C237.838 466.252 237.974 465.704 238.246 465.224C238.518 464.736 238.894 464.36 239.374 464.096C239.854 463.824 240.398 463.688 241.006 463.688C241.51 463.688 241.966 463.788 242.374 463.988C242.79 464.18 243.126 464.464 243.382 464.84L242.938 465.164C242.714 464.852 242.434 464.62 242.098 464.468C241.77 464.308 241.406 464.228 241.006 464.228C240.518 464.228 240.078 464.34 239.686 464.564C239.302 464.78 238.998 465.088 238.774 465.488C238.558 465.888 238.45 466.348 238.45 466.868C238.45 467.388 238.558 467.848 238.774 468.248C238.998 468.648 239.302 468.96 239.686 469.184C240.078 469.4 240.518 469.508 241.006 469.508C241.406 469.508 241.77 469.432 242.098 469.28C242.434 469.12 242.714 468.884 242.938 468.572L243.382 468.896C243.126 469.272 242.79 469.56 242.374 469.76C241.966 469.952 241.51 470.048 241.006 470.048ZM250.365 467.012H244.977C244.993 467.5 245.117 467.936 245.349 468.32C245.581 468.696 245.893 468.988 246.285 469.196C246.685 469.404 247.133 469.508 247.629 469.508C248.037 469.508 248.413 469.436 248.757 469.292C249.109 469.14 249.401 468.92 249.633 468.632L249.981 469.028C249.709 469.356 249.365 469.608 248.949 469.784C248.541 469.96 248.097 470.048 247.617 470.048C246.993 470.048 246.437 469.912 245.949 469.64C245.461 469.368 245.077 468.992 244.797 468.512C244.525 468.032 244.389 467.484 244.389 466.868C244.389 466.26 244.517 465.716 244.773 465.236C245.037 464.748 245.397 464.368 245.853 464.096C246.309 463.824 246.821 463.688 247.389 463.688C247.957 463.688 248.465 463.824 248.913 464.096C249.369 464.36 249.725 464.732 249.981 465.212C250.245 465.692 250.377 466.236 250.377 466.844L250.365 467.012ZM247.389 464.216C246.949 464.216 246.553 464.316 246.201 464.516C245.849 464.708 245.565 464.984 245.349 465.344C245.141 465.696 245.021 466.096 244.989 466.544H249.789C249.765 466.096 249.645 465.696 249.429 465.344C249.213 464.992 248.929 464.716 248.577 464.516C248.225 464.316 247.829 464.216 247.389 464.216ZM253.817 470.048C253.313 470.048 252.833 469.972 252.377 469.82C251.921 469.668 251.565 469.476 251.309 469.244L251.585 468.764C251.841 468.98 252.169 469.16 252.569 469.304C252.977 469.448 253.401 469.52 253.841 469.52C254.473 469.52 254.937 469.416 255.233 469.208C255.537 469 255.689 468.712 255.689 468.344C255.689 468.08 255.605 467.872 255.437 467.72C255.277 467.568 255.077 467.456 254.837 467.384C254.597 467.312 254.265 467.236 253.841 467.156C253.345 467.068 252.945 466.972 252.641 466.868C252.337 466.764 252.077 466.596 251.861 466.364C251.645 466.132 251.537 465.812 251.537 465.404C251.537 464.908 251.741 464.5 252.149 464.18C252.565 463.852 253.153 463.688 253.913 463.688C254.313 463.688 254.709 463.744 255.101 463.856C255.493 463.968 255.813 464.116 256.061 464.3L255.785 464.78C255.529 464.596 255.237 464.456 254.909 464.36C254.581 464.264 254.245 464.216 253.901 464.216C253.317 464.216 252.877 464.324 252.581 464.54C252.285 464.756 252.137 465.04 252.137 465.392C252.137 465.672 252.221 465.892 252.389 466.052C252.557 466.204 252.761 466.32 253.001 466.4C253.249 466.472 253.593 466.552 254.033 466.64C254.521 466.728 254.913 466.824 255.209 466.928C255.513 467.024 255.769 467.184 255.977 467.408C256.185 467.632 256.289 467.94 256.289 468.332C256.289 468.852 256.073 469.268 255.641 469.58C255.209 469.892 254.601 470.048 253.817 470.048ZM263.493 470.048C262.901 470.048 262.365 469.912 261.885 469.64C261.413 469.368 261.041 468.992 260.769 468.512C260.497 468.024 260.361 467.476 260.361 466.868C260.361 466.26 260.497 465.716 260.769 465.236C261.041 464.748 261.413 464.368 261.885 464.096C262.365 463.824 262.901 463.688 263.493 463.688C264.085 463.688 264.617 463.824 265.089 464.096C265.569 464.368 265.945 464.748 266.217 465.236C266.489 465.716 266.625 466.26 266.625 466.868C266.625 467.476 266.489 468.024 266.217 468.512C265.945 468.992 265.569 469.368 265.089 469.64C264.617 469.912 264.085 470.048 263.493 470.048ZM263.493 469.508C263.973 469.508 264.401 469.396 264.777 469.172C265.161 468.948 265.461 468.636 265.677 468.236C265.901 467.836 266.013 467.38 266.013 466.868C266.013 466.356 265.901 465.9 265.677 465.5C265.461 465.1 265.161 464.788 264.777 464.564C264.401 464.34 263.973 464.228 263.493 464.228C263.013 464.228 262.581 464.34 262.197 464.564C261.821 464.788 261.521 465.1 261.297 465.5C261.081 465.9 260.973 466.356 260.973 466.868C260.973 467.38 261.081 467.836 261.297 468.236C261.521 468.636 261.821 468.948 262.197 469.172C262.581 469.396 263.013 469.508 263.493 469.508ZM270.371 461.564C269.587 461.564 269.195 461.984 269.195 462.824V463.736H271.199V464.252H269.207V470H268.607V464.252H267.455V463.736H268.607V462.776C268.607 462.248 268.759 461.828 269.063 461.516C269.367 461.204 269.795 461.048 270.347 461.048C270.587 461.048 270.815 461.084 271.031 461.156C271.255 461.22 271.439 461.32 271.583 461.456L271.343 461.912C271.087 461.68 270.763 461.564 270.371 461.564ZM191.38 484.604C191.228 484.748 191.036 484.86 190.804 484.94C190.58 485.012 190.344 485.048 190.096 485.048C189.552 485.048 189.132 484.9 188.836 484.604C188.54 484.3 188.392 483.88 188.392 483.344V479.252H187.24V478.736H188.392V477.368H188.992V478.736H190.984V479.252H188.992V483.284C188.992 483.692 189.088 484.004 189.28 484.22C189.48 484.428 189.772 484.532 190.156 484.532C190.548 484.532 190.872 484.416 191.128 484.184L191.38 484.604ZM196.113 478.688C196.897 478.688 197.517 478.916 197.973 479.372C198.429 479.828 198.657 480.484 198.657 481.34V485H198.057V481.388C198.057 480.684 197.877 480.148 197.517 479.78C197.165 479.412 196.669 479.228 196.029 479.228C195.293 479.228 194.713 479.448 194.289 479.888C193.865 480.328 193.653 480.92 193.653 481.664V485H193.053V476.096H193.653V480.044C193.869 479.612 194.189 479.28 194.613 479.048C195.037 478.808 195.537 478.688 196.113 478.688ZM206.431 482.012H201.043C201.059 482.5 201.183 482.936 201.415 483.32C201.647 483.696 201.959 483.988 202.351 484.196C202.751 484.404 203.199 484.508 203.695 484.508C204.103 484.508 204.479 484.436 204.823 484.292C205.175 484.14 205.467 483.92 205.699 483.632L206.047 484.028C205.775 484.356 205.431 484.608 205.015 484.784C204.607 484.96 204.163 485.048 203.683 485.048C203.059 485.048 202.503 484.912 202.015 484.64C201.527 484.368 201.143 483.992 200.863 483.512C200.591 483.032 200.455 482.484 200.455 481.868C200.455 481.26 200.583 480.716 200.839 480.236C201.103 479.748 201.463 479.368 201.919 479.096C202.375 478.824 202.887 478.688 203.455 478.688C204.023 478.688 204.531 478.824 204.979 479.096C205.435 479.36 205.791 479.732 206.047 480.212C206.311 480.692 206.443 481.236 206.443 481.844L206.431 482.012ZM203.455 479.216C203.015 479.216 202.619 479.316 202.267 479.516C201.915 479.708 201.631 479.984 201.415 480.344C201.207 480.696 201.087 481.096 201.055 481.544H205.855C205.831 481.096 205.711 480.696 205.495 480.344C205.279 479.992 204.995 479.716 204.643 479.516C204.291 479.316 203.895 479.216 203.455 479.216ZM211.957 480.104C212.149 479.648 212.449 479.3 212.857 479.06C213.265 478.812 213.761 478.688 214.345 478.688V479.276L214.201 479.264C213.505 479.264 212.961 479.484 212.569 479.924C212.177 480.356 211.981 480.96 211.981 481.736V485H211.381V478.736H211.957V480.104ZM221.588 478.736V485H221.012V483.656C220.804 484.096 220.496 484.44 220.088 484.688C219.68 484.928 219.2 485.048 218.648 485.048C217.832 485.048 217.192 484.82 216.728 484.364C216.264 483.908 216.032 483.252 216.032 482.396V478.736H216.632V482.348C216.632 483.052 216.812 483.588 217.172 483.956C217.532 484.324 218.04 484.508 218.696 484.508C219.4 484.508 219.956 484.288 220.364 483.848C220.78 483.408 220.988 482.816 220.988 482.072V478.736H221.588ZM224.131 476.096H224.731V485H224.131V476.096ZM232.552 482.012H227.164C227.18 482.5 227.304 482.936 227.536 483.32C227.768 483.696 228.08 483.988 228.472 484.196C228.872 484.404 229.32 484.508 229.816 484.508C230.224 484.508 230.6 484.436 230.944 484.292C231.296 484.14 231.588 483.92 231.82 483.632L232.168 484.028C231.896 484.356 231.552 484.608 231.136 484.784C230.728 484.96 230.284 485.048 229.804 485.048C229.18 485.048 228.624 484.912 228.136 484.64C227.648 484.368 227.264 483.992 226.984 483.512C226.712 483.032 226.576 482.484 226.576 481.868C226.576 481.26 226.704 480.716 226.96 480.236C227.224 479.748 227.584 479.368 228.04 479.096C228.496 478.824 229.008 478.688 229.576 478.688C230.144 478.688 230.652 478.824 231.1 479.096C231.556 479.36 231.912 479.732 232.168 480.212C232.432 480.692 232.564 481.236 232.564 481.844L232.552 482.012ZM229.576 479.216C229.136 479.216 228.74 479.316 228.388 479.516C228.036 479.708 227.752 479.984 227.536 480.344C227.328 480.696 227.208 481.096 227.176 481.544H231.976C231.952 481.096 231.832 480.696 231.616 480.344C231.4 479.992 231.116 479.716 230.764 479.516C230.412 479.316 230.016 479.216 229.576 479.216ZM237.564 478.688C238.148 478.688 238.676 478.824 239.148 479.096C239.62 479.36 239.988 479.736 240.252 480.224C240.524 480.704 240.66 481.252 240.66 481.868C240.66 482.484 240.524 483.032 240.252 483.512C239.988 483.992 239.62 484.368 239.148 484.64C238.676 484.912 238.148 485.048 237.564 485.048C237.004 485.048 236.496 484.916 236.04 484.652C235.592 484.38 235.244 484.004 234.996 483.524V485H234.42V476.096H235.02V480.164C235.268 479.7 235.616 479.34 236.064 479.084C236.512 478.82 237.012 478.688 237.564 478.688ZM237.528 484.508C238.008 484.508 238.44 484.396 238.824 484.172C239.208 483.948 239.508 483.636 239.724 483.236C239.948 482.836 240.06 482.38 240.06 481.868C240.06 481.356 239.948 480.9 239.724 480.5C239.508 480.1 239.208 479.788 238.824 479.564C238.44 479.34 238.008 479.228 237.528 479.228C237.048 479.228 236.616 479.34 236.232 479.564C235.856 479.788 235.556 480.1 235.332 480.5C235.116 480.9 235.008 481.356 235.008 481.868C235.008 482.38 235.116 482.836 235.332 483.236C235.556 483.636 235.856 483.948 236.232 484.172C236.616 484.396 237.048 484.508 237.528 484.508ZM244.966 485.048C244.374 485.048 243.838 484.912 243.358 484.64C242.886 484.368 242.514 483.992 242.242 483.512C241.97 483.024 241.834 482.476 241.834 481.868C241.834 481.26 241.97 480.716 242.242 480.236C242.514 479.748 242.886 479.368 243.358 479.096C243.838 478.824 244.374 478.688 244.966 478.688C245.558 478.688 246.09 478.824 246.562 479.096C247.042 479.368 247.418 479.748 247.69 480.236C247.962 480.716 248.098 481.26 248.098 481.868C248.098 482.476 247.962 483.024 247.69 483.512C247.418 483.992 247.042 484.368 246.562 484.64C246.09 484.912 245.558 485.048 244.966 485.048ZM244.966 484.508C245.446 484.508 245.874 484.396 246.25 484.172C246.634 483.948 246.934 483.636 247.15 483.236C247.374 482.836 247.486 482.38 247.486 481.868C247.486 481.356 247.374 480.9 247.15 480.5C246.934 480.1 246.634 479.788 246.25 479.564C245.874 479.34 245.446 479.228 244.966 479.228C244.486 479.228 244.054 479.34 243.67 479.564C243.294 479.788 242.994 480.1 242.77 480.5C242.554 480.9 242.446 481.356 242.446 481.868C242.446 482.38 242.554 482.836 242.77 483.236C242.994 483.636 243.294 483.948 243.67 484.172C244.054 484.396 244.486 484.508 244.966 484.508ZM252.407 485.048C251.815 485.048 251.279 484.912 250.799 484.64C250.327 484.368 249.955 483.992 249.683 483.512C249.411 483.024 249.275 482.476 249.275 481.868C249.275 481.26 249.411 480.716 249.683 480.236C249.955 479.748 250.327 479.368 250.799 479.096C251.279 478.824 251.815 478.688 252.407 478.688C252.999 478.688 253.531 478.824 254.003 479.096C254.483 479.368 254.859 479.748 255.131 480.236C255.403 480.716 255.539 481.26 255.539 481.868C255.539 482.476 255.403 483.024 255.131 483.512C254.859 483.992 254.483 484.368 254.003 484.64C253.531 484.912 252.999 485.048 252.407 485.048ZM252.407 484.508C252.887 484.508 253.315 484.396 253.691 484.172C254.075 483.948 254.375 483.636 254.591 483.236C254.815 482.836 254.927 482.38 254.927 481.868C254.927 481.356 254.815 480.9 254.591 480.5C254.375 480.1 254.075 479.788 253.691 479.564C253.315 479.34 252.887 479.228 252.407 479.228C251.927 479.228 251.495 479.34 251.111 479.564C250.735 479.788 250.435 480.1 250.211 480.5C249.995 480.9 249.887 481.356 249.887 481.868C249.887 482.38 249.995 482.836 250.211 483.236C250.435 483.636 250.735 483.948 251.111 484.172C251.495 484.396 251.927 484.508 252.407 484.508ZM259.633 481.652L258.001 483.14V485H257.401V476.096H258.001V482.396L262.009 478.736H262.777L260.077 481.268L263.041 485H262.297L259.633 481.652ZM190.156 491.564C189.372 491.564 188.98 491.984 188.98 492.824V493.736H190.984V494.252H188.992V500H188.392V494.252H187.24V493.736H188.392V492.776C188.392 492.248 188.544 491.828 188.848 491.516C189.152 491.204 189.58 491.048 190.132 491.048C190.372 491.048 190.6 491.084 190.816 491.156C191.04 491.22 191.224 491.32 191.368 491.456L191.128 491.912C190.872 491.68 190.548 491.564 190.156 491.564ZM193.168 493.736H193.768V500H193.168V493.736ZM193.468 492.212C193.332 492.212 193.216 492.168 193.12 492.08C193.024 491.984 192.976 491.868 192.976 491.732C192.976 491.596 193.024 491.48 193.12 491.384C193.216 491.288 193.332 491.24 193.468 491.24C193.604 491.24 193.72 491.288 193.816 491.384C193.912 491.472 193.96 491.584 193.96 491.72C193.96 491.856 193.912 491.972 193.816 492.068C193.72 492.164 193.604 492.212 193.468 492.212ZM199.359 493.688C200.143 493.688 200.763 493.916 201.219 494.372C201.675 494.828 201.903 495.484 201.903 496.34V500H201.303V496.388C201.303 495.684 201.123 495.148 200.763 494.78C200.411 494.412 199.915 494.228 199.275 494.228C198.539 494.228 197.959 494.448 197.535 494.888C197.111 495.328 196.899 495.92 196.899 496.664V500H196.299V493.736H196.875V495.092C197.091 494.652 197.411 494.308 197.835 494.06C198.267 493.812 198.775 493.688 199.359 493.688ZM204.373 493.736H204.973V500H204.373V493.736ZM204.673 492.212C204.537 492.212 204.421 492.168 204.325 492.08C204.229 491.984 204.181 491.868 204.181 491.732C204.181 491.596 204.229 491.48 204.325 491.384C204.421 491.288 204.537 491.24 204.673 491.24C204.809 491.24 204.925 491.288 205.021 491.384C205.117 491.472 205.165 491.584 205.165 491.72C205.165 491.856 205.117 491.972 205.021 492.068C204.925 492.164 204.809 492.212 204.673 492.212ZM209.086 500.048C208.582 500.048 208.102 499.972 207.646 499.82C207.19 499.668 206.834 499.476 206.578 499.244L206.854 498.764C207.11 498.98 207.438 499.16 207.838 499.304C208.246 499.448 208.67 499.52 209.11 499.52C209.742 499.52 210.206 499.416 210.502 499.208C210.806 499 210.958 498.712 210.958 498.344C210.958 498.08 210.874 497.872 210.706 497.72C210.546 497.568 210.346 497.456 210.106 497.384C209.866 497.312 209.534 497.236 209.11 497.156C208.614 497.068 208.214 496.972 207.91 496.868C207.606 496.764 207.346 496.596 207.13 496.364C206.914 496.132 206.806 495.812 206.806 495.404C206.806 494.908 207.01 494.5 207.418 494.18C207.834 493.852 208.422 493.688 209.182 493.688C209.582 493.688 209.978 493.744 210.37 493.856C210.762 493.968 211.082 494.116 211.33 494.3L211.054 494.78C210.798 494.596 210.506 494.456 210.178 494.36C209.85 494.264 209.514 494.216 209.17 494.216C208.586 494.216 208.146 494.324 207.85 494.54C207.554 494.756 207.406 495.04 207.406 495.392C207.406 495.672 207.49 495.892 207.658 496.052C207.826 496.204 208.03 496.32 208.27 496.4C208.518 496.472 208.862 496.552 209.302 496.64C209.79 496.728 210.182 496.824 210.478 496.928C210.782 497.024 211.038 497.184 211.246 497.408C211.454 497.632 211.558 497.94 211.558 498.332C211.558 498.852 211.342 499.268 210.91 499.58C210.478 499.892 209.87 500.048 209.086 500.048ZM216.293 493.688C217.077 493.688 217.697 493.916 218.153 494.372C218.609 494.828 218.837 495.484 218.837 496.34V500H218.237V496.388C218.237 495.684 218.057 495.148 217.697 494.78C217.345 494.412 216.849 494.228 216.209 494.228C215.473 494.228 214.893 494.448 214.469 494.888C214.045 495.328 213.833 495.92 213.833 496.664V500H213.233V491.096H213.833V495.044C214.049 494.612 214.369 494.28 214.793 494.048C215.217 493.808 215.717 493.688 216.293 493.688ZM226.611 497.012H221.223C221.239 497.5 221.363 497.936 221.595 498.32C221.827 498.696 222.139 498.988 222.531 499.196C222.931 499.404 223.379 499.508 223.875 499.508C224.283 499.508 224.659 499.436 225.003 499.292C225.355 499.14 225.647 498.92 225.879 498.632L226.227 499.028C225.955 499.356 225.611 499.608 225.195 499.784C224.787 499.96 224.343 500.048 223.863 500.048C223.239 500.048 222.683 499.912 222.195 499.64C221.707 499.368 221.323 498.992 221.043 498.512C220.771 498.032 220.635 497.484 220.635 496.868C220.635 496.26 220.763 495.716 221.019 495.236C221.283 494.748 221.643 494.368 222.099 494.096C222.555 493.824 223.067 493.688 223.635 493.688C224.203 493.688 224.711 493.824 225.159 494.096C225.615 494.36 225.971 494.732 226.227 495.212C226.491 495.692 226.623 496.236 226.623 496.844L226.611 497.012ZM223.635 494.216C223.195 494.216 222.799 494.316 222.447 494.516C222.095 494.708 221.811 494.984 221.595 495.344C221.387 495.696 221.267 496.096 221.235 496.544H226.035C226.011 496.096 225.891 495.696 225.675 495.344C225.459 494.992 225.175 494.716 224.823 494.516C224.471 494.316 224.075 494.216 223.635 494.216ZM234.047 491.096V500H233.459V498.524C233.211 499.012 232.863 499.388 232.415 499.652C231.967 499.916 231.459 500.048 230.891 500.048C230.307 500.048 229.779 499.912 229.307 499.64C228.835 499.368 228.463 498.992 228.191 498.512C227.927 498.032 227.795 497.484 227.795 496.868C227.795 496.252 227.927 495.704 228.191 495.224C228.463 494.736 228.835 494.36 229.307 494.096C229.779 493.824 230.307 493.688 230.891 493.688C231.451 493.688 231.951 493.82 232.391 494.084C232.839 494.348 233.191 494.716 233.447 495.188V491.096H234.047ZM230.927 499.508C231.407 499.508 231.835 499.396 232.211 499.172C232.595 498.948 232.895 498.636 233.111 498.236C233.335 497.836 233.447 497.38 233.447 496.868C233.447 496.356 233.335 495.9 233.111 495.5C232.895 495.1 232.595 494.788 232.211 494.564C231.835 494.34 231.407 494.228 230.927 494.228C230.447 494.228 230.015 494.34 229.631 494.564C229.255 494.788 228.955 495.1 228.731 495.5C228.515 495.9 228.407 496.356 228.407 496.868C228.407 497.38 228.515 497.836 228.731 498.236C228.955 498.636 229.255 498.948 229.631 499.172C230.015 499.396 230.447 499.508 230.927 499.508Z" fill="#F2F2F2"/>
<path d="M133.264 26.448V27H127.492V26.568L131.044 23.04C131.508 22.576 131.82 22.18 131.98 21.852C132.148 21.516 132.232 21.172 132.232 20.82C132.232 20.284 132.048 19.864 131.68 19.56C131.32 19.256 130.796 19.104 130.108 19.104C129.58 19.104 129.116 19.184 128.716 19.344C128.324 19.504 127.984 19.748 127.696 20.076L127.264 19.692C127.584 19.324 127.988 19.04 128.476 18.84C128.972 18.64 129.532 18.54 130.156 18.54C130.98 18.54 131.636 18.74 132.124 19.14C132.612 19.54 132.856 20.08 132.856 20.76C132.856 21.192 132.76 21.604 132.568 21.996C132.376 22.388 132.016 22.844 131.488 23.364L128.392 26.448H133.264ZM137.663 27.06C137.023 27.06 136.451 26.888 135.947 26.544C135.451 26.192 135.063 25.696 134.783 25.056C134.511 24.416 134.375 23.664 134.375 22.8C134.375 21.936 134.511 21.184 134.783 20.544C135.063 19.904 135.451 19.412 135.947 19.068C136.451 18.716 137.023 18.54 137.663 18.54C138.303 18.54 138.871 18.716 139.367 19.068C139.871 19.412 140.259 19.904 140.531 20.544C140.811 21.184 140.951 21.936 140.951 22.8C140.951 23.664 140.811 24.416 140.531 25.056C140.259 25.696 139.871 26.192 139.367 26.544C138.871 26.888 138.303 27.06 137.663 27.06ZM137.663 26.496C138.191 26.496 138.655 26.352 139.055 26.064C139.463 25.768 139.779 25.344 140.003 24.792C140.227 24.232 140.339 23.568 140.339 22.8C140.339 22.032 140.227 21.372 140.003 20.82C139.779 20.26 139.463 19.836 139.055 19.548C138.655 19.252 138.191 19.104 137.663 19.104C137.135 19.104 136.667 19.252 136.259 19.548C135.859 19.836 135.547 20.26 135.323 20.82C135.099 21.372 134.987 22.032 134.987 22.8C134.987 23.568 135.099 24.232 135.323 24.792C135.547 25.344 135.859 25.768 136.259 26.064C136.667 26.352 137.135 26.496 137.663 26.496ZM145.561 27.06C144.921 27.06 144.349 26.888 143.845 26.544C143.349 26.192 142.961 25.696 142.681 25.056C142.409 24.416 142.273 23.664 142.273 22.8C142.273 21.936 142.409 21.184 142.681 20.544C142.961 19.904 143.349 19.412 143.845 19.068C144.349 18.716 144.921 18.54 145.561 18.54C146.201 18.54 146.769 18.716 147.265 19.068C147.769 19.412 148.157 19.904 148.429 20.544C148.709 21.184 148.849 21.936 148.849 22.8C148.849 23.664 148.709 24.416 148.429 25.056C148.157 25.696 147.769 26.192 147.265 26.544C146.769 26.888 146.201 27.06 145.561 27.06ZM145.561 26.496C146.089 26.496 146.553 26.352 146.953 26.064C147.361 25.768 147.677 25.344 147.901 24.792C148.125 24.232 148.237 23.568 148.237 22.8C148.237 22.032 148.125 21.372 147.901 20.82C147.677 20.26 147.361 19.836 146.953 19.548C146.553 19.252 146.089 19.104 145.561 19.104C145.033 19.104 144.565 19.252 144.157 19.548C143.757 19.836 143.445 20.26 143.221 20.82C142.997 21.372 142.885 22.032 142.885 22.8C142.885 23.568 142.997 24.232 143.221 24.792C143.445 25.344 143.757 25.768 144.157 26.064C144.565 26.352 145.033 26.496 145.561 26.496ZM152.224 22.116C153.448 22.116 154.336 22.332 154.888 22.764C155.44 23.188 155.716 23.792 155.716 24.576C155.716 25.056 155.604 25.484 155.38 25.86C155.164 26.228 154.836 26.52 154.396 26.736C153.956 26.952 153.416 27.06 152.776 27.06C152.168 27.06 151.596 26.956 151.06 26.748C150.532 26.54 150.12 26.268 149.824 25.932L150.136 25.464C150.4 25.768 150.764 26.016 151.228 26.208C151.7 26.4 152.212 26.496 152.764 26.496C153.516 26.496 154.092 26.324 154.492 25.98C154.9 25.636 155.104 25.176 155.104 24.6C155.104 23.968 154.872 23.488 154.408 23.16C153.952 22.832 153.18 22.668 152.092 22.668H150.388L150.832 18.6H155.284V19.152H151.348L151.024 22.116H152.224Z" fill="#F2F2F2"/>
<path d="M133.264 160.448V161H127.492V160.568L131.044 157.04C131.508 156.576 131.82 156.18 131.98 155.852C132.148 155.516 132.232 155.172 132.232 154.82C132.232 154.284 132.048 153.864 131.68 153.56C131.32 153.256 130.796 153.104 130.108 153.104C129.58 153.104 129.116 153.184 128.716 153.344C128.324 153.504 127.984 153.748 127.696 154.076L127.264 153.692C127.584 153.324 127.988 153.04 128.476 152.84C128.972 152.64 129.532 152.54 130.156 152.54C130.98 152.54 131.636 152.74 132.124 153.14C132.612 153.54 132.856 154.08 132.856 154.76C132.856 155.192 132.76 155.604 132.568 155.996C132.376 156.388 132.016 156.844 131.488 157.364L128.392 160.448H133.264ZM137.663 161.06C137.023 161.06 136.451 160.888 135.947 160.544C135.451 160.192 135.063 159.696 134.783 159.056C134.511 158.416 134.375 157.664 134.375 156.8C134.375 155.936 134.511 155.184 134.783 154.544C135.063 153.904 135.451 153.412 135.947 153.068C136.451 152.716 137.023 152.54 137.663 152.54C138.303 152.54 138.871 152.716 139.367 153.068C139.871 153.412 140.259 153.904 140.531 154.544C140.811 155.184 140.951 155.936 140.951 156.8C140.951 157.664 140.811 158.416 140.531 159.056C140.259 159.696 139.871 160.192 139.367 160.544C138.871 160.888 138.303 161.06 137.663 161.06ZM137.663 160.496C138.191 160.496 138.655 160.352 139.055 160.064C139.463 159.768 139.779 159.344 140.003 158.792C140.227 158.232 140.339 157.568 140.339 156.8C140.339 156.032 140.227 155.372 140.003 154.82C139.779 154.26 139.463 153.836 139.055 153.548C138.655 153.252 138.191 153.104 137.663 153.104C137.135 153.104 136.667 153.252 136.259 153.548C135.859 153.836 135.547 154.26 135.323 154.82C135.099 155.372 134.987 156.032 134.987 156.8C134.987 157.568 135.099 158.232 135.323 158.792C135.547 159.344 135.859 159.768 136.259 160.064C136.667 160.352 137.135 160.496 137.663 160.496ZM145.561 161.06C144.921 161.06 144.349 160.888 143.845 160.544C143.349 160.192 142.961 159.696 142.681 159.056C142.409 158.416 142.273 157.664 142.273 156.8C142.273 155.936 142.409 155.184 142.681 154.544C142.961 153.904 143.349 153.412 143.845 153.068C144.349 152.716 144.921 152.54 145.561 152.54C146.201 152.54 146.769 152.716 147.265 153.068C147.769 153.412 148.157 153.904 148.429 154.544C148.709 155.184 148.849 155.936 148.849 156.8C148.849 157.664 148.709 158.416 148.429 159.056C148.157 159.696 147.769 160.192 147.265 160.544C146.769 160.888 146.201 161.06 145.561 161.06ZM145.561 160.496C146.089 160.496 146.553 160.352 146.953 160.064C147.361 159.768 147.677 159.344 147.901 158.792C148.125 158.232 148.237 157.568 148.237 156.8C148.237 156.032 148.125 155.372 147.901 154.82C147.677 154.26 147.361 153.836 146.953 153.548C146.553 153.252 146.089 153.104 145.561 153.104C145.033 153.104 144.565 153.252 144.157 153.548C143.757 153.836 143.445 154.26 143.221 154.82C142.997 155.372 142.885 156.032 142.885 156.8C142.885 157.568 142.997 158.232 143.221 158.792C143.445 159.344 143.757 159.768 144.157 160.064C144.565 160.352 145.033 160.496 145.561 160.496ZM154.672 156.608C155.248 156.76 155.692 157.016 156.004 157.376C156.324 157.736 156.484 158.176 156.484 158.696C156.484 159.432 156.2 160.012 155.632 160.436C155.064 160.852 154.284 161.06 153.292 161.06C152.308 161.06 151.532 160.852 150.964 160.436C150.404 160.012 150.124 159.432 150.124 158.696C150.124 158.168 150.276 157.728 150.58 157.376C150.892 157.016 151.336 156.76 151.912 156.608C151.432 156.448 151.064 156.208 150.808 155.888C150.552 155.568 150.424 155.176 150.424 154.712C150.424 154.04 150.684 153.512 151.204 153.128C151.724 152.736 152.42 152.54 153.292 152.54C154.164 152.54 154.864 152.736 155.392 153.128C155.92 153.52 156.184 154.048 156.184 154.712C156.184 155.168 156.052 155.56 155.788 155.888C155.532 156.208 155.16 156.448 154.672 156.608ZM151.036 154.724C151.036 155.228 151.232 155.628 151.624 155.924C152.024 156.22 152.58 156.368 153.292 156.368C154.004 156.368 154.56 156.224 154.96 155.936C155.368 155.64 155.572 155.24 155.572 154.736C155.572 154.224 155.364 153.82 154.948 153.524C154.54 153.22 153.988 153.068 153.292 153.068C152.596 153.068 152.044 153.216 151.636 153.512C151.236 153.808 151.036 154.212 151.036 154.724ZM153.292 160.532C154.1 160.532 154.732 160.368 155.188 160.04C155.644 159.712 155.872 159.264 155.872 158.696C155.872 158.136 155.644 157.692 155.188 157.364C154.732 157.036 154.1 156.872 153.292 156.872C152.492 156.872 151.864 157.036 151.408 157.364C150.96 157.692 150.736 158.136 150.736 158.696C150.736 159.264 150.96 159.712 151.408 160.04C151.856 160.368 152.484 160.532 153.292 160.532Z" fill="#F2F2F2"/>
<path d="M133.264 387.448V388H127.492V387.568L131.044 384.04C131.508 383.576 131.82 383.18 131.98 382.852C132.148 382.516 132.232 382.172 132.232 381.82C132.232 381.284 132.048 380.864 131.68 380.56C131.32 380.256 130.796 380.104 130.108 380.104C129.58 380.104 129.116 380.184 128.716 380.344C128.324 380.504 127.984 380.748 127.696 381.076L127.264 380.692C127.584 380.324 127.988 380.04 128.476 379.84C128.972 379.64 129.532 379.54 130.156 379.54C130.98 379.54 131.636 379.74 132.124 380.14C132.612 380.54 132.856 381.08 132.856 381.76C132.856 382.192 132.76 382.604 132.568 382.996C132.376 383.388 132.016 383.844 131.488 384.364L128.392 387.448H133.264ZM137.663 388.06C137.023 388.06 136.451 387.888 135.947 387.544C135.451 387.192 135.063 386.696 134.783 386.056C134.511 385.416 134.375 384.664 134.375 383.8C134.375 382.936 134.511 382.184 134.783 381.544C135.063 380.904 135.451 380.412 135.947 380.068C136.451 379.716 137.023 379.54 137.663 379.54C138.303 379.54 138.871 379.716 139.367 380.068C139.871 380.412 140.259 380.904 140.531 381.544C140.811 382.184 140.951 382.936 140.951 383.8C140.951 384.664 140.811 385.416 140.531 386.056C140.259 386.696 139.871 387.192 139.367 387.544C138.871 387.888 138.303 388.06 137.663 388.06ZM137.663 387.496C138.191 387.496 138.655 387.352 139.055 387.064C139.463 386.768 139.779 386.344 140.003 385.792C140.227 385.232 140.339 384.568 140.339 383.8C140.339 383.032 140.227 382.372 140.003 381.82C139.779 381.26 139.463 380.836 139.055 380.548C138.655 380.252 138.191 380.104 137.663 380.104C137.135 380.104 136.667 380.252 136.259 380.548C135.859 380.836 135.547 381.26 135.323 381.82C135.099 382.372 134.987 383.032 134.987 383.8C134.987 384.568 135.099 385.232 135.323 385.792C135.547 386.344 135.859 386.768 136.259 387.064C136.667 387.352 137.135 387.496 137.663 387.496ZM144.374 379.6V388H143.762V380.152H141.71V379.6H144.374ZM149.048 383.26C149.976 383.284 150.68 383.512 151.16 383.944C151.648 384.368 151.892 384.932 151.892 385.636C151.892 386.108 151.78 386.528 151.556 386.896C151.332 387.256 150.996 387.54 150.548 387.748C150.108 387.956 149.576 388.06 148.952 388.06C148.344 388.06 147.772 387.96 147.236 387.76C146.7 387.552 146.284 387.276 145.988 386.932L146.3 386.464C146.572 386.768 146.94 387.016 147.404 387.208C147.876 387.4 148.392 387.496 148.952 387.496C149.696 387.496 150.268 387.332 150.668 387.004C151.068 386.668 151.268 386.212 151.268 385.636C151.268 385.052 151.064 384.596 150.656 384.268C150.248 383.94 149.636 383.776 148.82 383.776H148.292V383.332L150.776 380.152H146.3V379.6H151.568V380.032L149.048 383.26Z" fill="#F2F2F2"/>
<path d="M133.264 474.448V475H127.492V474.568L131.044 471.04C131.508 470.576 131.82 470.18 131.98 469.852C132.148 469.516 132.232 469.172 132.232 468.82C132.232 468.284 132.048 467.864 131.68 467.56C131.32 467.256 130.796 467.104 130.108 467.104C129.58 467.104 129.116 467.184 128.716 467.344C128.324 467.504 127.984 467.748 127.696 468.076L127.264 467.692C127.584 467.324 127.988 467.04 128.476 466.84C128.972 466.64 129.532 466.54 130.156 466.54C130.98 466.54 131.636 466.74 132.124 467.14C132.612 467.54 132.856 468.08 132.856 468.76C132.856 469.192 132.76 469.604 132.568 469.996C132.376 470.388 132.016 470.844 131.488 471.364L128.392 474.448H133.264ZM137.663 475.06C137.023 475.06 136.451 474.888 135.947 474.544C135.451 474.192 135.063 473.696 134.783 473.056C134.511 472.416 134.375 471.664 134.375 470.8C134.375 469.936 134.511 469.184 134.783 468.544C135.063 467.904 135.451 467.412 135.947 467.068C136.451 466.716 137.023 466.54 137.663 466.54C138.303 466.54 138.871 466.716 139.367 467.068C139.871 467.412 140.259 467.904 140.531 468.544C140.811 469.184 140.951 469.936 140.951 470.8C140.951 471.664 140.811 472.416 140.531 473.056C140.259 473.696 139.871 474.192 139.367 474.544C138.871 474.888 138.303 475.06 137.663 475.06ZM137.663 474.496C138.191 474.496 138.655 474.352 139.055 474.064C139.463 473.768 139.779 473.344 140.003 472.792C140.227 472.232 140.339 471.568 140.339 470.8C140.339 470.032 140.227 469.372 140.003 468.82C139.779 468.26 139.463 467.836 139.055 467.548C138.655 467.252 138.191 467.104 137.663 467.104C137.135 467.104 136.667 467.252 136.259 467.548C135.859 467.836 135.547 468.26 135.323 468.82C135.099 469.372 134.987 470.032 134.987 470.8C134.987 471.568 135.099 472.232 135.323 472.792C135.547 473.344 135.859 473.768 136.259 474.064C136.667 474.352 137.135 474.496 137.663 474.496ZM144.374 466.6V475H143.762V467.152H141.71V466.6H144.374ZM148.544 470.116C149.768 470.116 150.656 470.332 151.208 470.764C151.76 471.188 152.036 471.792 152.036 472.576C152.036 473.056 151.924 473.484 151.7 473.86C151.484 474.228 151.156 474.52 150.716 474.736C150.276 474.952 149.736 475.06 149.096 475.06C148.488 475.06 147.916 474.956 147.38 474.748C146.852 474.54 146.44 474.268 146.144 473.932L146.456 473.464C146.72 473.768 147.084 474.016 147.548 474.208C148.02 474.4 148.532 474.496 149.084 474.496C149.836 474.496 150.412 474.324 150.812 473.98C151.22 473.636 151.424 473.176 151.424 472.6C151.424 471.968 151.192 471.488 150.728 471.16C150.272 470.832 149.5 470.668 148.412 470.668H146.708L147.152 466.6H151.604V467.152H147.668L147.344 470.116H148.544Z" fill="#F2F2F2"/>
</svg>
