<?xml version="1.0" encoding="utf-8"?>
<!-- Generator: Adobe Illustrator 16.0.0, SVG Export Plug-In . SVG Version: 6.00 Build 0)  -->
<!DOCTYPE svg PUBLIC "-//W3C//DTD SVG 1.1//EN" "http://www.w3.org/Graphics/SVG/1.1/DTD/svg11.dtd">
<svg version="1.1" xmlns="http://www.w3.org/2000/svg" xmlns:xlink="http://www.w3.org/1999/xlink" x="0px" y="0px" width="1152px"
	 height="300px" viewBox="0 0 1152 300" enable-background="new 0 0 1152 300" xml:space="preserve">
<pattern  x="-3516" width="72" height="72" patternUnits="userSpaceOnUse" id="Grid_1_pica_Lines" viewBox="72.25 -144.25 72 72" overflow="visible">
	<g>
		<polygon fill="none" points="72.25,-144.25 144.25,-144.25 144.25,-72.25 72.25,-72.25 		"/>
		<g>
			<line fill="none" stroke="#231F20" stroke-width="0.3" x1="78.25" y1="-72.5" x2="78.25" y2="0"/>
			<line fill="none" stroke="#231F20" stroke-width="0.3" x1="102.25" y1="-72.5" x2="102.25" y2="0"/>
			<line fill="none" stroke="#231F20" stroke-width="0.3" x1="126.25" y1="-72.5" x2="126.25" y2="0"/>
			<line fill="none" stroke="#231F20" stroke-width="0.3" x1="90.25" y1="-72.5" x2="90.25" y2="0"/>
			<line fill="none" stroke="#231F20" stroke-width="0.3" x1="114.25" y1="-72.5" x2="114.25" y2="0"/>
			<line fill="none" stroke="#231F20" stroke-width="0.3" x1="138.25" y1="-72.5" x2="138.25" y2="0"/>
		</g>
		<g>
			<line fill="none" stroke="#231F20" stroke-width="0.3" x1="144" y1="-78.25" x2="216.5" y2="-78.25"/>
			<line fill="none" stroke="#231F20" stroke-width="0.3" x1="144" y1="-102.25" x2="216.5" y2="-102.25"/>
			<line fill="none" stroke="#231F20" stroke-width="0.3" x1="144" y1="-126.25" x2="216.5" y2="-126.25"/>
			<line fill="none" stroke="#231F20" stroke-width="0.3" x1="144" y1="-90.25" x2="216.5" y2="-90.25"/>
			<line fill="none" stroke="#231F20" stroke-width="0.3" x1="144" y1="-114.25" x2="216.5" y2="-114.25"/>
			<line fill="none" stroke="#231F20" stroke-width="0.3" x1="144" y1="-138.25" x2="216.5" y2="-138.25"/>
		</g>
		<g>
			<line fill="none" stroke="#231F20" stroke-width="0.3" x1="78.25" y1="-144.5" x2="78.25" y2="-72"/>
			<line fill="none" stroke="#231F20" stroke-width="0.3" x1="102.25" y1="-144.5" x2="102.25" y2="-72"/>
			<line fill="none" stroke="#231F20" stroke-width="0.3" x1="126.25" y1="-144.5" x2="126.25" y2="-72"/>
			<line fill="none" stroke="#231F20" stroke-width="0.3" x1="72" y1="-78.25" x2="144.5" y2="-78.25"/>
			<line fill="none" stroke="#231F20" stroke-width="0.3" x1="72" y1="-102.25" x2="144.5" y2="-102.25"/>
			<line fill="none" stroke="#231F20" stroke-width="0.3" x1="72" y1="-126.25" x2="144.5" y2="-126.25"/>
			<line fill="none" stroke="#231F20" stroke-width="0.3" x1="72" y1="-90.25" x2="144.5" y2="-90.25"/>
			<line fill="none" stroke="#231F20" stroke-width="0.3" x1="72" y1="-114.25" x2="144.5" y2="-114.25"/>
			<line fill="none" stroke="#231F20" stroke-width="0.3" x1="72" y1="-138.25" x2="144.5" y2="-138.25"/>
			<line fill="none" stroke="#231F20" stroke-width="0.3" x1="90.25" y1="-144.5" x2="90.25" y2="-72"/>
			<line fill="none" stroke="#231F20" stroke-width="0.3" x1="114.25" y1="-144.5" x2="114.25" y2="-72"/>
			<line fill="none" stroke="#231F20" stroke-width="0.3" x1="138.25" y1="-144.5" x2="138.25" y2="-72"/>
		</g>
		<g>
			<line fill="none" stroke="#231F20" stroke-width="0.3" x1="0" y1="-78.25" x2="72.5" y2="-78.25"/>
			<line fill="none" stroke="#231F20" stroke-width="0.3" x1="0" y1="-102.25" x2="72.5" y2="-102.25"/>
			<line fill="none" stroke="#231F20" stroke-width="0.3" x1="0" y1="-126.25" x2="72.5" y2="-126.25"/>
			<line fill="none" stroke="#231F20" stroke-width="0.3" x1="0" y1="-90.25" x2="72.5" y2="-90.25"/>
			<line fill="none" stroke="#231F20" stroke-width="0.3" x1="0" y1="-114.25" x2="72.5" y2="-114.25"/>
			<line fill="none" stroke="#231F20" stroke-width="0.3" x1="0" y1="-138.25" x2="72.5" y2="-138.25"/>
		</g>
		<g>
			<line fill="none" stroke="#231F20" stroke-width="0.3" x1="78.25" y1="-216.5" x2="78.25" y2="-144"/>
			<line fill="none" stroke="#231F20" stroke-width="0.3" x1="102.25" y1="-216.5" x2="102.25" y2="-144"/>
			<line fill="none" stroke="#231F20" stroke-width="0.3" x1="126.25" y1="-216.5" x2="126.25" y2="-144"/>
			<line fill="none" stroke="#231F20" stroke-width="0.3" x1="90.25" y1="-216.5" x2="90.25" y2="-144"/>
			<line fill="none" stroke="#231F20" stroke-width="0.3" x1="114.25" y1="-216.5" x2="114.25" y2="-144"/>
			<line fill="none" stroke="#231F20" stroke-width="0.3" x1="138.25" y1="-216.5" x2="138.25" y2="-144"/>
		</g>
	</g>
</pattern>
<g id="Layer_1">
	<rect x="1" y="33" fill="#0D0D0D" width="1098" height="236"/>
</g>
<g id="Layer_2">
</g>
<g id="Layer_3" display="none">
</g>
<g id="Layer_4">
</g>
<g id="Layer_5">
	<rect x="13.5" y="38.5" fill="#0D0D0D" stroke="#BDCCD4" stroke-miterlimit="10" width="226" height="226"/>
	<rect x="88.5" y="114.5" fill="url(#Grid_1_pica_Lines)" stroke="#F2F2F2" stroke-miterlimit="10" width="76" height="76"/>
	<g>
		<rect x="261" y="114" fill="none" width="76" height="76"/>
	</g>
	<rect x="87.5" y="445.5" display="none" fill="none" stroke="#F2F2F2" stroke-miterlimit="10" width="76" height="76"/>
	<g>
		<circle fill="#268C16" cx="104.602" cy="129.344" r="4.208"/>
		<circle fill="#268C16" cx="115.521" cy="129.344" r="4.209"/>
		<circle fill="#268C16" cx="126.439" cy="129.344" r="4.208"/>
	</g>
	<line fill="none" stroke="#F2F2F2" stroke-miterlimit="10" x1="261" y1="151.5" x2="1087" y2="151.5"/>
	<line fill="none" stroke="#F2F2F2" stroke-miterlimit="10" x1="327" y1="151.5" x2="1153" y2="151.5"/>
	<g>
		<g>
			<circle fill="#268C16" cx="269.498" cy="139.569" r="4.208"/>
		</g>
		<line fill="none" stroke="#268C16" stroke-miterlimit="10" x1="269.387" y1="139.228" x2="269.717" y2="152.224"/>
	</g>
	<g>
		<rect x="337" y="114" fill="none" width="76" height="76"/>
	</g>
	<g>
		<g>
			<circle fill="#268C16" cx="345.498" cy="139.569" r="4.208"/>
		</g>
		<line fill="none" stroke="#268C16" stroke-miterlimit="10" x1="345.387" y1="139.228" x2="345.717" y2="152.224"/>
	</g>
	<g>
		<rect x="413" y="114" fill="none" width="76" height="76"/>
	</g>
	<g>
		<g>
			<circle fill="#268C16" cx="421.498" cy="139.569" r="4.208"/>
		</g>
		<line fill="none" stroke="#268C16" stroke-miterlimit="10" x1="421.387" y1="139.228" x2="421.717" y2="152.224"/>
	</g>
	<g>
		<rect x="489" y="114" fill="none" width="76" height="76"/>
	</g>
	<g>
		<g>
			<circle fill="#268C16" cx="497.498" cy="139.569" r="4.208"/>
		</g>
		<line fill="none" stroke="#268C16" stroke-miterlimit="10" x1="497.387" y1="139.228" x2="497.717" y2="152.224"/>
	</g>
	<g>
		<rect x="565" y="114" fill="none" width="76" height="76"/>
	</g>
	<g>
		<g>
			<circle fill="#268C16" cx="573.498" cy="139.569" r="4.208"/>
		</g>
		<line fill="none" stroke="#268C16" stroke-miterlimit="10" x1="573.387" y1="139.228" x2="573.717" y2="152.224"/>
	</g>
	<g>
		<rect x="641" y="114" fill="none" width="76" height="76"/>
	</g>
	<g>
		<g>
			<circle fill="#268C16" cx="649.498" cy="139.569" r="4.208"/>
		</g>
		<line fill="none" stroke="#268C16" stroke-miterlimit="10" x1="649.387" y1="139.228" x2="649.717" y2="152.224"/>
	</g>
	<g>
		<rect x="717" y="114" fill="none" width="76" height="76"/>
	</g>
	<g>
		<g>
			<circle fill="#268C16" cx="725.498" cy="139.569" r="4.208"/>
		</g>
		<line fill="none" stroke="#268C16" stroke-miterlimit="10" x1="725.387" y1="139.228" x2="725.717" y2="152.224"/>
	</g>
	<g>
		<rect x="793" y="114" fill="none" width="76" height="76"/>
	</g>
	<g>
		<g>
			<circle fill="#268C16" cx="801.498" cy="139.569" r="4.208"/>
		</g>
		<line fill="none" stroke="#268C16" stroke-miterlimit="10" x1="801.387" y1="139.228" x2="801.717" y2="152.224"/>
	</g>
	<g>
		<rect x="869" y="114" fill="none" width="76" height="76"/>
	</g>
	<g>
		<g>
			<circle fill="#268C16" cx="877.498" cy="139.569" r="4.208"/>
		</g>
		<line fill="none" stroke="#268C16" stroke-miterlimit="10" x1="877.387" y1="139.228" x2="877.717" y2="152.224"/>
	</g>
	<g>
		<rect x="945" y="114" fill="none" width="76" height="76"/>
	</g>
	<g>
		<g>
			<circle fill="#268C16" cx="953.498" cy="139.569" r="4.208"/>
		</g>
		<line fill="none" stroke="#268C16" stroke-miterlimit="10" x1="953.387" y1="139.228" x2="953.717" y2="152.224"/>
	</g>
	<g>
		<rect x="1021" y="114" fill="none" width="76" height="76"/>
	</g>
	<g>
		<g>
			<circle fill="#268C16" cx="1029.498" cy="139.569" r="4.208"/>
		</g>
		<line fill="none" stroke="#268C16" stroke-miterlimit="10" x1="1029.387" y1="139.228" x2="1029.717" y2="152.224"/>
	</g>
	<g>
		<g>
			<g>
				<g>
					<g>
						<g>
							<rect x="329.001" y="114" fill="none" width="14.998" height="12.667"/>
						</g>
						<rect x="335.53" y="123.38" fill-rule="evenodd" clip-rule="evenodd" fill="#231F20" width="1.5" height="2.351"/>
						<rect x="335.53" y="119.163" fill-rule="evenodd" clip-rule="evenodd" fill="#231F20" width="1.5" height="2.352"/>
						<rect x="335.53" y="114.96" fill-rule="evenodd" clip-rule="evenodd" fill="#231F20" width="1.5" height="2.351"/>
					</g>
				</g>
				<g>
					<g>
						<g>
							<rect x="329.001" y="126.667" fill="none" width="14.998" height="12.667"/>
						</g>
						<rect x="335.53" y="136.046" fill-rule="evenodd" clip-rule="evenodd" fill="#231F20" width="1.5" height="2.351"/>
						<rect x="335.53" y="131.83" fill-rule="evenodd" clip-rule="evenodd" fill="#231F20" width="1.5" height="2.351"/>
						<rect x="335.53" y="127.626" fill-rule="evenodd" clip-rule="evenodd" fill="#231F20" width="1.5" height="2.351"/>
					</g>
				</g>
				<g>
					<g>
						<g>
							<rect x="329.001" y="139.333" fill="none" width="14.998" height="12.667"/>
						</g>
						<rect x="335.53" y="148.713" fill-rule="evenodd" clip-rule="evenodd" fill="#231F20" width="1.5" height="2.351"/>
						<rect x="335.53" y="144.496" fill-rule="evenodd" clip-rule="evenodd" fill="#231F20" width="1.5" height="2.351"/>
						<rect x="335.53" y="140.293" fill-rule="evenodd" clip-rule="evenodd" fill="#231F20" width="1.5" height="2.351"/>
					</g>
				</g>
				<g>
					<g>
						<g>
							<rect x="329.001" y="152" fill="none" width="14.998" height="12.667"/>
						</g>
						<rect x="335.53" y="161.38" fill-rule="evenodd" clip-rule="evenodd" fill="#231F20" width="1.5" height="2.351"/>
						<rect x="335.53" y="157.163" fill-rule="evenodd" clip-rule="evenodd" fill="#231F20" width="1.5" height="2.352"/>
						<rect x="335.53" y="152.96" fill-rule="evenodd" clip-rule="evenodd" fill="#231F20" width="1.5" height="2.351"/>
					</g>
				</g>
				<g>
					<g>
						<g>
							<rect x="329.001" y="164.667" fill="none" width="14.998" height="12.667"/>
						</g>
						<rect x="335.53" y="174.046" fill-rule="evenodd" clip-rule="evenodd" fill="#231F20" width="1.5" height="2.351"/>
						<rect x="335.53" y="169.83" fill-rule="evenodd" clip-rule="evenodd" fill="#231F20" width="1.5" height="2.351"/>
						<rect x="335.53" y="165.626" fill-rule="evenodd" clip-rule="evenodd" fill="#231F20" width="1.5" height="2.351"/>
					</g>
				</g>
				<g>
					<g>
						<g>
							<rect x="329.001" y="177.333" fill="none" width="14.998" height="12.667"/>
						</g>
						<rect x="335.53" y="186.713" fill-rule="evenodd" clip-rule="evenodd" fill="#231F20" width="1.5" height="2.351"/>
						<rect x="335.53" y="182.496" fill-rule="evenodd" clip-rule="evenodd" fill="#231F20" width="1.5" height="2.351"/>
						<rect x="335.53" y="178.293" fill-rule="evenodd" clip-rule="evenodd" fill="#231F20" width="1.5" height="2.351"/>
					</g>
				</g>
			</g>
		</g>
	</g>
	<g>
		<g>
			<g>
				<g>
					<g>
						<g>
							<rect x="406.001" y="114" fill="none" width="14.998" height="12.667"/>
						</g>
						<rect x="412.53" y="123.38" fill-rule="evenodd" clip-rule="evenodd" fill="#231F20" width="1.5" height="2.351"/>
						<rect x="412.53" y="119.163" fill-rule="evenodd" clip-rule="evenodd" fill="#231F20" width="1.5" height="2.352"/>
						<rect x="412.53" y="114.96" fill-rule="evenodd" clip-rule="evenodd" fill="#231F20" width="1.5" height="2.351"/>
					</g>
				</g>
				<g>
					<g>
						<g>
							<rect x="406.001" y="126.667" fill="none" width="14.998" height="12.667"/>
						</g>
						<rect x="412.53" y="136.046" fill-rule="evenodd" clip-rule="evenodd" fill="#231F20" width="1.5" height="2.351"/>
						<rect x="412.53" y="131.83" fill-rule="evenodd" clip-rule="evenodd" fill="#231F20" width="1.5" height="2.351"/>
						<rect x="412.53" y="127.626" fill-rule="evenodd" clip-rule="evenodd" fill="#231F20" width="1.5" height="2.351"/>
					</g>
				</g>
				<g>
					<g>
						<g>
							<rect x="406.001" y="139.333" fill="none" width="14.998" height="12.667"/>
						</g>
						<rect x="412.53" y="148.713" fill-rule="evenodd" clip-rule="evenodd" fill="#231F20" width="1.5" height="2.351"/>
						<rect x="412.53" y="144.496" fill-rule="evenodd" clip-rule="evenodd" fill="#231F20" width="1.5" height="2.351"/>
						<rect x="412.53" y="140.293" fill-rule="evenodd" clip-rule="evenodd" fill="#231F20" width="1.5" height="2.351"/>
					</g>
				</g>
				<g>
					<g>
						<g>
							<rect x="406.001" y="152" fill="none" width="14.998" height="12.667"/>
						</g>
						<rect x="412.53" y="161.38" fill-rule="evenodd" clip-rule="evenodd" fill="#231F20" width="1.5" height="2.351"/>
						<rect x="412.53" y="157.163" fill-rule="evenodd" clip-rule="evenodd" fill="#231F20" width="1.5" height="2.352"/>
						<rect x="412.53" y="152.96" fill-rule="evenodd" clip-rule="evenodd" fill="#231F20" width="1.5" height="2.351"/>
					</g>
				</g>
				<g>
					<g>
						<g>
							<rect x="406.001" y="164.667" fill="none" width="14.998" height="12.667"/>
						</g>
						<rect x="412.53" y="174.046" fill-rule="evenodd" clip-rule="evenodd" fill="#231F20" width="1.5" height="2.351"/>
						<rect x="412.53" y="169.83" fill-rule="evenodd" clip-rule="evenodd" fill="#231F20" width="1.5" height="2.351"/>
						<rect x="412.53" y="165.626" fill-rule="evenodd" clip-rule="evenodd" fill="#231F20" width="1.5" height="2.351"/>
					</g>
				</g>
				<g>
					<g>
						<g>
							<rect x="406.001" y="177.333" fill="none" width="14.998" height="12.667"/>
						</g>
						<rect x="412.53" y="186.713" fill-rule="evenodd" clip-rule="evenodd" fill="#231F20" width="1.5" height="2.351"/>
						<rect x="412.53" y="182.496" fill-rule="evenodd" clip-rule="evenodd" fill="#231F20" width="1.5" height="2.351"/>
						<rect x="412.53" y="178.293" fill-rule="evenodd" clip-rule="evenodd" fill="#231F20" width="1.5" height="2.351"/>
					</g>
				</g>
			</g>
		</g>
	</g>
	<g>
		<g>
			<g>
				<g>
					<g>
						<g>
							<rect x="482.001" y="114" fill="none" width="14.998" height="12.667"/>
						</g>
						<rect x="488.53" y="123.38" fill-rule="evenodd" clip-rule="evenodd" fill="#231F20" width="1.5" height="2.351"/>
						<rect x="488.53" y="119.163" fill-rule="evenodd" clip-rule="evenodd" fill="#231F20" width="1.5" height="2.352"/>
						<rect x="488.53" y="114.96" fill-rule="evenodd" clip-rule="evenodd" fill="#231F20" width="1.5" height="2.351"/>
					</g>
				</g>
				<g>
					<g>
						<g>
							<rect x="482.001" y="126.667" fill="none" width="14.998" height="12.667"/>
						</g>
						<rect x="488.53" y="136.046" fill-rule="evenodd" clip-rule="evenodd" fill="#231F20" width="1.5" height="2.351"/>
						<rect x="488.53" y="131.83" fill-rule="evenodd" clip-rule="evenodd" fill="#231F20" width="1.5" height="2.351"/>
						<rect x="488.53" y="127.626" fill-rule="evenodd" clip-rule="evenodd" fill="#231F20" width="1.5" height="2.351"/>
					</g>
				</g>
				<g>
					<g>
						<g>
							<rect x="482.001" y="139.333" fill="none" width="14.998" height="12.667"/>
						</g>
						<rect x="488.53" y="148.713" fill-rule="evenodd" clip-rule="evenodd" fill="#231F20" width="1.5" height="2.351"/>
						<rect x="488.53" y="144.496" fill-rule="evenodd" clip-rule="evenodd" fill="#231F20" width="1.5" height="2.351"/>
						<rect x="488.53" y="140.293" fill-rule="evenodd" clip-rule="evenodd" fill="#231F20" width="1.5" height="2.351"/>
					</g>
				</g>
				<g>
					<g>
						<g>
							<rect x="482.001" y="152" fill="none" width="14.998" height="12.667"/>
						</g>
						<rect x="488.53" y="161.38" fill-rule="evenodd" clip-rule="evenodd" fill="#231F20" width="1.5" height="2.351"/>
						<rect x="488.53" y="157.163" fill-rule="evenodd" clip-rule="evenodd" fill="#231F20" width="1.5" height="2.352"/>
						<rect x="488.53" y="152.96" fill-rule="evenodd" clip-rule="evenodd" fill="#231F20" width="1.5" height="2.351"/>
					</g>
				</g>
				<g>
					<g>
						<g>
							<rect x="482.001" y="164.667" fill="none" width="14.998" height="12.667"/>
						</g>
						<rect x="488.53" y="174.046" fill-rule="evenodd" clip-rule="evenodd" fill="#231F20" width="1.5" height="2.351"/>
						<rect x="488.53" y="169.83" fill-rule="evenodd" clip-rule="evenodd" fill="#231F20" width="1.5" height="2.351"/>
						<rect x="488.53" y="165.626" fill-rule="evenodd" clip-rule="evenodd" fill="#231F20" width="1.5" height="2.351"/>
					</g>
				</g>
				<g>
					<g>
						<g>
							<rect x="482.001" y="177.333" fill="none" width="14.998" height="12.667"/>
						</g>
						<rect x="488.53" y="186.713" fill-rule="evenodd" clip-rule="evenodd" fill="#231F20" width="1.5" height="2.351"/>
						<rect x="488.53" y="182.496" fill-rule="evenodd" clip-rule="evenodd" fill="#231F20" width="1.5" height="2.351"/>
						<rect x="488.53" y="178.293" fill-rule="evenodd" clip-rule="evenodd" fill="#231F20" width="1.5" height="2.351"/>
					</g>
				</g>
			</g>
		</g>
	</g>
	<g>
		<g>
			<g>
				<g>
					<g>
						<g>
							<rect x="558.001" y="114" fill="none" width="14.998" height="12.667"/>
						</g>
						<rect x="564.53" y="123.38" fill-rule="evenodd" clip-rule="evenodd" fill="#231F20" width="1.5" height="2.351"/>
						<rect x="564.53" y="119.163" fill-rule="evenodd" clip-rule="evenodd" fill="#231F20" width="1.5" height="2.352"/>
						<rect x="564.53" y="114.96" fill-rule="evenodd" clip-rule="evenodd" fill="#231F20" width="1.5" height="2.351"/>
					</g>
				</g>
				<g>
					<g>
						<g>
							<rect x="558.001" y="126.667" fill="none" width="14.998" height="12.667"/>
						</g>
						<rect x="564.53" y="136.046" fill-rule="evenodd" clip-rule="evenodd" fill="#231F20" width="1.5" height="2.351"/>
						<rect x="564.53" y="131.83" fill-rule="evenodd" clip-rule="evenodd" fill="#231F20" width="1.5" height="2.351"/>
						<rect x="564.53" y="127.626" fill-rule="evenodd" clip-rule="evenodd" fill="#231F20" width="1.5" height="2.351"/>
					</g>
				</g>
				<g>
					<g>
						<g>
							<rect x="558.001" y="139.333" fill="none" width="14.998" height="12.667"/>
						</g>
						<rect x="564.53" y="148.713" fill-rule="evenodd" clip-rule="evenodd" fill="#231F20" width="1.5" height="2.351"/>
						<rect x="564.53" y="144.496" fill-rule="evenodd" clip-rule="evenodd" fill="#231F20" width="1.5" height="2.351"/>
						<rect x="564.53" y="140.293" fill-rule="evenodd" clip-rule="evenodd" fill="#231F20" width="1.5" height="2.351"/>
					</g>
				</g>
				<g>
					<g>
						<g>
							<rect x="558.001" y="152" fill="none" width="14.998" height="12.667"/>
						</g>
						<rect x="564.53" y="161.38" fill-rule="evenodd" clip-rule="evenodd" fill="#231F20" width="1.5" height="2.351"/>
						<rect x="564.53" y="157.163" fill-rule="evenodd" clip-rule="evenodd" fill="#231F20" width="1.5" height="2.352"/>
						<rect x="564.53" y="152.96" fill-rule="evenodd" clip-rule="evenodd" fill="#231F20" width="1.5" height="2.351"/>
					</g>
				</g>
				<g>
					<g>
						<g>
							<rect x="558.001" y="164.667" fill="none" width="14.998" height="12.667"/>
						</g>
						<rect x="564.53" y="174.046" fill-rule="evenodd" clip-rule="evenodd" fill="#231F20" width="1.5" height="2.351"/>
						<rect x="564.53" y="169.83" fill-rule="evenodd" clip-rule="evenodd" fill="#231F20" width="1.5" height="2.351"/>
						<rect x="564.53" y="165.626" fill-rule="evenodd" clip-rule="evenodd" fill="#231F20" width="1.5" height="2.351"/>
					</g>
				</g>
				<g>
					<g>
						<g>
							<rect x="558.001" y="177.333" fill="none" width="14.998" height="12.667"/>
						</g>
						<rect x="564.53" y="186.713" fill-rule="evenodd" clip-rule="evenodd" fill="#231F20" width="1.5" height="2.351"/>
						<rect x="564.53" y="182.496" fill-rule="evenodd" clip-rule="evenodd" fill="#231F20" width="1.5" height="2.351"/>
						<rect x="564.53" y="178.293" fill-rule="evenodd" clip-rule="evenodd" fill="#231F20" width="1.5" height="2.351"/>
					</g>
				</g>
			</g>
		</g>
	</g>
	<g>
		<g>
			<g>
				<g>
					<g>
						<g>
							<rect x="634.001" y="114" fill="none" width="14.998" height="12.667"/>
						</g>
						<rect x="640.53" y="123.38" fill-rule="evenodd" clip-rule="evenodd" fill="#231F20" width="1.5" height="2.351"/>
						<rect x="640.53" y="119.163" fill-rule="evenodd" clip-rule="evenodd" fill="#231F20" width="1.5" height="2.352"/>
						<rect x="640.53" y="114.96" fill-rule="evenodd" clip-rule="evenodd" fill="#231F20" width="1.5" height="2.351"/>
					</g>
				</g>
				<g>
					<g>
						<g>
							<rect x="634.001" y="126.667" fill="none" width="14.998" height="12.667"/>
						</g>
						<rect x="640.53" y="136.046" fill-rule="evenodd" clip-rule="evenodd" fill="#231F20" width="1.5" height="2.351"/>
						<rect x="640.53" y="131.83" fill-rule="evenodd" clip-rule="evenodd" fill="#231F20" width="1.5" height="2.351"/>
						<rect x="640.53" y="127.626" fill-rule="evenodd" clip-rule="evenodd" fill="#231F20" width="1.5" height="2.351"/>
					</g>
				</g>
				<g>
					<g>
						<g>
							<rect x="634.001" y="139.333" fill="none" width="14.998" height="12.667"/>
						</g>
						<rect x="640.53" y="148.713" fill-rule="evenodd" clip-rule="evenodd" fill="#231F20" width="1.5" height="2.351"/>
						<rect x="640.53" y="144.496" fill-rule="evenodd" clip-rule="evenodd" fill="#231F20" width="1.5" height="2.351"/>
						<rect x="640.53" y="140.293" fill-rule="evenodd" clip-rule="evenodd" fill="#231F20" width="1.5" height="2.351"/>
					</g>
				</g>
				<g>
					<g>
						<g>
							<rect x="634.001" y="152" fill="none" width="14.998" height="12.667"/>
						</g>
						<rect x="640.53" y="161.38" fill-rule="evenodd" clip-rule="evenodd" fill="#231F20" width="1.5" height="2.351"/>
						<rect x="640.53" y="157.163" fill-rule="evenodd" clip-rule="evenodd" fill="#231F20" width="1.5" height="2.352"/>
						<rect x="640.53" y="152.96" fill-rule="evenodd" clip-rule="evenodd" fill="#231F20" width="1.5" height="2.351"/>
					</g>
				</g>
				<g>
					<g>
						<g>
							<rect x="634.001" y="164.667" fill="none" width="14.998" height="12.667"/>
						</g>
						<rect x="640.53" y="174.046" fill-rule="evenodd" clip-rule="evenodd" fill="#231F20" width="1.5" height="2.351"/>
						<rect x="640.53" y="169.83" fill-rule="evenodd" clip-rule="evenodd" fill="#231F20" width="1.5" height="2.351"/>
						<rect x="640.53" y="165.626" fill-rule="evenodd" clip-rule="evenodd" fill="#231F20" width="1.5" height="2.351"/>
					</g>
				</g>
				<g>
					<g>
						<g>
							<rect x="634.001" y="177.333" fill="none" width="14.998" height="12.667"/>
						</g>
						<rect x="640.53" y="186.713" fill-rule="evenodd" clip-rule="evenodd" fill="#231F20" width="1.5" height="2.351"/>
						<rect x="640.53" y="182.496" fill-rule="evenodd" clip-rule="evenodd" fill="#231F20" width="1.5" height="2.351"/>
						<rect x="640.53" y="178.293" fill-rule="evenodd" clip-rule="evenodd" fill="#231F20" width="1.5" height="2.351"/>
					</g>
				</g>
			</g>
		</g>
	</g>
	<g>
		<g>
			<g>
				<g>
					<g>
						<g>
							<rect x="710.001" y="114" fill="none" width="14.998" height="12.667"/>
						</g>
						<rect x="716.53" y="123.38" fill-rule="evenodd" clip-rule="evenodd" fill="#231F20" width="1.5" height="2.351"/>
						<rect x="716.53" y="119.163" fill-rule="evenodd" clip-rule="evenodd" fill="#231F20" width="1.5" height="2.352"/>
						<rect x="716.53" y="114.96" fill-rule="evenodd" clip-rule="evenodd" fill="#231F20" width="1.5" height="2.351"/>
					</g>
				</g>
				<g>
					<g>
						<g>
							<rect x="710.001" y="126.667" fill="none" width="14.998" height="12.667"/>
						</g>
						<rect x="716.53" y="136.046" fill-rule="evenodd" clip-rule="evenodd" fill="#231F20" width="1.5" height="2.351"/>
						<rect x="716.53" y="131.83" fill-rule="evenodd" clip-rule="evenodd" fill="#231F20" width="1.5" height="2.351"/>
						<rect x="716.53" y="127.626" fill-rule="evenodd" clip-rule="evenodd" fill="#231F20" width="1.5" height="2.351"/>
					</g>
				</g>
				<g>
					<g>
						<g>
							<rect x="710.001" y="139.333" fill="none" width="14.998" height="12.667"/>
						</g>
						<rect x="716.53" y="148.713" fill-rule="evenodd" clip-rule="evenodd" fill="#231F20" width="1.5" height="2.351"/>
						<rect x="716.53" y="144.496" fill-rule="evenodd" clip-rule="evenodd" fill="#231F20" width="1.5" height="2.351"/>
						<rect x="716.53" y="140.293" fill-rule="evenodd" clip-rule="evenodd" fill="#231F20" width="1.5" height="2.351"/>
					</g>
				</g>
				<g>
					<g>
						<g>
							<rect x="710.001" y="152" fill="none" width="14.998" height="12.667"/>
						</g>
						<rect x="716.53" y="161.38" fill-rule="evenodd" clip-rule="evenodd" fill="#231F20" width="1.5" height="2.351"/>
						<rect x="716.53" y="157.163" fill-rule="evenodd" clip-rule="evenodd" fill="#231F20" width="1.5" height="2.352"/>
						<rect x="716.53" y="152.96" fill-rule="evenodd" clip-rule="evenodd" fill="#231F20" width="1.5" height="2.351"/>
					</g>
				</g>
				<g>
					<g>
						<g>
							<rect x="710.001" y="164.667" fill="none" width="14.998" height="12.667"/>
						</g>
						<rect x="716.53" y="174.046" fill-rule="evenodd" clip-rule="evenodd" fill="#231F20" width="1.5" height="2.351"/>
						<rect x="716.53" y="169.83" fill-rule="evenodd" clip-rule="evenodd" fill="#231F20" width="1.5" height="2.351"/>
						<rect x="716.53" y="165.626" fill-rule="evenodd" clip-rule="evenodd" fill="#231F20" width="1.5" height="2.351"/>
					</g>
				</g>
				<g>
					<g>
						<g>
							<rect x="710.001" y="177.333" fill="none" width="14.998" height="12.667"/>
						</g>
						<rect x="716.53" y="186.713" fill-rule="evenodd" clip-rule="evenodd" fill="#231F20" width="1.5" height="2.351"/>
						<rect x="716.53" y="182.496" fill-rule="evenodd" clip-rule="evenodd" fill="#231F20" width="1.5" height="2.351"/>
						<rect x="716.53" y="178.293" fill-rule="evenodd" clip-rule="evenodd" fill="#231F20" width="1.5" height="2.351"/>
					</g>
				</g>
			</g>
		</g>
	</g>
	<g>
		<g>
			<g>
				<g>
					<g>
						<g>
							<rect x="786.001" y="114" fill="none" width="14.998" height="12.667"/>
						</g>
						<rect x="792.53" y="123.38" fill-rule="evenodd" clip-rule="evenodd" fill="#231F20" width="1.5" height="2.351"/>
						<rect x="792.53" y="119.163" fill-rule="evenodd" clip-rule="evenodd" fill="#231F20" width="1.5" height="2.352"/>
						<rect x="792.53" y="114.96" fill-rule="evenodd" clip-rule="evenodd" fill="#231F20" width="1.5" height="2.351"/>
					</g>
				</g>
				<g>
					<g>
						<g>
							<rect x="786.001" y="126.667" fill="none" width="14.998" height="12.667"/>
						</g>
						<rect x="792.53" y="136.046" fill-rule="evenodd" clip-rule="evenodd" fill="#231F20" width="1.5" height="2.351"/>
						<rect x="792.53" y="131.83" fill-rule="evenodd" clip-rule="evenodd" fill="#231F20" width="1.5" height="2.351"/>
						<rect x="792.53" y="127.626" fill-rule="evenodd" clip-rule="evenodd" fill="#231F20" width="1.5" height="2.351"/>
					</g>
				</g>
				<g>
					<g>
						<g>
							<rect x="786.001" y="139.333" fill="none" width="14.998" height="12.667"/>
						</g>
						<rect x="792.53" y="148.713" fill-rule="evenodd" clip-rule="evenodd" fill="#231F20" width="1.5" height="2.351"/>
						<rect x="792.53" y="144.496" fill-rule="evenodd" clip-rule="evenodd" fill="#231F20" width="1.5" height="2.351"/>
						<rect x="792.53" y="140.293" fill-rule="evenodd" clip-rule="evenodd" fill="#231F20" width="1.5" height="2.351"/>
					</g>
				</g>
				<g>
					<g>
						<g>
							<rect x="786.001" y="152" fill="none" width="14.998" height="12.667"/>
						</g>
						<rect x="792.53" y="161.38" fill-rule="evenodd" clip-rule="evenodd" fill="#231F20" width="1.5" height="2.351"/>
						<rect x="792.53" y="157.163" fill-rule="evenodd" clip-rule="evenodd" fill="#231F20" width="1.5" height="2.352"/>
						<rect x="792.53" y="152.96" fill-rule="evenodd" clip-rule="evenodd" fill="#231F20" width="1.5" height="2.351"/>
					</g>
				</g>
				<g>
					<g>
						<g>
							<rect x="786.001" y="164.667" fill="none" width="14.998" height="12.667"/>
						</g>
						<rect x="792.53" y="174.046" fill-rule="evenodd" clip-rule="evenodd" fill="#231F20" width="1.5" height="2.351"/>
						<rect x="792.53" y="169.83" fill-rule="evenodd" clip-rule="evenodd" fill="#231F20" width="1.5" height="2.351"/>
						<rect x="792.53" y="165.626" fill-rule="evenodd" clip-rule="evenodd" fill="#231F20" width="1.5" height="2.351"/>
					</g>
				</g>
				<g>
					<g>
						<g>
							<rect x="786.001" y="177.333" fill="none" width="14.998" height="12.667"/>
						</g>
						<rect x="792.53" y="186.713" fill-rule="evenodd" clip-rule="evenodd" fill="#231F20" width="1.5" height="2.351"/>
						<rect x="792.53" y="182.496" fill-rule="evenodd" clip-rule="evenodd" fill="#231F20" width="1.5" height="2.351"/>
						<rect x="792.53" y="178.293" fill-rule="evenodd" clip-rule="evenodd" fill="#231F20" width="1.5" height="2.351"/>
					</g>
				</g>
			</g>
		</g>
	</g>
	<g>
		<g>
			<g>
				<g>
					<g>
						<g>
							<rect x="862.001" y="114" fill="none" width="14.998" height="12.667"/>
						</g>
						<rect x="868.53" y="123.38" fill-rule="evenodd" clip-rule="evenodd" fill="#231F20" width="1.5" height="2.351"/>
						<rect x="868.53" y="119.163" fill-rule="evenodd" clip-rule="evenodd" fill="#231F20" width="1.5" height="2.352"/>
						<rect x="868.53" y="114.96" fill-rule="evenodd" clip-rule="evenodd" fill="#231F20" width="1.5" height="2.351"/>
					</g>
				</g>
				<g>
					<g>
						<g>
							<rect x="862.001" y="126.667" fill="none" width="14.998" height="12.667"/>
						</g>
						<rect x="868.53" y="136.046" fill-rule="evenodd" clip-rule="evenodd" fill="#231F20" width="1.5" height="2.351"/>
						<rect x="868.53" y="131.83" fill-rule="evenodd" clip-rule="evenodd" fill="#231F20" width="1.5" height="2.351"/>
						<rect x="868.53" y="127.626" fill-rule="evenodd" clip-rule="evenodd" fill="#231F20" width="1.5" height="2.351"/>
					</g>
				</g>
				<g>
					<g>
						<g>
							<rect x="862.001" y="139.333" fill="none" width="14.998" height="12.667"/>
						</g>
						<rect x="868.53" y="148.713" fill-rule="evenodd" clip-rule="evenodd" fill="#231F20" width="1.5" height="2.351"/>
						<rect x="868.53" y="144.496" fill-rule="evenodd" clip-rule="evenodd" fill="#231F20" width="1.5" height="2.351"/>
						<rect x="868.53" y="140.293" fill-rule="evenodd" clip-rule="evenodd" fill="#231F20" width="1.5" height="2.351"/>
					</g>
				</g>
				<g>
					<g>
						<g>
							<rect x="862.001" y="152" fill="none" width="14.998" height="12.667"/>
						</g>
						<rect x="868.53" y="161.38" fill-rule="evenodd" clip-rule="evenodd" fill="#231F20" width="1.5" height="2.351"/>
						<rect x="868.53" y="157.163" fill-rule="evenodd" clip-rule="evenodd" fill="#231F20" width="1.5" height="2.352"/>
						<rect x="868.53" y="152.96" fill-rule="evenodd" clip-rule="evenodd" fill="#231F20" width="1.5" height="2.351"/>
					</g>
				</g>
				<g>
					<g>
						<g>
							<rect x="862.001" y="164.667" fill="none" width="14.998" height="12.667"/>
						</g>
						<rect x="868.53" y="174.046" fill-rule="evenodd" clip-rule="evenodd" fill="#231F20" width="1.5" height="2.351"/>
						<rect x="868.53" y="169.83" fill-rule="evenodd" clip-rule="evenodd" fill="#231F20" width="1.5" height="2.351"/>
						<rect x="868.53" y="165.626" fill-rule="evenodd" clip-rule="evenodd" fill="#231F20" width="1.5" height="2.351"/>
					</g>
				</g>
				<g>
					<g>
						<g>
							<rect x="862.001" y="177.333" fill="none" width="14.998" height="12.667"/>
						</g>
						<rect x="868.53" y="186.713" fill-rule="evenodd" clip-rule="evenodd" fill="#231F20" width="1.5" height="2.351"/>
						<rect x="868.53" y="182.496" fill-rule="evenodd" clip-rule="evenodd" fill="#231F20" width="1.5" height="2.351"/>
						<rect x="868.53" y="178.293" fill-rule="evenodd" clip-rule="evenodd" fill="#231F20" width="1.5" height="2.351"/>
					</g>
				</g>
			</g>
		</g>
	</g>
	<g>
		<g>
			<g>
				<g>
					<g>
						<g>
							<rect x="938.001" y="114" fill="none" width="14.998" height="12.667"/>
						</g>
						<rect x="944.53" y="123.38" fill-rule="evenodd" clip-rule="evenodd" fill="#231F20" width="1.5" height="2.351"/>
						<rect x="944.531" y="119.163" fill-rule="evenodd" clip-rule="evenodd" fill="#231F20" width="1.5" height="2.352"/>
						<rect x="944.53" y="114.96" fill-rule="evenodd" clip-rule="evenodd" fill="#231F20" width="1.5" height="2.351"/>
					</g>
				</g>
				<g>
					<g>
						<g>
							<rect x="938.001" y="126.667" fill="none" width="14.998" height="12.667"/>
						</g>
						<rect x="944.53" y="136.046" fill-rule="evenodd" clip-rule="evenodd" fill="#231F20" width="1.5" height="2.351"/>
						<rect x="944.53" y="131.83" fill-rule="evenodd" clip-rule="evenodd" fill="#231F20" width="1.5" height="2.351"/>
						<rect x="944.53" y="127.626" fill-rule="evenodd" clip-rule="evenodd" fill="#231F20" width="1.5" height="2.351"/>
					</g>
				</g>
				<g>
					<g>
						<g>
							<rect x="938.001" y="139.333" fill="none" width="14.998" height="12.667"/>
						</g>
						<rect x="944.53" y="148.713" fill-rule="evenodd" clip-rule="evenodd" fill="#231F20" width="1.5" height="2.351"/>
						<rect x="944.53" y="144.496" fill-rule="evenodd" clip-rule="evenodd" fill="#231F20" width="1.5" height="2.351"/>
						<rect x="944.53" y="140.293" fill-rule="evenodd" clip-rule="evenodd" fill="#231F20" width="1.5" height="2.351"/>
					</g>
				</g>
				<g>
					<g>
						<g>
							<rect x="938.001" y="152" fill="none" width="14.998" height="12.667"/>
						</g>
						<rect x="944.53" y="161.38" fill-rule="evenodd" clip-rule="evenodd" fill="#231F20" width="1.5" height="2.351"/>
						<rect x="944.53" y="157.163" fill-rule="evenodd" clip-rule="evenodd" fill="#231F20" width="1.5" height="2.352"/>
						<rect x="944.53" y="152.96" fill-rule="evenodd" clip-rule="evenodd" fill="#231F20" width="1.5" height="2.351"/>
					</g>
				</g>
				<g>
					<g>
						<g>
							<rect x="938.001" y="164.667" fill="none" width="14.998" height="12.667"/>
						</g>
						<rect x="944.53" y="174.046" fill-rule="evenodd" clip-rule="evenodd" fill="#231F20" width="1.5" height="2.351"/>
						<rect x="944.53" y="169.83" fill-rule="evenodd" clip-rule="evenodd" fill="#231F20" width="1.5" height="2.351"/>
						<rect x="944.53" y="165.626" fill-rule="evenodd" clip-rule="evenodd" fill="#231F20" width="1.5" height="2.351"/>
					</g>
				</g>
				<g>
					<g>
						<g>
							<rect x="938.001" y="177.333" fill="none" width="14.998" height="12.667"/>
						</g>
						<rect x="944.53" y="186.713" fill-rule="evenodd" clip-rule="evenodd" fill="#231F20" width="1.5" height="2.351"/>
						<rect x="944.53" y="182.496" fill-rule="evenodd" clip-rule="evenodd" fill="#231F20" width="1.5" height="2.351"/>
						<rect x="944.53" y="178.293" fill-rule="evenodd" clip-rule="evenodd" fill="#231F20" width="1.5" height="2.351"/>
					</g>
				</g>
			</g>
		</g>
	</g>
	<g>
		<g>
			<g>
				<g>
					<g>
						<g>
							<rect x="1014.001" y="114" fill="none" width="14.998" height="12.667"/>
						</g>
						<rect x="1020.53" y="123.38" fill-rule="evenodd" clip-rule="evenodd" fill="#231F20" width="1.5" height="2.351"/>
						<rect x="1020.531" y="119.163" fill-rule="evenodd" clip-rule="evenodd" fill="#231F20" width="1.5" height="2.352"/>
						<rect x="1020.53" y="114.96" fill-rule="evenodd" clip-rule="evenodd" fill="#231F20" width="1.5" height="2.351"/>
					</g>
				</g>
				<g>
					<g>
						<g>
							<rect x="1014.001" y="126.667" fill="none" width="14.998" height="12.667"/>
						</g>
						<rect x="1020.53" y="136.046" fill-rule="evenodd" clip-rule="evenodd" fill="#231F20" width="1.5" height="2.351"/>
						<rect x="1020.53" y="131.83" fill-rule="evenodd" clip-rule="evenodd" fill="#231F20" width="1.5" height="2.351"/>
						<rect x="1020.53" y="127.626" fill-rule="evenodd" clip-rule="evenodd" fill="#231F20" width="1.5" height="2.351"/>
					</g>
				</g>
				<g>
					<g>
						<g>
							<rect x="1014.001" y="139.333" fill="none" width="14.998" height="12.667"/>
						</g>
						<rect x="1020.53" y="148.713" fill-rule="evenodd" clip-rule="evenodd" fill="#231F20" width="1.5" height="2.351"/>
						<rect x="1020.53" y="144.496" fill-rule="evenodd" clip-rule="evenodd" fill="#231F20" width="1.5" height="2.351"/>
						<rect x="1020.53" y="140.293" fill-rule="evenodd" clip-rule="evenodd" fill="#231F20" width="1.5" height="2.351"/>
					</g>
				</g>
				<g>
					<g>
						<g>
							<rect x="1014.001" y="152" fill="none" width="14.998" height="12.667"/>
						</g>
						<rect x="1020.53" y="161.38" fill-rule="evenodd" clip-rule="evenodd" fill="#231F20" width="1.5" height="2.351"/>
						<rect x="1020.53" y="157.163" fill-rule="evenodd" clip-rule="evenodd" fill="#231F20" width="1.5" height="2.352"/>
						<rect x="1020.53" y="152.96" fill-rule="evenodd" clip-rule="evenodd" fill="#231F20" width="1.5" height="2.351"/>
					</g>
				</g>
				<g>
					<g>
						<g>
							<rect x="1014.001" y="164.667" fill="none" width="14.998" height="12.667"/>
						</g>
						<rect x="1020.53" y="174.046" fill-rule="evenodd" clip-rule="evenodd" fill="#231F20" width="1.5" height="2.351"/>
						<rect x="1020.53" y="169.83" fill-rule="evenodd" clip-rule="evenodd" fill="#231F20" width="1.5" height="2.351"/>
						<rect x="1020.53" y="165.626" fill-rule="evenodd" clip-rule="evenodd" fill="#231F20" width="1.5" height="2.351"/>
					</g>
				</g>
				<g>
					<g>
						<g>
							<rect x="1014.001" y="177.333" fill="none" width="14.998" height="12.667"/>
						</g>
						<rect x="1020.53" y="186.713" fill-rule="evenodd" clip-rule="evenodd" fill="#231F20" width="1.5" height="2.351"/>
						<rect x="1020.53" y="182.496" fill-rule="evenodd" clip-rule="evenodd" fill="#231F20" width="1.5" height="2.351"/>
						<rect x="1020.53" y="178.293" fill-rule="evenodd" clip-rule="evenodd" fill="#231F20" width="1.5" height="2.351"/>
					</g>
				</g>
			</g>
		</g>
	</g>
	<g>
		<g>
			<g>
				<g>
					<g>
						<g>
							<rect x="1080.001" y="114" fill="none" width="14.998" height="12.667"/>
						</g>
						<rect x="1086.53" y="123.38" fill-rule="evenodd" clip-rule="evenodd" fill="#231F20" width="1.5" height="2.351"/>
						<rect x="1086.53" y="119.163" fill-rule="evenodd" clip-rule="evenodd" fill="#231F20" width="1.5" height="2.352"/>
						<rect x="1086.53" y="114.96" fill-rule="evenodd" clip-rule="evenodd" fill="#231F20" width="1.5" height="2.351"/>
					</g>
				</g>
				<g>
					<g>
						<g>
							<rect x="1080.001" y="126.667" fill="none" width="14.998" height="12.667"/>
						</g>
						<rect x="1086.53" y="136.046" fill-rule="evenodd" clip-rule="evenodd" fill="#231F20" width="1.5" height="2.351"/>
						<rect x="1086.53" y="131.83" fill-rule="evenodd" clip-rule="evenodd" fill="#231F20" width="1.5" height="2.351"/>
						<rect x="1086.53" y="127.626" fill-rule="evenodd" clip-rule="evenodd" fill="#231F20" width="1.5" height="2.351"/>
					</g>
				</g>
				<g>
					<g>
						<g>
							<rect x="1080.001" y="139.333" fill="none" width="14.998" height="12.667"/>
						</g>
						<rect x="1086.53" y="148.713" fill-rule="evenodd" clip-rule="evenodd" fill="#231F20" width="1.5" height="2.351"/>
						<rect x="1086.53" y="144.496" fill-rule="evenodd" clip-rule="evenodd" fill="#231F20" width="1.5" height="2.351"/>
						<rect x="1086.53" y="140.293" fill-rule="evenodd" clip-rule="evenodd" fill="#231F20" width="1.5" height="2.351"/>
					</g>
				</g>
				<g>
					<g>
						<g>
							<rect x="1080.001" y="152" fill="none" width="14.998" height="12.667"/>
						</g>
						<rect x="1086.53" y="161.38" fill-rule="evenodd" clip-rule="evenodd" fill="#231F20" width="1.5" height="2.351"/>
						<rect x="1086.53" y="157.163" fill-rule="evenodd" clip-rule="evenodd" fill="#231F20" width="1.5" height="2.352"/>
						<rect x="1086.53" y="152.96" fill-rule="evenodd" clip-rule="evenodd" fill="#231F20" width="1.5" height="2.351"/>
					</g>
				</g>
				<g>
					<g>
						<g>
							<rect x="1080.001" y="164.667" fill="none" width="14.998" height="12.667"/>
						</g>
						<rect x="1086.53" y="174.046" fill-rule="evenodd" clip-rule="evenodd" fill="#231F20" width="1.5" height="2.351"/>
						<rect x="1086.53" y="169.83" fill-rule="evenodd" clip-rule="evenodd" fill="#231F20" width="1.5" height="2.351"/>
						<rect x="1086.53" y="165.626" fill-rule="evenodd" clip-rule="evenodd" fill="#231F20" width="1.5" height="2.351"/>
					</g>
				</g>
				<g>
					<g>
						<g>
							<rect x="1080.001" y="177.333" fill="none" width="14.998" height="12.667"/>
						</g>
						<rect x="1086.53" y="186.713" fill-rule="evenodd" clip-rule="evenodd" fill="#231F20" width="1.5" height="2.351"/>
						<rect x="1086.53" y="182.496" fill-rule="evenodd" clip-rule="evenodd" fill="#231F20" width="1.5" height="2.351"/>
						<rect x="1086.53" y="178.293" fill-rule="evenodd" clip-rule="evenodd" fill="#231F20" width="1.5" height="2.351"/>
					</g>
				</g>
			</g>
		</g>
	</g>
</g>
<g id="Layer_6">
</g>
</svg>
