<?xml version="1.0" encoding="utf-8"?>
<!-- Generator: Adobe Illustrator 16.0.0, SVG Export Plug-In . SVG Version: 6.00 Build 0)  -->
<!DOCTYPE svg PUBLIC "-//W3C//DTD SVG 1.1//EN" "http://www.w3.org/Graphics/SVG/1.1/DTD/svg11.dtd">
<svg version="1.1" xmlns="http://www.w3.org/2000/svg" xmlns:xlink="http://www.w3.org/1999/xlink" x="0px" y="0px" width="1152px"
	 height="300px" viewBox="0 0 1152 300" enable-background="new 0 0 1152 300" xml:space="preserve">
<pattern  x="-5860" width="72" height="72" patternUnits="userSpaceOnUse" id="Grid_1_pica_Lines" viewBox="72.25 -144.25 72 72" overflow="visible">
	<g>
		<polygon fill="none" points="72.25,-144.25 144.25,-144.25 144.25,-72.25 72.25,-72.25 		"/>
		<g>
			<line fill="none" stroke="#231F20" stroke-width="0.3" x1="78.25" y1="-72.5" x2="78.25" y2="0"/>
			<line fill="none" stroke="#231F20" stroke-width="0.3" x1="102.25" y1="-72.5" x2="102.25" y2="0"/>
			<line fill="none" stroke="#231F20" stroke-width="0.3" x1="126.25" y1="-72.5" x2="126.25" y2="0"/>
			<line fill="none" stroke="#231F20" stroke-width="0.3" x1="90.25" y1="-72.5" x2="90.25" y2="0"/>
			<line fill="none" stroke="#231F20" stroke-width="0.3" x1="114.25" y1="-72.5" x2="114.25" y2="0"/>
			<line fill="none" stroke="#231F20" stroke-width="0.3" x1="138.25" y1="-72.5" x2="138.25" y2="0"/>
		</g>
		<g>
			<line fill="none" stroke="#231F20" stroke-width="0.3" x1="144" y1="-78.25" x2="216.5" y2="-78.25"/>
			<line fill="none" stroke="#231F20" stroke-width="0.3" x1="144" y1="-102.25" x2="216.5" y2="-102.25"/>
			<line fill="none" stroke="#231F20" stroke-width="0.3" x1="144" y1="-126.25" x2="216.5" y2="-126.25"/>
			<line fill="none" stroke="#231F20" stroke-width="0.3" x1="144" y1="-90.25" x2="216.5" y2="-90.25"/>
			<line fill="none" stroke="#231F20" stroke-width="0.3" x1="144" y1="-114.25" x2="216.5" y2="-114.25"/>
			<line fill="none" stroke="#231F20" stroke-width="0.3" x1="144" y1="-138.25" x2="216.5" y2="-138.25"/>
		</g>
		<g>
			<line fill="none" stroke="#231F20" stroke-width="0.3" x1="78.25" y1="-144.5" x2="78.25" y2="-72"/>
			<line fill="none" stroke="#231F20" stroke-width="0.3" x1="102.25" y1="-144.5" x2="102.25" y2="-72"/>
			<line fill="none" stroke="#231F20" stroke-width="0.3" x1="126.25" y1="-144.5" x2="126.25" y2="-72"/>
			<line fill="none" stroke="#231F20" stroke-width="0.3" x1="72" y1="-78.25" x2="144.5" y2="-78.25"/>
			<line fill="none" stroke="#231F20" stroke-width="0.3" x1="72" y1="-102.25" x2="144.5" y2="-102.25"/>
			<line fill="none" stroke="#231F20" stroke-width="0.3" x1="72" y1="-126.25" x2="144.5" y2="-126.25"/>
			<line fill="none" stroke="#231F20" stroke-width="0.3" x1="72" y1="-90.25" x2="144.5" y2="-90.25"/>
			<line fill="none" stroke="#231F20" stroke-width="0.3" x1="72" y1="-114.25" x2="144.5" y2="-114.25"/>
			<line fill="none" stroke="#231F20" stroke-width="0.3" x1="72" y1="-138.25" x2="144.5" y2="-138.25"/>
			<line fill="none" stroke="#231F20" stroke-width="0.3" x1="90.25" y1="-144.5" x2="90.25" y2="-72"/>
			<line fill="none" stroke="#231F20" stroke-width="0.3" x1="114.25" y1="-144.5" x2="114.25" y2="-72"/>
			<line fill="none" stroke="#231F20" stroke-width="0.3" x1="138.25" y1="-144.5" x2="138.25" y2="-72"/>
		</g>
		<g>
			<line fill="none" stroke="#231F20" stroke-width="0.3" x1="0" y1="-78.25" x2="72.5" y2="-78.25"/>
			<line fill="none" stroke="#231F20" stroke-width="0.3" x1="0" y1="-102.25" x2="72.5" y2="-102.25"/>
			<line fill="none" stroke="#231F20" stroke-width="0.3" x1="0" y1="-126.25" x2="72.5" y2="-126.25"/>
			<line fill="none" stroke="#231F20" stroke-width="0.3" x1="0" y1="-90.25" x2="72.5" y2="-90.25"/>
			<line fill="none" stroke="#231F20" stroke-width="0.3" x1="0" y1="-114.25" x2="72.5" y2="-114.25"/>
			<line fill="none" stroke="#231F20" stroke-width="0.3" x1="0" y1="-138.25" x2="72.5" y2="-138.25"/>
		</g>
		<g>
			<line fill="none" stroke="#231F20" stroke-width="0.3" x1="78.25" y1="-216.5" x2="78.25" y2="-144"/>
			<line fill="none" stroke="#231F20" stroke-width="0.3" x1="102.25" y1="-216.5" x2="102.25" y2="-144"/>
			<line fill="none" stroke="#231F20" stroke-width="0.3" x1="126.25" y1="-216.5" x2="126.25" y2="-144"/>
			<line fill="none" stroke="#231F20" stroke-width="0.3" x1="90.25" y1="-216.5" x2="90.25" y2="-144"/>
			<line fill="none" stroke="#231F20" stroke-width="0.3" x1="114.25" y1="-216.5" x2="114.25" y2="-144"/>
			<line fill="none" stroke="#231F20" stroke-width="0.3" x1="138.25" y1="-216.5" x2="138.25" y2="-144"/>
		</g>
	</g>
</pattern>
<g id="Layer_1">
	<rect x="10" y="33" fill="#0D0D0D" width="1098" height="236"/>
</g>
<g id="Layer_2">
</g>
<g id="Layer_3" display="none">
</g>
<g id="Layer_4">
</g>
<g id="Layer_5">
	<rect x="22.5" y="37.5" fill="#0D0D0D" stroke="#BDCCD4" stroke-miterlimit="10" width="226" height="226"/>
	<pattern  id="SVGID_1_" xlink:href="#Grid_1_pica_Lines" patternTransform="matrix(1 0 0 1 49 -45)">
	</pattern>
	<rect x="59.5" y="75.5" fill="url(#SVGID_1_)" stroke="#F2F2F2" stroke-miterlimit="10" width="151" height="151"/>
	<g>
		<circle fill="#268C16" cx="69.362" cy="85.344" r="4.208"/>
		<circle fill="#268C16" cx="80.28" cy="85.344" r="4.209"/>
		<circle fill="#268C16" cx="91.199" cy="85.344" r="4.208"/>
		<circle fill="#268C16" cx="102.119" cy="85.344" r="4.208"/>
		<circle fill="#268C16" cx="113.038" cy="85.344" r="4.208"/>
		<circle fill="#268C16" cx="124.362" cy="85.344" r="4.208"/>
		<circle fill="#268C16" cx="135.28" cy="85.344" r="4.209"/>
		<circle fill="#268C16" cx="146.199" cy="85.344" r="4.208"/>
		<circle fill="#268C16" cx="157.119" cy="85.344" r="4.208"/>
		<circle fill="#268C16" cx="168.038" cy="85.344" r="4.208"/>
		<circle fill="#268C16" cx="178.28" cy="85.344" r="4.209"/>
		<circle fill="#268C16" cx="189.199" cy="85.344" r="4.208"/>
		<circle fill="#268C16" cx="200.119" cy="85.344" r="4.208"/>
	</g>
	<g>
		<circle fill="#268C16" cx="69.362" cy="96.344" r="4.208"/>
		<circle fill="#268C16" cx="80.28" cy="96.344" r="4.209"/>
		<circle fill="#268C16" cx="91.199" cy="96.344" r="4.208"/>
		<circle fill="#268C16" cx="102.119" cy="96.344" r="4.208"/>
		<circle fill="#268C16" cx="113.038" cy="96.344" r="4.208"/>
		<circle fill="#268C16" cx="124.362" cy="96.344" r="4.208"/>
		<circle fill="#268C16" cx="135.28" cy="96.344" r="4.209"/>
		<circle fill="#268C16" cx="146.199" cy="96.344" r="4.208"/>
		<circle fill="#268C16" cx="157.119" cy="96.344" r="4.208"/>
		<circle fill="#268C16" cx="168.038" cy="96.344" r="4.208"/>
		<circle fill="#268C16" cx="178.28" cy="96.344" r="4.209"/>
		<circle fill="#268C16" cx="189.199" cy="96.344" r="4.208"/>
		<circle fill="#268C16" cx="200.119" cy="96.344" r="4.208"/>
	</g>
	<g>
		<circle fill="#268C16" cx="69.362" cy="107.344" r="4.208"/>
		<circle fill="#268C16" cx="80.28" cy="107.344" r="4.209"/>
		<circle fill="#268C16" cx="91.199" cy="107.344" r="4.208"/>
		<circle fill="#268C16" cx="102.119" cy="107.344" r="4.208"/>
		<circle fill="#268C16" cx="113.038" cy="107.344" r="4.208"/>
		<circle fill="#268C16" cx="124.362" cy="107.344" r="4.208"/>
		<circle fill="#268C16" cx="135.28" cy="107.344" r="4.209"/>
		<circle fill="#268C16" cx="146.199" cy="107.344" r="4.208"/>
		<circle fill="#268C16" cx="157.119" cy="107.344" r="4.208"/>
		<circle fill="#268C16" cx="168.038" cy="107.344" r="4.208"/>
		<circle fill="#268C16" cx="178.28" cy="107.344" r="4.209"/>
		<circle fill="#268C16" cx="189.199" cy="107.344" r="4.208"/>
		<circle fill="#268C16" cx="200.119" cy="107.344" r="4.208"/>
	</g>
	<g>
		<circle fill="#268C16" cx="69.362" cy="118.344" r="4.208"/>
		<circle fill="#268C16" cx="80.28" cy="118.344" r="4.209"/>
		<circle fill="#268C16" cx="91.199" cy="118.344" r="4.208"/>
		<circle fill="#268C16" cx="102.119" cy="118.344" r="4.208"/>
		<circle fill="#268C16" cx="113.038" cy="118.344" r="4.208"/>
		<circle fill="#268C16" cx="124.362" cy="118.344" r="4.208"/>
		<circle fill="#268C16" cx="135.28" cy="118.344" r="4.209"/>
		<circle fill="#268C16" cx="146.199" cy="118.344" r="4.208"/>
		<circle fill="#268C16" cx="157.119" cy="118.344" r="4.208"/>
		<circle fill="#268C16" cx="168.038" cy="118.344" r="4.208"/>
		<circle fill="#268C16" cx="178.28" cy="118.344" r="4.209"/>
		<circle fill="#268C16" cx="189.199" cy="118.344" r="4.208"/>
		<circle fill="#268C16" cx="200.119" cy="118.344" r="4.208"/>
	</g>
	<g>
		<circle fill="#268C16" cx="69.362" cy="129.344" r="4.208"/>
		<circle fill="#268C16" cx="80.28" cy="129.344" r="4.209"/>
		<circle fill="#268C16" cx="91.199" cy="129.344" r="4.208"/>
		<circle fill="#268C16" cx="102.119" cy="129.344" r="4.208"/>
		<circle fill="#268C16" cx="113.038" cy="129.344" r="4.208"/>
		<circle fill="#268C16" cx="124.362" cy="129.344" r="4.208"/>
		<circle fill="#268C16" cx="135.28" cy="129.344" r="4.209"/>
		<circle fill="#268C16" cx="146.199" cy="129.344" r="4.208"/>
		<circle fill="#268C16" cx="157.119" cy="129.344" r="4.208"/>
		<circle fill="#268C16" cx="168.038" cy="129.344" r="4.208"/>
		<circle fill="#268C16" cx="178.28" cy="129.344" r="4.209"/>
		<circle fill="#268C16" cx="189.199" cy="129.344" r="4.208"/>
		<circle fill="#268C16" cx="200.119" cy="129.344" r="4.208"/>
	</g>
	<g>
		<circle fill="#268C16" cx="69.362" cy="140.344" r="4.208"/>
		<circle fill="#268C16" cx="80.28" cy="140.344" r="4.209"/>
		<circle fill="#268C16" cx="91.199" cy="140.344" r="4.208"/>
		<circle fill="#268C16" cx="102.119" cy="140.344" r="4.208"/>
		<circle fill="#268C16" cx="113.038" cy="140.344" r="4.208"/>
		<circle fill="#268C16" cx="124.362" cy="140.344" r="4.208"/>
		<circle fill="#268C16" cx="135.28" cy="140.344" r="4.209"/>
		<circle fill="#268C16" cx="146.199" cy="140.344" r="4.208"/>
		<circle fill="#268C16" cx="157.119" cy="140.344" r="4.208"/>
		<circle fill="#268C16" cx="168.038" cy="140.344" r="4.208"/>
		<circle fill="#268C16" cx="178.28" cy="140.344" r="4.209"/>
		<circle fill="#268C16" cx="189.199" cy="140.344" r="4.208"/>
		<circle fill="#268C16" cx="200.119" cy="140.344" r="4.208"/>
	</g>
	<g>
		<circle fill="#268C16" cx="69.362" cy="151.344" r="4.208"/>
		<circle fill="#268C16" cx="80.28" cy="151.344" r="4.209"/>
		<circle fill="#268C16" cx="91.199" cy="151.344" r="4.208"/>
		<circle fill="#268C16" cx="102.119" cy="151.344" r="4.208"/>
		<circle fill="#268C16" cx="113.038" cy="151.344" r="4.208"/>
		<circle fill="#268C16" cx="124.362" cy="151.344" r="4.208"/>
		<circle fill="#268C16" cx="135.28" cy="151.344" r="4.209"/>
	</g>
	<g>
		<rect x="270" y="114" fill="none" width="150" height="76"/>
	</g>
	<g>
		<g>
			<circle fill="#268C16" cx="278.602" cy="139.344" r="4.208"/>
			<circle fill="#268C16" cx="289.521" cy="139.344" r="4.209"/>
			<circle fill="#268C16" cx="300.439" cy="139.344" r="4.208"/>
			<circle fill="#268C16" cx="311.439" cy="139.344" r="4.208"/>
		</g>
		<line fill="none" stroke="#268C16" stroke-miterlimit="10" x1="278.5" y1="139" x2="278.5" y2="152"/>
		<line fill="none" stroke="#268C16" stroke-miterlimit="10" x1="289.5" y1="139" x2="289.5" y2="152"/>
		<line fill="none" stroke="#268C16" stroke-miterlimit="10" x1="300.5" y1="139" x2="300.5" y2="152"/>
		<line fill="none" stroke="#268C16" stroke-miterlimit="10" x1="311.5" y1="139" x2="311.5" y2="152"/>
		<circle fill="#268C16" cx="322.602" cy="139.344" r="4.208"/>
		<circle fill="#268C16" cx="333.521" cy="139.344" r="4.209"/>
		<circle fill="#268C16" cx="344.439" cy="139.344" r="4.208"/>
		<line fill="none" stroke="#268C16" stroke-miterlimit="10" x1="322.5" y1="139" x2="322.5" y2="152"/>
		<line fill="none" stroke="#268C16" stroke-miterlimit="10" x1="333.5" y1="139" x2="333.5" y2="152"/>
		<line fill="none" stroke="#268C16" stroke-miterlimit="10" x1="344.5" y1="139" x2="344.5" y2="152"/>
	</g>
	<g>
		<rect x="420" y="114" fill="none" width="150" height="76"/>
	</g>
	<g>
		<g>
			<circle fill="#268C16" cx="428.602" cy="139.344" r="4.208"/>
			<circle fill="#268C16" cx="439.521" cy="139.344" r="4.209"/>
			<circle fill="#268C16" cx="450.439" cy="139.344" r="4.208"/>
			<circle fill="#268C16" cx="461.439" cy="139.344" r="4.208"/>
		</g>
		<line fill="none" stroke="#268C16" stroke-miterlimit="10" x1="428.5" y1="139" x2="428.5" y2="152"/>
		<line fill="none" stroke="#268C16" stroke-miterlimit="10" x1="439.5" y1="139" x2="439.5" y2="152"/>
		<line fill="none" stroke="#268C16" stroke-miterlimit="10" x1="450.5" y1="139" x2="450.5" y2="152"/>
		<line fill="none" stroke="#268C16" stroke-miterlimit="10" x1="461.5" y1="139" x2="461.5" y2="152"/>
		<circle fill="#268C16" cx="472.602" cy="139.344" r="4.208"/>
		<circle fill="#268C16" cx="483.521" cy="139.344" r="4.209"/>
		<circle fill="#268C16" cx="494.439" cy="139.344" r="4.208"/>
		<line fill="none" stroke="#268C16" stroke-miterlimit="10" x1="472.5" y1="139" x2="472.5" y2="152"/>
		<line fill="none" stroke="#268C16" stroke-miterlimit="10" x1="483.5" y1="139" x2="483.5" y2="152"/>
		<line fill="none" stroke="#268C16" stroke-miterlimit="10" x1="494.5" y1="139" x2="494.5" y2="152"/>
	</g>
	<g>
		<rect x="570" y="114" fill="none" width="150" height="76"/>
	</g>
	<g>
		<g>
			<circle fill="#268C16" cx="578.602" cy="139.344" r="4.208"/>
			<circle fill="#268C16" cx="589.521" cy="139.344" r="4.209"/>
			<circle fill="#268C16" cx="600.439" cy="139.344" r="4.208"/>
			<circle fill="#268C16" cx="611.439" cy="139.344" r="4.208"/>
		</g>
		<line fill="none" stroke="#268C16" stroke-miterlimit="10" x1="578.5" y1="139" x2="578.5" y2="152"/>
		<line fill="none" stroke="#268C16" stroke-miterlimit="10" x1="589.5" y1="139" x2="589.5" y2="152"/>
		<line fill="none" stroke="#268C16" stroke-miterlimit="10" x1="600.5" y1="139" x2="600.5" y2="152"/>
		<line fill="none" stroke="#268C16" stroke-miterlimit="10" x1="611.5" y1="139" x2="611.5" y2="152"/>
		<circle fill="#268C16" cx="622.602" cy="139.344" r="4.208"/>
		<circle fill="#268C16" cx="633.521" cy="139.344" r="4.209"/>
		<circle fill="#268C16" cx="644.439" cy="139.344" r="4.208"/>
		<line fill="none" stroke="#268C16" stroke-miterlimit="10" x1="622.5" y1="139" x2="622.5" y2="152"/>
		<line fill="none" stroke="#268C16" stroke-miterlimit="10" x1="633.5" y1="139" x2="633.5" y2="152"/>
		<line fill="none" stroke="#268C16" stroke-miterlimit="10" x1="644.5" y1="139" x2="644.5" y2="152"/>
	</g>
	<g>
		<rect x="720" y="114" fill="none" width="150" height="76"/>
	</g>
	<g>
		<g>
			<circle fill="#268C16" cx="728.602" cy="139.344" r="4.208"/>
			<circle fill="#268C16" cx="739.521" cy="139.344" r="4.209"/>
			<circle fill="#268C16" cx="750.439" cy="139.344" r="4.208"/>
			<circle fill="#268C16" cx="761.439" cy="139.344" r="4.208"/>
		</g>
		<line fill="none" stroke="#268C16" stroke-miterlimit="10" x1="728.5" y1="139" x2="728.5" y2="152"/>
		<line fill="none" stroke="#268C16" stroke-miterlimit="10" x1="739.5" y1="139" x2="739.5" y2="152"/>
		<line fill="none" stroke="#268C16" stroke-miterlimit="10" x1="750.5" y1="139" x2="750.5" y2="152"/>
		<line fill="none" stroke="#268C16" stroke-miterlimit="10" x1="761.5" y1="139" x2="761.5" y2="152"/>
		<circle fill="#268C16" cx="772.602" cy="139.344" r="4.208"/>
		<circle fill="#268C16" cx="783.521" cy="139.344" r="4.209"/>
		<circle fill="#268C16" cx="794.439" cy="139.344" r="4.208"/>
		<line fill="none" stroke="#268C16" stroke-miterlimit="10" x1="772.5" y1="139" x2="772.5" y2="152"/>
		<line fill="none" stroke="#268C16" stroke-miterlimit="10" x1="783.5" y1="139" x2="783.5" y2="152"/>
		<line fill="none" stroke="#268C16" stroke-miterlimit="10" x1="794.5" y1="139" x2="794.5" y2="152"/>
	</g>
	<g>
		<rect x="870" y="114" fill="none" width="150" height="76"/>
	</g>
	<g>
		<g>
			<circle fill="#268C16" cx="878.602" cy="139.344" r="4.208"/>
			<circle fill="#268C16" cx="889.521" cy="139.344" r="4.209"/>
			<circle fill="#268C16" cx="900.439" cy="139.344" r="4.208"/>
			<circle fill="#268C16" cx="911.439" cy="139.344" r="4.208"/>
		</g>
		<line fill="none" stroke="#268C16" stroke-miterlimit="10" x1="878.5" y1="139" x2="878.5" y2="152"/>
		<line fill="none" stroke="#268C16" stroke-miterlimit="10" x1="889.5" y1="139" x2="889.5" y2="152"/>
		<line fill="none" stroke="#268C16" stroke-miterlimit="10" x1="900.5" y1="139" x2="900.5" y2="152"/>
		<line fill="none" stroke="#268C16" stroke-miterlimit="10" x1="911.5" y1="139" x2="911.5" y2="152"/>
		<circle fill="#268C16" cx="922.602" cy="139.344" r="4.208"/>
		<circle fill="#268C16" cx="933.521" cy="139.344" r="4.209"/>
		<circle fill="#268C16" cx="944.439" cy="139.344" r="4.208"/>
		<line fill="none" stroke="#268C16" stroke-miterlimit="10" x1="922.5" y1="139" x2="922.5" y2="152"/>
		<line fill="none" stroke="#268C16" stroke-miterlimit="10" x1="933.5" y1="139" x2="933.5" y2="152"/>
		<line fill="none" stroke="#268C16" stroke-miterlimit="10" x1="944.5" y1="139" x2="944.5" y2="152"/>
	</g>
	<g>
		<g>
			<g>
				<g>
					<g>
						<g>
							<rect x="263.001" y="114" fill="none" width="14.998" height="12.667"/>
						</g>
						<rect x="269.53" y="123.38" fill-rule="evenodd" clip-rule="evenodd" fill="#231F20" width="1.5" height="2.351"/>
						<rect x="269.53" y="119.163" fill-rule="evenodd" clip-rule="evenodd" fill="#231F20" width="1.5" height="2.352"/>
						<rect x="269.53" y="114.96" fill-rule="evenodd" clip-rule="evenodd" fill="#231F20" width="1.5" height="2.351"/>
					</g>
				</g>
				<g>
					<g>
						<g>
							<rect x="263.001" y="126.667" fill="none" width="14.998" height="12.667"/>
						</g>
						<rect x="269.53" y="136.046" fill-rule="evenodd" clip-rule="evenodd" fill="#231F20" width="1.5" height="2.351"/>
						<rect x="269.53" y="131.83" fill-rule="evenodd" clip-rule="evenodd" fill="#231F20" width="1.5" height="2.351"/>
						<rect x="269.53" y="127.626" fill-rule="evenodd" clip-rule="evenodd" fill="#231F20" width="1.5" height="2.351"/>
					</g>
				</g>
				<g>
					<g>
						<g>
							<rect x="263.001" y="139.333" fill="none" width="14.998" height="12.667"/>
						</g>
						<rect x="269.53" y="148.713" fill-rule="evenodd" clip-rule="evenodd" fill="#231F20" width="1.5" height="2.351"/>
						<rect x="269.53" y="144.496" fill-rule="evenodd" clip-rule="evenodd" fill="#231F20" width="1.5" height="2.351"/>
						<rect x="269.53" y="140.293" fill-rule="evenodd" clip-rule="evenodd" fill="#231F20" width="1.5" height="2.351"/>
					</g>
				</g>
				<g>
					<g>
						<g>
							<rect x="263.001" y="152" fill="none" width="14.998" height="12.667"/>
						</g>
						<rect x="269.53" y="161.38" fill-rule="evenodd" clip-rule="evenodd" fill="#231F20" width="1.5" height="2.351"/>
						<rect x="269.53" y="157.163" fill-rule="evenodd" clip-rule="evenodd" fill="#231F20" width="1.5" height="2.352"/>
						<rect x="269.53" y="152.96" fill-rule="evenodd" clip-rule="evenodd" fill="#231F20" width="1.5" height="2.351"/>
					</g>
				</g>
				<g>
					<g>
						<g>
							<rect x="263.001" y="164.667" fill="none" width="14.998" height="12.667"/>
						</g>
						<rect x="269.53" y="174.046" fill-rule="evenodd" clip-rule="evenodd" fill="#231F20" width="1.5" height="2.351"/>
						<rect x="269.53" y="169.83" fill-rule="evenodd" clip-rule="evenodd" fill="#231F20" width="1.5" height="2.351"/>
						<rect x="269.53" y="165.626" fill-rule="evenodd" clip-rule="evenodd" fill="#231F20" width="1.5" height="2.351"/>
					</g>
				</g>
				<g>
					<g>
						<g>
							<rect x="263.001" y="177.333" fill="none" width="14.998" height="12.667"/>
						</g>
						<rect x="269.53" y="186.713" fill-rule="evenodd" clip-rule="evenodd" fill="#231F20" width="1.5" height="2.351"/>
						<rect x="269.53" y="182.496" fill-rule="evenodd" clip-rule="evenodd" fill="#231F20" width="1.5" height="2.351"/>
						<rect x="269.53" y="178.293" fill-rule="evenodd" clip-rule="evenodd" fill="#231F20" width="1.5" height="2.351"/>
					</g>
				</g>
			</g>
		</g>
	</g>
	<g>
		<g>
			<g>
				<g>
					<g>
						<g>
							<rect x="413" y="114" fill="none" width="14.999" height="12.667"/>
						</g>
						<rect x="419.53" y="123.38" fill-rule="evenodd" clip-rule="evenodd" fill="#231F20" width="1.5" height="2.351"/>
						<rect x="419.53" y="119.163" fill-rule="evenodd" clip-rule="evenodd" fill="#231F20" width="1.5" height="2.352"/>
						<rect x="419.53" y="114.96" fill-rule="evenodd" clip-rule="evenodd" fill="#231F20" width="1.5" height="2.351"/>
					</g>
				</g>
				<g>
					<g>
						<g>
							<rect x="413" y="126.667" fill="none" width="14.998" height="12.667"/>
						</g>
						<rect x="419.531" y="136.046" fill-rule="evenodd" clip-rule="evenodd" fill="#231F20" width="1.5" height="2.351"/>
						<rect x="419.53" y="131.83" fill-rule="evenodd" clip-rule="evenodd" fill="#231F20" width="1.5" height="2.351"/>
						<rect x="419.53" y="127.626" fill-rule="evenodd" clip-rule="evenodd" fill="#231F20" width="1.5" height="2.351"/>
					</g>
				</g>
				<g>
					<g>
						<g>
							<rect x="413.001" y="139.333" fill="none" width="14.998" height="12.667"/>
						</g>
						<rect x="419.53" y="148.713" fill-rule="evenodd" clip-rule="evenodd" fill="#231F20" width="1.5" height="2.351"/>
						<rect x="419.53" y="144.496" fill-rule="evenodd" clip-rule="evenodd" fill="#231F20" width="1.5" height="2.351"/>
						<rect x="419.53" y="140.293" fill-rule="evenodd" clip-rule="evenodd" fill="#231F20" width="1.5" height="2.351"/>
					</g>
				</g>
				<g>
					<g>
						<g>
							<rect x="413.001" y="152" fill="none" width="14.998" height="12.667"/>
						</g>
						<rect x="419.53" y="161.38" fill-rule="evenodd" clip-rule="evenodd" fill="#231F20" width="1.5" height="2.351"/>
						<rect x="419.53" y="157.163" fill-rule="evenodd" clip-rule="evenodd" fill="#231F20" width="1.5" height="2.352"/>
						<rect x="419.53" y="152.96" fill-rule="evenodd" clip-rule="evenodd" fill="#231F20" width="1.5" height="2.351"/>
					</g>
				</g>
				<g>
					<g>
						<g>
							<rect x="413.001" y="164.667" fill="none" width="14.998" height="12.667"/>
						</g>
						<rect x="419.53" y="174.046" fill-rule="evenodd" clip-rule="evenodd" fill="#231F20" width="1.5" height="2.351"/>
						<rect x="419.53" y="169.83" fill-rule="evenodd" clip-rule="evenodd" fill="#231F20" width="1.5" height="2.351"/>
						<rect x="419.53" y="165.626" fill-rule="evenodd" clip-rule="evenodd" fill="#231F20" width="1.5" height="2.351"/>
					</g>
				</g>
				<g>
					<g>
						<g>
							<rect x="413.001" y="177.333" fill="none" width="14.998" height="12.667"/>
						</g>
						<rect x="419.53" y="186.713" fill-rule="evenodd" clip-rule="evenodd" fill="#231F20" width="1.5" height="2.351"/>
						<rect x="419.53" y="182.496" fill-rule="evenodd" clip-rule="evenodd" fill="#231F20" width="1.5" height="2.351"/>
						<rect x="419.53" y="178.293" fill-rule="evenodd" clip-rule="evenodd" fill="#231F20" width="1.5" height="2.351"/>
					</g>
				</g>
			</g>
		</g>
	</g>
	<g>
		<g>
			<g>
				<g>
					<g>
						<g>
							<rect x="563" y="114" fill="none" width="14.999" height="12.667"/>
						</g>
						<rect x="569.531" y="123.38" fill-rule="evenodd" clip-rule="evenodd" fill="#231F20" width="1.5" height="2.351"/>
						<rect x="569.53" y="119.163" fill-rule="evenodd" clip-rule="evenodd" fill="#231F20" width="1.5" height="2.352"/>
						<rect x="569.53" y="114.96" fill-rule="evenodd" clip-rule="evenodd" fill="#231F20" width="1.5" height="2.351"/>
					</g>
				</g>
				<g>
					<g>
						<g>
							<rect x="563" y="126.667" fill="none" width="14.998" height="12.667"/>
						</g>
						<rect x="569.53" y="136.046" fill-rule="evenodd" clip-rule="evenodd" fill="#231F20" width="1.5" height="2.351"/>
						<rect x="569.53" y="131.83" fill-rule="evenodd" clip-rule="evenodd" fill="#231F20" width="1.5" height="2.351"/>
						<rect x="569.53" y="127.626" fill-rule="evenodd" clip-rule="evenodd" fill="#231F20" width="1.5" height="2.351"/>
					</g>
				</g>
				<g>
					<g>
						<g>
							<rect x="563.001" y="139.333" fill="none" width="14.998" height="12.667"/>
						</g>
						<rect x="569.53" y="148.713" fill-rule="evenodd" clip-rule="evenodd" fill="#231F20" width="1.5" height="2.351"/>
						<rect x="569.53" y="144.496" fill-rule="evenodd" clip-rule="evenodd" fill="#231F20" width="1.5" height="2.351"/>
						<rect x="569.53" y="140.293" fill-rule="evenodd" clip-rule="evenodd" fill="#231F20" width="1.5" height="2.351"/>
					</g>
				</g>
				<g>
					<g>
						<g>
							<rect x="563.001" y="152" fill="none" width="14.998" height="12.667"/>
						</g>
						<rect x="569.53" y="161.38" fill-rule="evenodd" clip-rule="evenodd" fill="#231F20" width="1.5" height="2.351"/>
						<rect x="569.53" y="157.163" fill-rule="evenodd" clip-rule="evenodd" fill="#231F20" width="1.5" height="2.352"/>
						<rect x="569.53" y="152.96" fill-rule="evenodd" clip-rule="evenodd" fill="#231F20" width="1.5" height="2.351"/>
					</g>
				</g>
				<g>
					<g>
						<g>
							<rect x="563.001" y="164.667" fill="none" width="14.998" height="12.667"/>
						</g>
						<rect x="569.53" y="174.046" fill-rule="evenodd" clip-rule="evenodd" fill="#231F20" width="1.5" height="2.351"/>
						<rect x="569.53" y="169.83" fill-rule="evenodd" clip-rule="evenodd" fill="#231F20" width="1.5" height="2.351"/>
						<rect x="569.53" y="165.626" fill-rule="evenodd" clip-rule="evenodd" fill="#231F20" width="1.5" height="2.351"/>
					</g>
				</g>
				<g>
					<g>
						<g>
							<rect x="563.001" y="177.333" fill="none" width="14.998" height="12.667"/>
						</g>
						<rect x="569.53" y="186.713" fill-rule="evenodd" clip-rule="evenodd" fill="#231F20" width="1.5" height="2.351"/>
						<rect x="569.53" y="182.496" fill-rule="evenodd" clip-rule="evenodd" fill="#231F20" width="1.5" height="2.351"/>
						<rect x="569.53" y="178.293" fill-rule="evenodd" clip-rule="evenodd" fill="#231F20" width="1.5" height="2.351"/>
					</g>
				</g>
			</g>
		</g>
	</g>
	<g>
		<g>
			<g>
				<g>
					<g>
						<g>
							<rect x="713" y="114" fill="none" width="14.999" height="12.667"/>
						</g>
						<rect x="719.53" y="123.38" fill-rule="evenodd" clip-rule="evenodd" fill="#231F20" width="1.5" height="2.351"/>
						<rect x="719.53" y="119.163" fill-rule="evenodd" clip-rule="evenodd" fill="#231F20" width="1.5" height="2.352"/>
						<rect x="719.53" y="114.96" fill-rule="evenodd" clip-rule="evenodd" fill="#231F20" width="1.5" height="2.351"/>
					</g>
				</g>
				<g>
					<g>
						<g>
							<rect x="713" y="126.667" fill="none" width="14.998" height="12.667"/>
						</g>
						<rect x="719.53" y="136.046" fill-rule="evenodd" clip-rule="evenodd" fill="#231F20" width="1.5" height="2.351"/>
						<rect x="719.53" y="131.83" fill-rule="evenodd" clip-rule="evenodd" fill="#231F20" width="1.5" height="2.351"/>
						<rect x="719.53" y="127.626" fill-rule="evenodd" clip-rule="evenodd" fill="#231F20" width="1.5" height="2.351"/>
					</g>
				</g>
				<g>
					<g>
						<g>
							<rect x="713.001" y="139.333" fill="none" width="14.998" height="12.667"/>
						</g>
						<rect x="719.53" y="148.713" fill-rule="evenodd" clip-rule="evenodd" fill="#231F20" width="1.5" height="2.351"/>
						<rect x="719.53" y="144.496" fill-rule="evenodd" clip-rule="evenodd" fill="#231F20" width="1.5" height="2.351"/>
						<rect x="719.53" y="140.293" fill-rule="evenodd" clip-rule="evenodd" fill="#231F20" width="1.5" height="2.351"/>
					</g>
				</g>
				<g>
					<g>
						<g>
							<rect x="713.001" y="152" fill="none" width="14.998" height="12.667"/>
						</g>
						<rect x="719.53" y="161.38" fill-rule="evenodd" clip-rule="evenodd" fill="#231F20" width="1.5" height="2.351"/>
						<rect x="719.53" y="157.163" fill-rule="evenodd" clip-rule="evenodd" fill="#231F20" width="1.5" height="2.352"/>
						<rect x="719.53" y="152.96" fill-rule="evenodd" clip-rule="evenodd" fill="#231F20" width="1.5" height="2.351"/>
					</g>
				</g>
				<g>
					<g>
						<g>
							<rect x="713.001" y="164.667" fill="none" width="14.998" height="12.667"/>
						</g>
						<rect x="719.53" y="174.046" fill-rule="evenodd" clip-rule="evenodd" fill="#231F20" width="1.5" height="2.351"/>
						<rect x="719.53" y="169.83" fill-rule="evenodd" clip-rule="evenodd" fill="#231F20" width="1.5" height="2.351"/>
						<rect x="719.53" y="165.626" fill-rule="evenodd" clip-rule="evenodd" fill="#231F20" width="1.5" height="2.351"/>
					</g>
				</g>
				<g>
					<g>
						<g>
							<rect x="713.001" y="177.333" fill="none" width="14.998" height="12.667"/>
						</g>
						<rect x="719.53" y="186.713" fill-rule="evenodd" clip-rule="evenodd" fill="#231F20" width="1.5" height="2.351"/>
						<rect x="719.53" y="182.496" fill-rule="evenodd" clip-rule="evenodd" fill="#231F20" width="1.5" height="2.351"/>
						<rect x="719.53" y="178.293" fill-rule="evenodd" clip-rule="evenodd" fill="#231F20" width="1.5" height="2.351"/>
					</g>
				</g>
			</g>
		</g>
	</g>
	<g>
		<g>
			<g>
				<g>
					<g>
						<g>
							<rect x="863" y="114" fill="none" width="14.999" height="12.667"/>
						</g>
						<rect x="869.53" y="123.38" fill-rule="evenodd" clip-rule="evenodd" fill="#231F20" width="1.5" height="2.351"/>
						<rect x="869.53" y="119.163" fill-rule="evenodd" clip-rule="evenodd" fill="#231F20" width="1.5" height="2.352"/>
						<rect x="869.53" y="114.96" fill-rule="evenodd" clip-rule="evenodd" fill="#231F20" width="1.5" height="2.351"/>
					</g>
				</g>
				<g>
					<g>
						<g>
							<rect x="863" y="126.667" fill="none" width="14.998" height="12.667"/>
						</g>
						<rect x="869.531" y="136.046" fill-rule="evenodd" clip-rule="evenodd" fill="#231F20" width="1.5" height="2.351"/>
						<rect x="869.53" y="131.83" fill-rule="evenodd" clip-rule="evenodd" fill="#231F20" width="1.5" height="2.351"/>
						<rect x="869.53" y="127.626" fill-rule="evenodd" clip-rule="evenodd" fill="#231F20" width="1.5" height="2.351"/>
					</g>
				</g>
				<g>
					<g>
						<g>
							<rect x="863.001" y="139.333" fill="none" width="14.998" height="12.667"/>
						</g>
						<rect x="869.53" y="148.713" fill-rule="evenodd" clip-rule="evenodd" fill="#231F20" width="1.5" height="2.351"/>
						<rect x="869.53" y="144.496" fill-rule="evenodd" clip-rule="evenodd" fill="#231F20" width="1.5" height="2.351"/>
						<rect x="869.53" y="140.293" fill-rule="evenodd" clip-rule="evenodd" fill="#231F20" width="1.5" height="2.351"/>
					</g>
				</g>
				<g>
					<g>
						<g>
							<rect x="863.001" y="152" fill="none" width="14.998" height="12.667"/>
						</g>
						<rect x="869.53" y="161.38" fill-rule="evenodd" clip-rule="evenodd" fill="#231F20" width="1.5" height="2.351"/>
						<rect x="869.53" y="157.163" fill-rule="evenodd" clip-rule="evenodd" fill="#231F20" width="1.5" height="2.352"/>
						<rect x="869.53" y="152.96" fill-rule="evenodd" clip-rule="evenodd" fill="#231F20" width="1.5" height="2.351"/>
					</g>
				</g>
				<g>
					<g>
						<g>
							<rect x="863.001" y="164.667" fill="none" width="14.998" height="12.667"/>
						</g>
						<rect x="869.53" y="174.046" fill-rule="evenodd" clip-rule="evenodd" fill="#231F20" width="1.5" height="2.351"/>
						<rect x="869.53" y="169.83" fill-rule="evenodd" clip-rule="evenodd" fill="#231F20" width="1.5" height="2.351"/>
						<rect x="869.53" y="165.626" fill-rule="evenodd" clip-rule="evenodd" fill="#231F20" width="1.5" height="2.351"/>
					</g>
				</g>
				<g>
					<g>
						<g>
							<rect x="863.001" y="177.333" fill="none" width="14.998" height="12.667"/>
						</g>
						<rect x="869.53" y="186.713" fill-rule="evenodd" clip-rule="evenodd" fill="#231F20" width="1.5" height="2.351"/>
						<rect x="869.53" y="182.496" fill-rule="evenodd" clip-rule="evenodd" fill="#231F20" width="1.5" height="2.351"/>
						<rect x="869.53" y="178.293" fill-rule="evenodd" clip-rule="evenodd" fill="#231F20" width="1.5" height="2.351"/>
					</g>
				</g>
			</g>
		</g>
	</g>
	<g>
		<g>
			<g>
				<g>
					<g>
						<g>
							<rect x="1013" y="114" fill="none" width="14.999" height="12.667"/>
						</g>
						<rect x="1019.53" y="123.38" fill-rule="evenodd" clip-rule="evenodd" fill="#231F20" width="1.5" height="2.351"/>
						<rect x="1019.53" y="119.163" fill-rule="evenodd" clip-rule="evenodd" fill="#231F20" width="1.5" height="2.352"/>
						<rect x="1019.53" y="114.96" fill-rule="evenodd" clip-rule="evenodd" fill="#231F20" width="1.5" height="2.351"/>
					</g>
				</g>
				<g>
					<g>
						<g>
							<rect x="1013" y="126.667" fill="none" width="14.998" height="12.667"/>
						</g>
						<rect x="1019.53" y="136.046" fill-rule="evenodd" clip-rule="evenodd" fill="#231F20" width="1.5" height="2.351"/>
						<rect x="1019.53" y="131.83" fill-rule="evenodd" clip-rule="evenodd" fill="#231F20" width="1.5" height="2.351"/>
						<rect x="1019.53" y="127.626" fill-rule="evenodd" clip-rule="evenodd" fill="#231F20" width="1.5" height="2.351"/>
					</g>
				</g>
				<g>
					<g>
						<g>
							<rect x="1013.001" y="139.333" fill="none" width="14.998" height="12.667"/>
						</g>
						<rect x="1019.53" y="148.713" fill-rule="evenodd" clip-rule="evenodd" fill="#231F20" width="1.5" height="2.351"/>
						<rect x="1019.53" y="144.496" fill-rule="evenodd" clip-rule="evenodd" fill="#231F20" width="1.5" height="2.351"/>
						<rect x="1019.531" y="140.293" fill-rule="evenodd" clip-rule="evenodd" fill="#231F20" width="1.5" height="2.351"/>
					</g>
				</g>
				<g>
					<g>
						<g>
							<rect x="1013.001" y="152" fill="none" width="14.998" height="12.667"/>
						</g>
						<rect x="1019.53" y="161.38" fill-rule="evenodd" clip-rule="evenodd" fill="#231F20" width="1.5" height="2.351"/>
						<rect x="1019.53" y="157.163" fill-rule="evenodd" clip-rule="evenodd" fill="#231F20" width="1.5" height="2.352"/>
						<rect x="1019.53" y="152.96" fill-rule="evenodd" clip-rule="evenodd" fill="#231F20" width="1.5" height="2.351"/>
					</g>
				</g>
				<g>
					<g>
						<g>
							<rect x="1013.001" y="164.667" fill="none" width="14.998" height="12.667"/>
						</g>
						<rect x="1019.53" y="174.046" fill-rule="evenodd" clip-rule="evenodd" fill="#231F20" width="1.5" height="2.351"/>
						<rect x="1019.53" y="169.83" fill-rule="evenodd" clip-rule="evenodd" fill="#231F20" width="1.5" height="2.351"/>
						<rect x="1019.53" y="165.626" fill-rule="evenodd" clip-rule="evenodd" fill="#231F20" width="1.5" height="2.351"/>
					</g>
				</g>
				<g>
					<g>
						<g>
							<rect x="1013.001" y="177.333" fill="none" width="14.998" height="12.667"/>
						</g>
						<rect x="1019.53" y="186.713" fill-rule="evenodd" clip-rule="evenodd" fill="#231F20" width="1.5" height="2.351"/>
						<rect x="1019.53" y="182.496" fill-rule="evenodd" clip-rule="evenodd" fill="#231F20" width="1.5" height="2.351"/>
						<rect x="1019.53" y="178.293" fill-rule="evenodd" clip-rule="evenodd" fill="#231F20" width="1.5" height="2.351"/>
					</g>
				</g>
			</g>
		</g>
	</g>
	<line fill="none" stroke="#F2F2F2" stroke-miterlimit="10" x1="270" y1="151.5" x2="1096" y2="151.5"/>
</g>
<g id="Layer_6">
</g>
</svg>
