<?xml version="1.0" encoding="utf-8"?>
<!-- Generator: Adobe Illustrator 16.0.0, SVG Export Plug-In . SVG Version: 6.00 Build 0)  -->
<!DOCTYPE svg PUBLIC "-//W3C//DTD SVG 1.1//EN" "http://www.w3.org/Graphics/SVG/1.1/DTD/svg11.dtd">
<svg version="1.1" xmlns="http://www.w3.org/2000/svg" xmlns:xlink="http://www.w3.org/1999/xlink" x="0px" y="0px" width="1152px"
	 height="700px" viewBox="0 0 1152 700" enable-background="new 0 0 1152 700" xml:space="preserve">
<g id="Layer_1">
	<rect x="-1" y="1" fill="#0D0D0D" width="1152" height="700"/>
</g>
<g id="Layer_2">
	<g>
		<circle fill="#D93644" cx="169.957" cy="412.295" r="3.371"/>
		<circle fill="#0C59F2" cx="163.538" cy="417.957" r="3.372"/>
		<circle fill="#D93644" cx="171.844" cy="420.223" r="3.371"/>
		<circle fill="#0C59F2" cx="165.803" cy="427.019" r="3.371"/>
		<circle fill="#0C59F2" cx="179.018" cy="415.314" r="3.371"/>
		<circle fill="#D93644" cx="180.149" cy="423.621" r="3.37"/>
		<circle fill="#0C59F2" cx="174.109" cy="428.528" r="3.371"/>
		<circle fill="#D93644" cx="157.875" cy="423.621" r="3.371"/>
		<circle fill="#0C59F2" cx="156.365" cy="414.559" r="3.371"/>
		<circle fill="#D93644" cx="162.405" cy="408.142" r="3.371"/>
		<circle fill="#D93644" cx="177.506" cy="407.387" r="3.372"/>
		<circle fill="#0C59F2" cx="169.957" cy="404.744" r="3.371"/>
		<circle fill="none" stroke="#F2F2F2" stroke-width="0.3775" stroke-miterlimit="10" cx="168.652" cy="416.672" r="24.918"/>
		<circle fill="none" stroke="#F2F2F2" stroke-width="0.3775" stroke-miterlimit="10" cx="168.841" cy="416.861" r="34.923"/>
		<circle fill="#268C16" cx="146.927" cy="404.744" r="3.371"/>
		<circle fill="#268C16" cx="161.272" cy="382.847" r="3.371"/>
		<circle fill="#268C16" cx="168.824" cy="441.742" r="3.371"/>
		<circle fill="#268C16" cx="139.753" cy="435.324" r="3.372"/>
		<circle fill="#268C16" cx="188.456" cy="401.346" r="3.372"/>
		<circle fill="#268C16" cx="201.291" cy="430.416" r="3.371"/>
	</g>
	<g>
		<circle fill="#D93644" cx="345.957" cy="63.295" r="3.371"/>
		<circle fill="#0C59F2" cx="339.538" cy="68.957" r="3.372"/>
		<circle fill="#D93644" cx="347.844" cy="71.222" r="3.371"/>
		<circle fill="#0C59F2" cx="341.803" cy="78.019" r="3.371"/>
		<circle fill="#0C59F2" cx="355.018" cy="66.314" r="3.371"/>
		<circle fill="#D93644" cx="356.149" cy="74.621" r="3.37"/>
		<circle fill="#0C59F2" cx="350.109" cy="79.528" r="3.371"/>
		<circle fill="#D93644" cx="333.875" cy="74.621" r="3.371"/>
		<circle fill="#0C59F2" cx="332.365" cy="65.559" r="3.371"/>
		<circle fill="#D93644" cx="338.405" cy="59.142" r="3.371"/>
		<circle fill="#D93644" cx="353.506" cy="58.386" r="3.372"/>
		<circle fill="#0C59F2" cx="345.957" cy="55.744" r="3.371"/>
		<circle fill="none" stroke="#F2F2F2" stroke-width="0.3775" stroke-miterlimit="10" cx="344.652" cy="67.672" r="24.918"/>
		<circle fill="none" stroke="#F2F2F2" stroke-width="0.3775" stroke-miterlimit="10" cx="344.841" cy="67.861" r="34.923"/>
		<circle fill="#268C16" cx="322.927" cy="55.744" r="3.371"/>
		<circle fill="#268C16" cx="337.272" cy="33.847" r="3.371"/>
		<circle fill="#268C16" cx="344.824" cy="92.742" r="3.371"/>
		<circle fill="#268C16" cx="315.753" cy="86.324" r="3.372"/>
		<circle fill="#268C16" cx="364.456" cy="52.346" r="3.372"/>
		<circle fill="#268C16" cx="377.291" cy="81.417" r="3.371"/>
	</g>
	<g>
		<circle fill="#D93644" cx="404.957" cy="265.295" r="3.371"/>
		<circle fill="#0C59F2" cx="398.538" cy="270.957" r="3.372"/>
		<circle fill="#D93644" cx="406.844" cy="273.223" r="3.371"/>
		<circle fill="#0C59F2" cx="400.803" cy="280.019" r="3.371"/>
		<circle fill="#0C59F2" cx="414.018" cy="268.314" r="3.371"/>
		<circle fill="#D93644" cx="415.149" cy="276.621" r="3.37"/>
		<circle fill="#0C59F2" cx="409.109" cy="281.528" r="3.371"/>
		<circle fill="#D93644" cx="392.875" cy="276.621" r="3.371"/>
		<circle fill="#0C59F2" cx="391.365" cy="267.559" r="3.371"/>
		<circle fill="#D93644" cx="397.405" cy="261.142" r="3.371"/>
		<circle fill="#D93644" cx="412.506" cy="260.387" r="3.372"/>
		<circle fill="#0C59F2" cx="404.957" cy="257.744" r="3.371"/>
		<circle fill="none" stroke="#F2F2F2" stroke-width="0.3775" stroke-miterlimit="10" cx="403.652" cy="269.672" r="24.918"/>
		<circle fill="none" stroke="#F2F2F2" stroke-width="0.3775" stroke-miterlimit="10" cx="403.841" cy="269.861" r="34.923"/>
		<circle fill="#268C16" cx="381.927" cy="257.744" r="3.371"/>
		<circle fill="#268C16" cx="396.272" cy="235.847" r="3.371"/>
		<circle fill="#268C16" cx="403.824" cy="294.742" r="3.371"/>
		<circle fill="#268C16" cx="374.753" cy="288.324" r="3.372"/>
		<circle fill="#268C16" cx="423.456" cy="254.346" r="3.372"/>
		<circle fill="#268C16" cx="436.291" cy="283.416" r="3.371"/>
	</g>
	<g>
		<circle fill="#D93644" cx="779.957" cy="501.295" r="3.371"/>
		<circle fill="#0C59F2" cx="773.538" cy="506.957" r="3.372"/>
		<circle fill="#D93644" cx="781.844" cy="509.223" r="3.371"/>
		<circle fill="#0C59F2" cx="775.803" cy="516.019" r="3.371"/>
		<circle fill="#0C59F2" cx="789.018" cy="504.314" r="3.371"/>
		<circle fill="#D93644" cx="790.149" cy="512.621" r="3.37"/>
		<circle fill="#0C59F2" cx="784.109" cy="517.528" r="3.371"/>
		<circle fill="#D93644" cx="767.875" cy="512.621" r="3.371"/>
		<circle fill="#0C59F2" cx="766.365" cy="503.559" r="3.371"/>
		<circle fill="#D93644" cx="772.405" cy="497.142" r="3.371"/>
		<circle fill="#D93644" cx="787.506" cy="496.387" r="3.372"/>
		<circle fill="#0C59F2" cx="779.957" cy="493.744" r="3.371"/>
		<circle fill="none" stroke="#F2F2F2" stroke-width="0.3775" stroke-miterlimit="10" cx="778.652" cy="505.672" r="24.918"/>
		<circle fill="none" stroke="#F2F2F2" stroke-width="0.3775" stroke-miterlimit="10" cx="778.841" cy="505.861" r="34.923"/>
		<circle fill="#268C16" cx="756.927" cy="493.744" r="3.371"/>
		<circle fill="#268C16" cx="771.272" cy="471.847" r="3.371"/>
		<circle fill="#268C16" cx="778.824" cy="530.742" r="3.371"/>
		<circle fill="#268C16" cx="749.753" cy="524.324" r="3.372"/>
		<circle fill="#268C16" cx="798.456" cy="490.346" r="3.372"/>
		<circle fill="#268C16" cx="811.291" cy="519.416" r="3.371"/>
	</g>
	<g>
		<circle fill="#D93644" cx="177.957" cy="257.295" r="3.371"/>
		<circle fill="#0C59F2" cx="171.538" cy="262.957" r="3.372"/>
		<circle fill="#D93644" cx="179.844" cy="265.222" r="3.371"/>
		<circle fill="#0C59F2" cx="173.803" cy="272.019" r="3.371"/>
		<circle fill="#0C59F2" cx="187.018" cy="260.314" r="3.371"/>
		<circle fill="#D93644" cx="188.149" cy="268.621" r="3.37"/>
		<circle fill="#0C59F2" cx="182.109" cy="273.528" r="3.371"/>
		<circle fill="#D93644" cx="165.875" cy="268.621" r="3.371"/>
		<circle fill="#0C59F2" cx="164.365" cy="259.559" r="3.371"/>
		<circle fill="#D93644" cx="170.405" cy="253.142" r="3.371"/>
		<circle fill="#D93644" cx="185.506" cy="252.386" r="3.372"/>
		<circle fill="#0C59F2" cx="177.957" cy="249.744" r="3.371"/>
		<circle fill="none" stroke="#F2F2F2" stroke-width="0.3775" stroke-miterlimit="10" cx="176.652" cy="261.672" r="24.918"/>
		<circle fill="none" stroke="#F2F2F2" stroke-width="0.3775" stroke-miterlimit="10" cx="176.841" cy="261.861" r="34.923"/>
		<circle fill="#268C16" cx="154.927" cy="249.744" r="3.371"/>
		<circle fill="#268C16" cx="169.272" cy="227.847" r="3.371"/>
		<circle fill="#268C16" cx="176.824" cy="286.743" r="3.371"/>
		<circle fill="#268C16" cx="147.753" cy="280.324" r="3.372"/>
		<circle fill="#268C16" cx="196.456" cy="246.346" r="3.372"/>
		<circle fill="#268C16" cx="209.291" cy="275.417" r="3.371"/>
	</g>
	<g>
		<circle fill="#D93644" cx="489.957" cy="45.295" r="3.371"/>
		<circle fill="#0C59F2" cx="483.538" cy="50.957" r="3.372"/>
		<circle fill="#D93644" cx="491.844" cy="53.222" r="3.371"/>
		<circle fill="#0C59F2" cx="485.803" cy="60.019" r="3.371"/>
		<circle fill="#0C59F2" cx="499.018" cy="48.314" r="3.371"/>
		<circle fill="#D93644" cx="500.149" cy="56.621" r="3.37"/>
		<circle fill="#0C59F2" cx="494.109" cy="61.528" r="3.371"/>
		<circle fill="#D93644" cx="477.875" cy="56.621" r="3.371"/>
		<circle fill="#0C59F2" cx="476.365" cy="47.559" r="3.371"/>
		<circle fill="#D93644" cx="482.405" cy="41.142" r="3.371"/>
		<circle fill="#D93644" cx="497.506" cy="40.386" r="3.372"/>
		<circle fill="#0C59F2" cx="489.957" cy="37.744" r="3.371"/>
		<circle fill="none" stroke="#F2F2F2" stroke-width="0.3775" stroke-miterlimit="10" cx="488.652" cy="49.672" r="24.918"/>
		<circle fill="none" stroke="#F2F2F2" stroke-width="0.3775" stroke-miterlimit="10" cx="488.841" cy="49.861" r="34.923"/>
		<circle fill="#268C16" cx="466.927" cy="37.744" r="3.371"/>
		<circle fill="#268C16" cx="481.272" cy="15.847" r="3.371"/>
		<circle fill="#268C16" cx="488.824" cy="74.743" r="3.371"/>
		<circle fill="#268C16" cx="459.753" cy="68.324" r="3.372"/>
		<circle fill="#268C16" cx="508.456" cy="34.346" r="3.372"/>
		<circle fill="#268C16" cx="521.291" cy="63.417" r="3.371"/>
	</g>
	<g>
		<circle fill="#D93644" cx="288.957" cy="170.295" r="3.371"/>
		<circle fill="#0C59F2" cx="282.538" cy="175.957" r="3.372"/>
		<circle fill="#D93644" cx="290.844" cy="178.223" r="3.371"/>
		<circle fill="#0C59F2" cx="284.803" cy="185.019" r="3.371"/>
		<circle fill="#0C59F2" cx="298.018" cy="173.314" r="3.371"/>
		<circle fill="#D93644" cx="299.149" cy="181.621" r="3.37"/>
		<circle fill="#0C59F2" cx="293.109" cy="186.528" r="3.371"/>
		<circle fill="#D93644" cx="276.875" cy="181.621" r="3.371"/>
		<circle fill="#0C59F2" cx="275.365" cy="172.559" r="3.371"/>
		<circle fill="#D93644" cx="281.405" cy="166.142" r="3.371"/>
		<circle fill="#D93644" cx="296.506" cy="165.387" r="3.372"/>
		<circle fill="#0C59F2" cx="288.957" cy="162.744" r="3.371"/>
		<circle fill="none" stroke="#F2F2F2" stroke-width="0.3775" stroke-miterlimit="10" cx="287.652" cy="174.672" r="24.918"/>
		<circle fill="none" stroke="#F2F2F2" stroke-width="0.3775" stroke-miterlimit="10" cx="287.841" cy="174.861" r="34.923"/>
		<circle fill="#268C16" cx="265.927" cy="162.744" r="3.371"/>
		<circle fill="#268C16" cx="280.272" cy="140.847" r="3.371"/>
		<circle fill="#268C16" cx="287.824" cy="199.742" r="3.371"/>
		<circle fill="#268C16" cx="258.753" cy="193.324" r="3.372"/>
		<circle fill="#268C16" cx="307.456" cy="159.346" r="3.372"/>
		<circle fill="#268C16" cx="320.291" cy="188.416" r="3.371"/>
	</g>
	<g>
		<circle fill="#D93644" cx="42.957" cy="261.295" r="3.371"/>
		<circle fill="#0C59F2" cx="36.538" cy="266.957" r="3.372"/>
		<circle fill="#D93644" cx="44.844" cy="269.223" r="3.371"/>
		<circle fill="#0C59F2" cx="38.803" cy="276.019" r="3.371"/>
		<circle fill="#0C59F2" cx="52.018" cy="264.314" r="3.371"/>
		<circle fill="#D93644" cx="53.149" cy="272.621" r="3.37"/>
		<circle fill="#0C59F2" cx="47.109" cy="277.528" r="3.371"/>
		<circle fill="#D93644" cx="30.875" cy="272.621" r="3.371"/>
		<circle fill="#0C59F2" cx="29.365" cy="263.559" r="3.371"/>
		<circle fill="#D93644" cx="35.405" cy="257.142" r="3.371"/>
		<circle fill="#D93644" cx="50.506" cy="256.387" r="3.372"/>
		<circle fill="#0C59F2" cx="42.957" cy="253.744" r="3.371"/>
		<circle fill="none" stroke="#F2F2F2" stroke-width="0.3775" stroke-miterlimit="10" cx="41.652" cy="265.672" r="24.918"/>
		<circle fill="none" stroke="#F2F2F2" stroke-width="0.3775" stroke-miterlimit="10" cx="41.841" cy="265.861" r="34.923"/>
		<circle fill="#268C16" cx="19.927" cy="253.744" r="3.371"/>
		<circle fill="#268C16" cx="34.272" cy="231.847" r="3.371"/>
		<circle fill="#268C16" cx="41.824" cy="290.742" r="3.371"/>
		<circle fill="#268C16" cx="12.753" cy="284.324" r="3.372"/>
		<circle fill="#268C16" cx="61.456" cy="250.346" r="3.372"/>
		<circle fill="#268C16" cx="74.291" cy="279.416" r="3.371"/>
	</g>
	<g>
		<circle fill="#D93644" cx="535.957" cy="172.295" r="3.371"/>
		<circle fill="#0C59F2" cx="529.538" cy="177.957" r="3.372"/>
		<circle fill="#D93644" cx="537.844" cy="180.223" r="3.371"/>
		<circle fill="#0C59F2" cx="531.803" cy="187.019" r="3.371"/>
		<circle fill="#0C59F2" cx="545.018" cy="175.314" r="3.371"/>
		<circle fill="#D93644" cx="546.149" cy="183.621" r="3.37"/>
		<circle fill="#0C59F2" cx="540.109" cy="188.528" r="3.371"/>
		<circle fill="#D93644" cx="523.875" cy="183.621" r="3.371"/>
		<circle fill="#0C59F2" cx="522.365" cy="174.559" r="3.371"/>
		<circle fill="#D93644" cx="528.405" cy="168.142" r="3.371"/>
		<circle fill="#D93644" cx="543.506" cy="167.387" r="3.372"/>
		<circle fill="#0C59F2" cx="535.957" cy="164.744" r="3.371"/>
		<circle fill="none" stroke="#F2F2F2" stroke-width="0.3775" stroke-miterlimit="10" cx="534.652" cy="176.672" r="24.918"/>
		<circle fill="none" stroke="#F2F2F2" stroke-width="0.3775" stroke-miterlimit="10" cx="534.841" cy="176.861" r="34.923"/>
		<circle fill="#268C16" cx="512.927" cy="164.744" r="3.371"/>
		<circle fill="#268C16" cx="527.272" cy="142.847" r="3.371"/>
		<circle fill="#268C16" cx="534.824" cy="201.742" r="3.371"/>
		<circle fill="#268C16" cx="505.753" cy="195.324" r="3.372"/>
		<circle fill="#268C16" cx="554.456" cy="161.346" r="3.372"/>
		<circle fill="#268C16" cx="567.291" cy="190.416" r="3.371"/>
	</g>
	<g>
		<circle fill="#D93644" cx="905.957" cy="403.295" r="3.371"/>
		<circle fill="#0C59F2" cx="899.538" cy="408.957" r="3.372"/>
		<circle fill="#D93644" cx="907.844" cy="411.223" r="3.371"/>
		<circle fill="#0C59F2" cx="901.803" cy="418.019" r="3.371"/>
		<circle fill="#0C59F2" cx="915.018" cy="406.314" r="3.371"/>
		<circle fill="#D93644" cx="916.149" cy="414.621" r="3.37"/>
		<circle fill="#0C59F2" cx="910.109" cy="419.528" r="3.371"/>
		<circle fill="#D93644" cx="893.875" cy="414.621" r="3.371"/>
		<circle fill="#0C59F2" cx="892.365" cy="405.559" r="3.371"/>
		<circle fill="#D93644" cx="898.405" cy="399.142" r="3.371"/>
		<circle fill="#D93644" cx="913.506" cy="398.387" r="3.372"/>
		<circle fill="#0C59F2" cx="905.957" cy="395.744" r="3.371"/>
		<circle fill="none" stroke="#F2F2F2" stroke-width="0.3775" stroke-miterlimit="10" cx="904.652" cy="407.672" r="24.918"/>
		<circle fill="none" stroke="#F2F2F2" stroke-width="0.3775" stroke-miterlimit="10" cx="904.841" cy="407.861" r="34.923"/>
		<circle fill="#268C16" cx="882.927" cy="395.744" r="3.371"/>
		<circle fill="#268C16" cx="897.272" cy="373.847" r="3.371"/>
		<circle fill="#268C16" cx="904.824" cy="432.742" r="3.371"/>
		<circle fill="#268C16" cx="875.753" cy="426.324" r="3.372"/>
		<circle fill="#268C16" cx="924.456" cy="392.346" r="3.372"/>
		<circle fill="#268C16" cx="937.291" cy="421.416" r="3.371"/>
	</g>
	<g>
		<circle fill="#D93644" cx="860.957" cy="44.295" r="3.371"/>
		<circle fill="#0C59F2" cx="854.538" cy="49.957" r="3.372"/>
		<circle fill="#D93644" cx="862.844" cy="52.222" r="3.371"/>
		<circle fill="#0C59F2" cx="856.803" cy="59.019" r="3.371"/>
		<circle fill="#0C59F2" cx="870.018" cy="47.314" r="3.371"/>
		<circle fill="#D93644" cx="871.149" cy="55.621" r="3.37"/>
		<circle fill="#0C59F2" cx="865.109" cy="60.528" r="3.371"/>
		<circle fill="#D93644" cx="848.875" cy="55.621" r="3.371"/>
		<circle fill="#0C59F2" cx="847.365" cy="46.559" r="3.371"/>
		<circle fill="#D93644" cx="853.405" cy="40.142" r="3.371"/>
		<circle fill="#D93644" cx="868.506" cy="39.386" r="3.372"/>
		<circle fill="#0C59F2" cx="860.957" cy="36.744" r="3.371"/>
		<circle fill="none" stroke="#F2F2F2" stroke-width="0.3775" stroke-miterlimit="10" cx="859.652" cy="48.672" r="24.918"/>
		<circle fill="none" stroke="#F2F2F2" stroke-width="0.3775" stroke-miterlimit="10" cx="859.841" cy="48.861" r="34.923"/>
		<circle fill="#268C16" cx="837.927" cy="36.744" r="3.371"/>
		<circle fill="#268C16" cx="852.272" cy="14.847" r="3.371"/>
		<circle fill="#268C16" cx="859.824" cy="73.743" r="3.371"/>
		<circle fill="#268C16" cx="830.753" cy="67.324" r="3.372"/>
		<circle fill="#268C16" cx="879.456" cy="33.346" r="3.372"/>
		<circle fill="#268C16" cx="892.291" cy="62.417" r="3.371"/>
	</g>
	<g>
		<circle fill="#D93644" cx="177.957" cy="84.295" r="3.371"/>
		<circle fill="#0C59F2" cx="171.538" cy="89.957" r="3.372"/>
		<circle fill="#D93644" cx="179.844" cy="92.223" r="3.371"/>
		<circle fill="#0C59F2" cx="173.803" cy="99.019" r="3.371"/>
		<circle fill="#0C59F2" cx="187.018" cy="87.314" r="3.371"/>
		<circle fill="#D93644" cx="188.149" cy="95.621" r="3.37"/>
		<circle fill="#0C59F2" cx="182.109" cy="100.528" r="3.371"/>
		<circle fill="#D93644" cx="165.875" cy="95.621" r="3.371"/>
		<circle fill="#0C59F2" cx="164.365" cy="86.559" r="3.371"/>
		<circle fill="#D93644" cx="170.405" cy="80.142" r="3.371"/>
		<circle fill="#D93644" cx="185.506" cy="79.387" r="3.372"/>
		<circle fill="#0C59F2" cx="177.957" cy="76.744" r="3.371"/>
		<circle fill="none" stroke="#F2F2F2" stroke-width="0.3775" stroke-miterlimit="10" cx="176.652" cy="88.672" r="24.918"/>
		<circle fill="none" stroke="#F2F2F2" stroke-width="0.3775" stroke-miterlimit="10" cx="176.841" cy="88.861" r="34.923"/>
		<circle fill="#268C16" cx="154.927" cy="76.744" r="3.371"/>
		<circle fill="#268C16" cx="169.272" cy="54.847" r="3.371"/>
		<circle fill="#268C16" cx="176.824" cy="113.742" r="3.371"/>
		<circle fill="#268C16" cx="147.753" cy="107.324" r="3.372"/>
		<circle fill="#268C16" cx="196.456" cy="73.346" r="3.372"/>
		<circle fill="#268C16" cx="209.291" cy="102.416" r="3.371"/>
	</g>
	<g>
		<circle fill="#D93644" cx="433.957" cy="413.295" r="3.371"/>
		<circle fill="#0C59F2" cx="427.538" cy="418.957" r="3.372"/>
		<circle fill="#D93644" cx="435.844" cy="421.223" r="3.371"/>
		<circle fill="#0C59F2" cx="429.803" cy="428.019" r="3.371"/>
		<circle fill="#0C59F2" cx="443.018" cy="416.314" r="3.371"/>
		<circle fill="#D93644" cx="444.149" cy="424.621" r="3.37"/>
		<circle fill="#0C59F2" cx="438.109" cy="429.528" r="3.371"/>
		<circle fill="#D93644" cx="421.875" cy="424.621" r="3.371"/>
		<circle fill="#0C59F2" cx="420.365" cy="415.559" r="3.371"/>
		<circle fill="#D93644" cx="426.405" cy="409.142" r="3.371"/>
		<circle fill="#D93644" cx="441.506" cy="408.387" r="3.372"/>
		<circle fill="#0C59F2" cx="433.957" cy="405.744" r="3.371"/>
		<circle fill="none" stroke="#F2F2F2" stroke-width="0.3775" stroke-miterlimit="10" cx="432.652" cy="417.672" r="24.918"/>
		<circle fill="none" stroke="#F2F2F2" stroke-width="0.3775" stroke-miterlimit="10" cx="432.841" cy="417.861" r="34.923"/>
		<circle fill="#268C16" cx="410.927" cy="405.744" r="3.371"/>
		<circle fill="#268C16" cx="425.272" cy="383.847" r="3.371"/>
		<circle fill="#268C16" cx="432.824" cy="442.742" r="3.371"/>
		<circle fill="#268C16" cx="403.753" cy="436.324" r="3.372"/>
		<circle fill="#268C16" cx="452.456" cy="402.346" r="3.372"/>
		<circle fill="#268C16" cx="465.291" cy="431.416" r="3.371"/>
	</g>
	<g>
		<circle fill="#D93644" cx="635.957" cy="270.295" r="3.371"/>
		<circle fill="#0C59F2" cx="629.538" cy="275.957" r="3.372"/>
		<circle fill="#D93644" cx="637.844" cy="278.223" r="3.371"/>
		<circle fill="#0C59F2" cx="631.803" cy="285.019" r="3.371"/>
		<circle fill="#0C59F2" cx="645.018" cy="273.314" r="3.371"/>
		<circle fill="#D93644" cx="646.149" cy="281.621" r="3.37"/>
		<circle fill="#0C59F2" cx="640.109" cy="286.528" r="3.371"/>
		<circle fill="#D93644" cx="623.875" cy="281.621" r="3.371"/>
		<circle fill="#0C59F2" cx="622.365" cy="272.559" r="3.371"/>
		<circle fill="#D93644" cx="628.405" cy="266.142" r="3.371"/>
		<circle fill="#D93644" cx="643.506" cy="265.387" r="3.372"/>
		<circle fill="#0C59F2" cx="635.957" cy="262.744" r="3.371"/>
		<circle fill="none" stroke="#F2F2F2" stroke-width="0.3775" stroke-miterlimit="10" cx="634.652" cy="274.672" r="24.918"/>
		<circle fill="none" stroke="#F2F2F2" stroke-width="0.3775" stroke-miterlimit="10" cx="634.841" cy="274.861" r="34.923"/>
		<circle fill="#268C16" cx="612.927" cy="262.744" r="3.371"/>
		<circle fill="#268C16" cx="627.272" cy="240.847" r="3.371"/>
		<circle fill="#268C16" cx="634.824" cy="299.742" r="3.371"/>
		<circle fill="#268C16" cx="605.753" cy="293.324" r="3.372"/>
		<circle fill="#268C16" cx="654.456" cy="259.346" r="3.372"/>
		<circle fill="#268C16" cx="667.291" cy="288.416" r="3.371"/>
	</g>
	<g>
		<circle fill="#D93644" cx="686.957" cy="78.295" r="3.371"/>
		<circle fill="#0C59F2" cx="680.538" cy="83.957" r="3.372"/>
		<circle fill="#D93644" cx="688.844" cy="86.223" r="3.371"/>
		<circle fill="#0C59F2" cx="682.803" cy="93.019" r="3.371"/>
		<circle fill="#0C59F2" cx="696.018" cy="81.314" r="3.371"/>
		<circle fill="#D93644" cx="697.149" cy="89.621" r="3.37"/>
		<circle fill="#0C59F2" cx="691.109" cy="94.528" r="3.371"/>
		<circle fill="#D93644" cx="674.875" cy="89.621" r="3.371"/>
		<circle fill="#0C59F2" cx="673.365" cy="80.559" r="3.371"/>
		<circle fill="#D93644" cx="679.405" cy="74.142" r="3.371"/>
		<circle fill="#D93644" cx="694.506" cy="73.387" r="3.372"/>
		<circle fill="#0C59F2" cx="686.957" cy="70.744" r="3.371"/>
		<circle fill="none" stroke="#F2F2F2" stroke-width="0.3775" stroke-miterlimit="10" cx="685.652" cy="82.672" r="24.918"/>
		<circle fill="none" stroke="#F2F2F2" stroke-width="0.3775" stroke-miterlimit="10" cx="685.841" cy="82.861" r="34.923"/>
		<circle fill="#268C16" cx="663.927" cy="70.744" r="3.371"/>
		<circle fill="#268C16" cx="678.272" cy="48.847" r="3.371"/>
		<circle fill="#268C16" cx="685.824" cy="107.742" r="3.371"/>
		<circle fill="#268C16" cx="656.753" cy="101.324" r="3.372"/>
		<circle fill="#268C16" cx="705.456" cy="67.346" r="3.372"/>
		<circle fill="#268C16" cx="718.291" cy="96.416" r="3.371"/>
	</g>
	<g>
		<circle fill="#D93644" cx="1101.957" cy="66.295" r="3.371"/>
		<circle fill="#0C59F2" cx="1095.538" cy="71.957" r="3.372"/>
		<circle fill="#D93644" cx="1103.844" cy="74.222" r="3.371"/>
		<circle fill="#0C59F2" cx="1097.803" cy="81.019" r="3.371"/>
		<circle fill="#0C59F2" cx="1111.018" cy="69.314" r="3.371"/>
		<circle fill="#D93644" cx="1112.149" cy="77.621" r="3.37"/>
		<circle fill="#0C59F2" cx="1106.109" cy="82.528" r="3.371"/>
		<circle fill="#D93644" cx="1089.875" cy="77.621" r="3.371"/>
		<circle fill="#0C59F2" cx="1088.365" cy="68.559" r="3.371"/>
		<circle fill="#D93644" cx="1094.405" cy="62.142" r="3.371"/>
		<circle fill="#D93644" cx="1109.506" cy="61.386" r="3.372"/>
		<circle fill="#0C59F2" cx="1101.957" cy="58.744" r="3.371"/>
		<circle fill="none" stroke="#F2F2F2" stroke-width="0.3775" stroke-miterlimit="10" cx="1100.652" cy="70.672" r="24.918"/>
		<circle fill="none" stroke="#F2F2F2" stroke-width="0.3775" stroke-miterlimit="10" cx="1100.841" cy="70.861" r="34.923"/>
		<circle fill="#268C16" cx="1078.927" cy="58.744" r="3.371"/>
		<circle fill="#268C16" cx="1093.272" cy="36.847" r="3.371"/>
		<circle fill="#268C16" cx="1100.824" cy="95.743" r="3.371"/>
		<circle fill="#268C16" cx="1071.753" cy="89.324" r="3.372"/>
		<circle fill="#268C16" cx="1120.456" cy="55.346" r="3.372"/>
		<circle fill="#268C16" cx="1133.291" cy="84.417" r="3.371"/>
	</g>
	<g>
		<circle fill="#D93644" cx="760.957" cy="175.295" r="3.371"/>
		<circle fill="#0C59F2" cx="754.538" cy="180.957" r="3.372"/>
		<circle fill="#D93644" cx="762.844" cy="183.222" r="3.371"/>
		<circle fill="#0C59F2" cx="756.803" cy="190.019" r="3.371"/>
		<circle fill="#0C59F2" cx="770.018" cy="178.314" r="3.371"/>
		<circle fill="#D93644" cx="771.149" cy="186.621" r="3.37"/>
		<circle fill="#0C59F2" cx="765.109" cy="191.528" r="3.371"/>
		<circle fill="#D93644" cx="748.875" cy="186.621" r="3.371"/>
		<circle fill="#0C59F2" cx="747.365" cy="177.559" r="3.371"/>
		<circle fill="#D93644" cx="753.405" cy="171.142" r="3.371"/>
		<circle fill="#D93644" cx="768.506" cy="170.386" r="3.372"/>
		<circle fill="#0C59F2" cx="760.957" cy="167.744" r="3.371"/>
		<circle fill="none" stroke="#F2F2F2" stroke-width="0.3775" stroke-miterlimit="10" cx="759.652" cy="179.672" r="24.918"/>
		<circle fill="none" stroke="#F2F2F2" stroke-width="0.3775" stroke-miterlimit="10" cx="759.841" cy="179.861" r="34.923"/>
		<circle fill="#268C16" cx="737.927" cy="167.744" r="3.371"/>
		<circle fill="#268C16" cx="752.272" cy="145.847" r="3.371"/>
		<circle fill="#268C16" cx="759.824" cy="204.743" r="3.371"/>
		<circle fill="#268C16" cx="730.753" cy="198.324" r="3.372"/>
		<circle fill="#268C16" cx="779.456" cy="164.346" r="3.372"/>
		<circle fill="#268C16" cx="792.291" cy="193.417" r="3.371"/>
	</g>
	<g>
		<circle fill="#D93644" cx="345.957" cy="541.295" r="3.371"/>
		<circle fill="#0C59F2" cx="339.538" cy="546.957" r="3.372"/>
		<circle fill="#D93644" cx="347.844" cy="549.223" r="3.371"/>
		<circle fill="#0C59F2" cx="341.803" cy="556.019" r="3.371"/>
		<circle fill="#0C59F2" cx="355.018" cy="544.314" r="3.371"/>
		<circle fill="#D93644" cx="356.149" cy="552.621" r="3.37"/>
		<circle fill="#0C59F2" cx="350.109" cy="557.528" r="3.371"/>
		<circle fill="#D93644" cx="333.875" cy="552.621" r="3.371"/>
		<circle fill="#0C59F2" cx="332.365" cy="543.559" r="3.371"/>
		<circle fill="#D93644" cx="338.405" cy="537.142" r="3.371"/>
		<circle fill="#D93644" cx="353.506" cy="536.387" r="3.372"/>
		<circle fill="#0C59F2" cx="345.957" cy="533.744" r="3.371"/>
		<circle fill="none" stroke="#F2F2F2" stroke-width="0.3775" stroke-miterlimit="10" cx="344.652" cy="545.672" r="24.918"/>
		<circle fill="none" stroke="#F2F2F2" stroke-width="0.3775" stroke-miterlimit="10" cx="344.841" cy="545.861" r="34.923"/>
		<circle fill="#268C16" cx="322.927" cy="533.744" r="3.371"/>
		<circle fill="#268C16" cx="337.272" cy="511.847" r="3.371"/>
		<circle fill="#268C16" cx="344.824" cy="570.742" r="3.371"/>
		<circle fill="#268C16" cx="315.753" cy="564.324" r="3.372"/>
		<circle fill="#268C16" cx="364.456" cy="530.346" r="3.372"/>
		<circle fill="#268C16" cx="377.291" cy="559.416" r="3.371"/>
	</g>
	<g>
		<circle fill="#D93644" cx="74.957" cy="630.295" r="3.371"/>
		<circle fill="#0C59F2" cx="68.538" cy="635.957" r="3.372"/>
		<circle fill="#D93644" cx="76.844" cy="638.223" r="3.371"/>
		<circle fill="#0C59F2" cx="70.803" cy="645.019" r="3.371"/>
		<circle fill="#0C59F2" cx="84.018" cy="633.314" r="3.371"/>
		<circle fill="#D93644" cx="85.149" cy="641.621" r="3.37"/>
		<circle fill="#0C59F2" cx="79.109" cy="646.528" r="3.371"/>
		<circle fill="#D93644" cx="62.875" cy="641.621" r="3.371"/>
		<circle fill="#0C59F2" cx="61.365" cy="632.559" r="3.371"/>
		<circle fill="#D93644" cx="67.405" cy="626.142" r="3.371"/>
		<circle fill="#D93644" cx="82.506" cy="625.387" r="3.372"/>
		<circle fill="#0C59F2" cx="74.957" cy="622.744" r="3.371"/>
		<circle fill="none" stroke="#F2F2F2" stroke-width="0.3775" stroke-miterlimit="10" cx="73.652" cy="634.672" r="24.918"/>
		<circle fill="none" stroke="#F2F2F2" stroke-width="0.3775" stroke-miterlimit="10" cx="73.841" cy="634.861" r="34.923"/>
		<circle fill="#268C16" cx="51.927" cy="622.744" r="3.371"/>
		<circle fill="#268C16" cx="66.272" cy="600.847" r="3.371"/>
		<circle fill="#268C16" cx="73.824" cy="659.742" r="3.371"/>
		<circle fill="#268C16" cx="44.753" cy="653.324" r="3.372"/>
		<circle fill="#268C16" cx="93.456" cy="619.346" r="3.372"/>
		<circle fill="#268C16" cx="106.291" cy="648.416" r="3.371"/>
	</g>
	<g>
		<circle fill="#D93644" cx="53.957" cy="51.295" r="3.371"/>
		<circle fill="#0C59F2" cx="47.538" cy="56.957" r="3.372"/>
		<circle fill="#D93644" cx="55.844" cy="59.223" r="3.371"/>
		<circle fill="#0C59F2" cx="49.803" cy="66.019" r="3.371"/>
		<circle fill="#0C59F2" cx="63.018" cy="54.314" r="3.371"/>
		<circle fill="#D93644" cx="64.149" cy="62.621" r="3.37"/>
		<circle fill="#0C59F2" cx="58.109" cy="67.528" r="3.371"/>
		<circle fill="#D93644" cx="41.875" cy="62.621" r="3.371"/>
		<circle fill="#0C59F2" cx="40.365" cy="53.559" r="3.371"/>
		<circle fill="#D93644" cx="46.405" cy="47.142" r="3.371"/>
		<circle fill="#D93644" cx="61.506" cy="46.387" r="3.372"/>
		<circle fill="#0C59F2" cx="53.957" cy="43.744" r="3.371"/>
		<circle fill="none" stroke="#F2F2F2" stroke-width="0.3775" stroke-miterlimit="10" cx="52.652" cy="55.672" r="24.918"/>
		<circle fill="none" stroke="#F2F2F2" stroke-width="0.3775" stroke-miterlimit="10" cx="52.841" cy="55.861" r="34.923"/>
		<circle fill="#268C16" cx="30.927" cy="43.744" r="3.371"/>
		<circle fill="#268C16" cx="45.272" cy="21.847" r="3.371"/>
		<circle fill="#268C16" cx="52.824" cy="80.742" r="3.371"/>
		<circle fill="#268C16" cx="23.753" cy="74.324" r="3.372"/>
		<circle fill="#268C16" cx="72.456" cy="40.346" r="3.372"/>
		<circle fill="#268C16" cx="85.291" cy="69.416" r="3.371"/>
	</g>
	<g>
		<circle fill="#D93644" cx="934.957" cy="152.295" r="3.371"/>
		<circle fill="#0C59F2" cx="928.538" cy="157.957" r="3.372"/>
		<circle fill="#D93644" cx="936.844" cy="160.222" r="3.371"/>
		<circle fill="#0C59F2" cx="930.803" cy="167.019" r="3.371"/>
		<circle fill="#0C59F2" cx="944.018" cy="155.314" r="3.371"/>
		<circle fill="#D93644" cx="945.149" cy="163.621" r="3.37"/>
		<circle fill="#0C59F2" cx="939.109" cy="168.528" r="3.371"/>
		<circle fill="#D93644" cx="922.875" cy="163.621" r="3.371"/>
		<circle fill="#0C59F2" cx="921.365" cy="154.559" r="3.371"/>
		<circle fill="#D93644" cx="927.405" cy="148.142" r="3.371"/>
		<circle fill="#D93644" cx="942.506" cy="147.386" r="3.372"/>
		<circle fill="#0C59F2" cx="934.957" cy="144.744" r="3.371"/>
		<circle fill="none" stroke="#F2F2F2" stroke-width="0.3775" stroke-miterlimit="10" cx="933.652" cy="156.672" r="24.918"/>
		<circle fill="none" stroke="#F2F2F2" stroke-width="0.3775" stroke-miterlimit="10" cx="933.841" cy="156.861" r="34.923"/>
		<circle fill="#268C16" cx="911.927" cy="144.744" r="3.371"/>
		<circle fill="#268C16" cx="926.272" cy="122.847" r="3.371"/>
		<circle fill="#268C16" cx="933.824" cy="181.743" r="3.371"/>
		<circle fill="#268C16" cx="904.753" cy="175.324" r="3.372"/>
		<circle fill="#268C16" cx="953.456" cy="141.346" r="3.372"/>
		<circle fill="#268C16" cx="966.291" cy="170.417" r="3.371"/>
	</g>
	<g>
		<circle fill="#D93644" cx="1020.957" cy="259.295" r="3.371"/>
		<circle fill="#0C59F2" cx="1014.538" cy="264.957" r="3.372"/>
		<circle fill="#D93644" cx="1022.844" cy="267.222" r="3.371"/>
		<circle fill="#0C59F2" cx="1016.803" cy="274.019" r="3.371"/>
		<circle fill="#0C59F2" cx="1030.018" cy="262.314" r="3.371"/>
		<circle fill="#D93644" cx="1031.149" cy="270.621" r="3.37"/>
		<circle fill="#0C59F2" cx="1025.109" cy="275.528" r="3.371"/>
		<circle fill="#D93644" cx="1008.875" cy="270.621" r="3.371"/>
		<circle fill="#0C59F2" cx="1007.365" cy="261.559" r="3.371"/>
		<circle fill="#D93644" cx="1013.405" cy="255.142" r="3.371"/>
		<circle fill="#D93644" cx="1028.506" cy="254.386" r="3.372"/>
		<circle fill="#0C59F2" cx="1020.957" cy="251.744" r="3.371"/>
		<circle fill="none" stroke="#F2F2F2" stroke-width="0.3775" stroke-miterlimit="10" cx="1019.652" cy="263.672" r="24.918"/>
		<circle fill="none" stroke="#F2F2F2" stroke-width="0.3775" stroke-miterlimit="10" cx="1019.841" cy="263.861" r="34.923"/>
		<circle fill="#268C16" cx="997.927" cy="251.744" r="3.371"/>
		<circle fill="#268C16" cx="1012.272" cy="229.847" r="3.371"/>
		<circle fill="#268C16" cx="1019.824" cy="288.743" r="3.371"/>
		<circle fill="#268C16" cx="990.753" cy="282.324" r="3.372"/>
		<circle fill="#268C16" cx="1039.456" cy="248.346" r="3.372"/>
		<circle fill="#268C16" cx="1052.291" cy="277.417" r="3.371"/>
	</g>
	<g>
		<circle fill="#D93644" cx="570.957" cy="629.295" r="3.371"/>
		<circle fill="#0C59F2" cx="564.538" cy="634.957" r="3.372"/>
		<circle fill="#D93644" cx="572.844" cy="637.223" r="3.371"/>
		<circle fill="#0C59F2" cx="566.803" cy="644.019" r="3.371"/>
		<circle fill="#0C59F2" cx="580.018" cy="632.314" r="3.371"/>
		<circle fill="#D93644" cx="581.149" cy="640.621" r="3.37"/>
		<circle fill="#0C59F2" cx="575.109" cy="645.528" r="3.371"/>
		<circle fill="#D93644" cx="558.875" cy="640.621" r="3.371"/>
		<circle fill="#0C59F2" cx="557.365" cy="631.559" r="3.371"/>
		<circle fill="#D93644" cx="563.405" cy="625.142" r="3.371"/>
		<circle fill="#D93644" cx="578.506" cy="624.387" r="3.372"/>
		<circle fill="#0C59F2" cx="570.957" cy="621.744" r="3.371"/>
		<circle fill="none" stroke="#F2F2F2" stroke-width="0.3775" stroke-miterlimit="10" cx="569.652" cy="633.672" r="24.918"/>
		<circle fill="none" stroke="#F2F2F2" stroke-width="0.3775" stroke-miterlimit="10" cx="569.841" cy="633.861" r="34.923"/>
		<circle fill="#268C16" cx="547.927" cy="621.744" r="3.371"/>
		<circle fill="#268C16" cx="562.272" cy="599.847" r="3.371"/>
		<circle fill="#268C16" cx="569.824" cy="658.742" r="3.371"/>
		<circle fill="#268C16" cx="540.753" cy="652.324" r="3.372"/>
		<circle fill="#268C16" cx="589.456" cy="618.346" r="3.372"/>
		<circle fill="#268C16" cx="602.291" cy="647.416" r="3.371"/>
	</g>
	<g>
		<circle fill="#D93644" cx="842.957" cy="272.295" r="3.371"/>
		<circle fill="#0C59F2" cx="836.538" cy="277.957" r="3.372"/>
		<circle fill="#D93644" cx="844.844" cy="280.222" r="3.371"/>
		<circle fill="#0C59F2" cx="838.803" cy="287.019" r="3.371"/>
		<circle fill="#0C59F2" cx="852.018" cy="275.314" r="3.371"/>
		<circle fill="#D93644" cx="853.149" cy="283.621" r="3.37"/>
		<circle fill="#0C59F2" cx="847.109" cy="288.528" r="3.371"/>
		<circle fill="#D93644" cx="830.875" cy="283.621" r="3.371"/>
		<circle fill="#0C59F2" cx="829.365" cy="274.559" r="3.371"/>
		<circle fill="#D93644" cx="835.405" cy="268.142" r="3.371"/>
		<circle fill="#D93644" cx="850.506" cy="267.386" r="3.372"/>
		<circle fill="#0C59F2" cx="842.957" cy="264.744" r="3.371"/>
		<circle fill="none" stroke="#F2F2F2" stroke-width="0.3775" stroke-miterlimit="10" cx="841.652" cy="276.672" r="24.918"/>
		<circle fill="none" stroke="#F2F2F2" stroke-width="0.3775" stroke-miterlimit="10" cx="841.841" cy="276.861" r="34.923"/>
		<circle fill="#268C16" cx="819.927" cy="264.744" r="3.371"/>
		<circle fill="#268C16" cx="834.272" cy="242.847" r="3.371"/>
		<circle fill="#268C16" cx="841.824" cy="301.743" r="3.371"/>
		<circle fill="#268C16" cx="812.753" cy="295.324" r="3.372"/>
		<circle fill="#268C16" cx="861.456" cy="261.346" r="3.372"/>
		<circle fill="#268C16" cx="874.291" cy="290.417" r="3.371"/>
	</g>
	<g>
		<circle fill="#D93644" cx="1024.957" cy="565.295" r="3.371"/>
		<circle fill="#0C59F2" cx="1018.538" cy="570.957" r="3.372"/>
		<circle fill="#D93644" cx="1026.844" cy="573.223" r="3.371"/>
		<circle fill="#0C59F2" cx="1020.803" cy="580.019" r="3.371"/>
		<circle fill="#0C59F2" cx="1034.018" cy="568.314" r="3.371"/>
		<circle fill="#D93644" cx="1035.149" cy="576.621" r="3.37"/>
		<circle fill="#0C59F2" cx="1029.109" cy="581.528" r="3.371"/>
		<circle fill="#D93644" cx="1012.875" cy="576.621" r="3.371"/>
		<circle fill="#0C59F2" cx="1011.365" cy="567.559" r="3.371"/>
		<circle fill="#D93644" cx="1017.405" cy="561.142" r="3.371"/>
		<circle fill="#D93644" cx="1032.506" cy="560.387" r="3.372"/>
		<circle fill="#0C59F2" cx="1024.957" cy="557.744" r="3.371"/>
		<circle fill="none" stroke="#F2F2F2" stroke-width="0.3775" stroke-miterlimit="10" cx="1023.652" cy="569.672" r="24.918"/>
		<circle fill="none" stroke="#F2F2F2" stroke-width="0.3775" stroke-miterlimit="10" cx="1023.841" cy="569.861" r="34.923"/>
		<circle fill="#268C16" cx="1001.927" cy="557.744" r="3.371"/>
		<circle fill="#268C16" cx="1016.272" cy="535.847" r="3.371"/>
		<circle fill="#268C16" cx="1023.824" cy="594.742" r="3.371"/>
		<circle fill="#268C16" cx="994.753" cy="588.324" r="3.372"/>
		<circle fill="#268C16" cx="1043.456" cy="554.346" r="3.372"/>
		<circle fill="#268C16" cx="1056.291" cy="583.416" r="3.371"/>
	</g>
</g>
<g id="Layer_3" display="none">
	<rect y="333.941" display="inline" fill="none" width="1152" height="73.129"/>
	<text transform="matrix(1 0 0 1 67.1665 393.3008)" display="inline"><tspan x="0" y="0" fill="#F2F2F2" font-family="'Montserrat-Black'" font-size="80">MONEY </tspan><tspan x="343.115" y="0" fill="#D93644" font-family="'Montserrat-Black'" font-size="80">OR</tspan><tspan x="470.554" y="0" fill="#F2F2F2" font-family="'Montserrat-Black'" font-size="80"> MITIGATION</tspan></text>
	<rect x="79.803" y="295.707" display="inline" fill="none" width="1002.242" height="26.188"/>
	<text transform="matrix(1 0 0 1 931.5605 311.2881)" display="inline"><tspan x="0" y="0" fill="#D93644" font-family="'Montserrat-SemiBold'" font-size="21">ARE</tspan><tspan x="45.149" y="0" fill="#F2F2F2" font-family="'Montserrat-SemiBold'" font-size="21"> FORESTS</tspan></text>
</g>
</svg>
